<?xml version="1.0" standalone="no"?>
<!DOCTYPE svg PUBLIC "-//W3C//DTD SVG 1.1//EN" "http://www.w3.org/Graphics/SVG/1.1/DTD/svg11.dtd" >
<svg>
<metadata>
Created by FontForge 20090622 at Tue Aug 11 09:23:28 2015
 By deploy user
2005 Evert Bloemsma published by FSI FontShop International GmbH
</metadata>
<defs>
<font id="CoconPro-Light" horiz-adv-x="570" >
  <font-face 
    font-family="CoconPro-Light"
    font-weight="350"
    font-stretch="normal"
    units-per-em="1000"
    panose-1="2 1 5 4 3 1 1 2 1 4"
    ascent="818"
    descent="-182"
    x-height="535"
    cap-height="680"
    bbox="-68 -285 1338 996"
    underline-thickness="85"
    underline-position="-158"
    unicode-range="U+000D-U+FB02"
  />
<missing-glyph horiz-adv-x="582" 
d="M70 0v685h442v-685h-442zM155 85h272v515h-272v-515z" />
    <glyph glyph-name="fi" unicode="fi" horiz-adv-x="654" 
d="M533 671q0 -26 -18 -44t-43 -18q-26 0 -44 18.5t-18 43.5q0 26 18.5 44.5t43.5 18.5t43 -18.5t18 -44.5zM354 607h-5q-31 27 -80 27q-52 0 -75 -25.5t-23 -83.5v-66h159v-33q0 -20 -16 -34t-44 -14h-100v-378h-34q-56 0 -56 65v470q0 75 48.5 130t128.5 55
q44 0 70.5 -20.5t26.5 -44.5v-48zM637 49q0 -25 -14.5 -39.5t-38.5 -14.5q-160 0 -160 159v381h28q25 0 44 -19t19 -52v-297q0 -88 83 -88h39v-30z" />
    <glyph glyph-name="fl" unicode="fl" horiz-adv-x="664" 
d="M354 607h-5q-31 27 -80 27q-52 0 -75 -25.5t-23 -83.5v-66h159v-33q0 -20 -16 -34t-44 -14h-100v-378h-34q-56 0 -56 65v470q0 75 48.5 130t128.5 55q44 0 70.5 -20.5t26.5 -44.5v-48zM659 50q0 -54 -73 -54q-162 0 -162 159v565h28q29 0 46.5 -18t17.5 -52v-484
q0 -47 21.5 -66.5t62.5 -19.5h59v-30z" />
    <glyph glyph-name=".notdef" horiz-adv-x="582" 
d="M70 0v685h442v-685h-442zM155 85h272v515h-272v-515z" />
    <glyph glyph-name=".null" horiz-adv-x="0" 
 />
    <glyph glyph-name=".null" horiz-adv-x="0" 
 />
    <glyph glyph-name="nonmarkingreturn" horiz-adv-x="333" 
 />
    <glyph glyph-name="CR" unicode="&#xd;" horiz-adv-x="220" 
 />
    <glyph glyph-name="space" unicode=" " horiz-adv-x="220" 
 />
    <glyph glyph-name="exclam" unicode="!" horiz-adv-x="314" 
d="M189 220h-20q-54 0 -57 67l-13 394h43q28 0 44 -17t16 -44v-5zM225 70q0 -30 -20.5 -50t-50.5 -20t-51 20t-21 50t21 50.5t51 20.5t50.5 -20t20.5 -51z" />
    <glyph glyph-name="quotedbl" unicode="&#x22;" horiz-adv-x="415" 
d="M330 438h-12q-51 0 -57 78l-12 164h38q29 0 44.5 -20.5t12.5 -53.5zM145 438h-12q-51 0 -57 78l-12 164h38q29 0 44 -20.5t13 -53.5z" />
    <glyph glyph-name="numbersign" unicode="#" 
d="M479 426h-44l-31 -174h83v-13q0 -49 -51 -49h-44l-35 -190h-23q-18 0 -27 8t-9 28q0 11 3 26l24 128h-138l-34 -190h-24q-35 0 -35 36q0 12 3 27l23 127h-89v14q0 48 50 48h51l31 174h-88v13q0 48 50 48h48l35 193h15q43 0 43 -40q0 -4 -2 -20l-24 -133h138l34 193h15
q44 0 44 -43q0 -6 -2 -20l-23 -130h85v-13q0 -48 -52 -48zM229 426l-30 -174h138l31 174h-139z" />
    <glyph glyph-name="dollar" unicode="$" 
d="M509 197q-1 -77 -53 -130t-146 -65v-123h-20q-21 0 -29 8t-8 29v83q-79 1 -133.5 41t-54.5 93v41h6q31 -44 82 -69.5t113 -25.5q81 0 117.5 26t36.5 82q0 38 -12.5 58t-53 37.5t-129.5 38.5q-81 18 -125 55.5t-44 106.5q0 76 52.5 129t144.5 66v131h16q41 0 41 -36v-92
q54 -1 93 -15.5t56.5 -36.5t25 -40t7.5 -34v-32h-8q-32 41 -74 59.5t-110 18.5q-66 0 -110 -24.5t-44 -79.5q0 -51 35 -72t155 -51q173 -43 173 -177z" />
    <glyph glyph-name="percent" unicode="%" horiz-adv-x="1003" 
d="M217 255q-72 0 -115.5 60.5t-43.5 149.5q0 101 44.5 163t123.5 62q72 0 115.5 -60t43.5 -149q0 -101 -44.5 -163.5t-123.5 -62.5zM375 0h-28q-33 0 -33 27q0 16 12 43l277 610h26q11 0 21 -12t10 -30q0 -12 -6 -25zM772 -10q-72 0 -115.5 60.5t-43.5 149.5
q0 101 44.5 163t123.5 62q72 0 115.5 -60t43.5 -149q0 -101 -44.5 -163.5t-123.5 -62.5zM218 614q-41 0 -60 -38.5t-19 -95.5q0 -148 86 -148q41 0 60 38t19 95q0 149 -86 149zM773 349q-41 0 -60 -38.5t-19 -95.5q0 -148 86 -148q41 0 60 38t19 95q0 149 -86 149z" />
    <glyph glyph-name="ampersand" unicode="&#x26;" horiz-adv-x="678" 
d="M599 -9q-55 0 -101 47l-38 39q-28 -28 -46.5 -43t-58.5 -29.5t-90 -14.5q-104 0 -156.5 52t-52.5 137q0 118 135 199q-72 81 -72 145q0 69 48 118t137 49q72 0 117.5 -40t45.5 -107q0 -51 -35.5 -92.5t-121.5 -91.5q65 -83 151 -169q73 84 78 184h24q16 0 29 -15.5
t13 -40.5q0 -77 -89 -183q54 -54 80 -73.5t58 -24.5q-11 -30 -21.5 -38t-33.5 -8zM298 612q-43 0 -66.5 -22.5t-23.5 -65.5q0 -16 6.5 -32t13 -25.5t20.5 -26.5t19 -24q59 32 87 58t28 58q0 39 -22.5 59.5t-61.5 20.5zM236 320q-91 -57 -91 -124q0 -126 135 -126
q66 0 129 63q-78 78 -173 187z" />
    <glyph glyph-name="quotesingle" unicode="'" horiz-adv-x="314" 
d="M193 458h-12q-51 0 -57 78l-12 164h38q26 0 41.5 -17t15.5 -47v-10z" />
    <glyph glyph-name="parenleft" unicode="(" horiz-adv-x="354" 
d="M298 -169q-31 0 -76 29q-63 40 -115.5 157.5t-52.5 250.5q0 137 45 249t119 169q43 34 84 34h35q-91 -92 -137 -193.5t-46 -237.5q0 -278 177 -458h-33z" />
    <glyph glyph-name="parenright" unicode=")" horiz-adv-x="354" 
d="M57 719q31 0 76 -29q63 -40 115.5 -157.5t52.5 -250.5q0 -137 -45 -249t-119 -169q-43 -34 -84 -34h-35q91 92 137 193.5t46 237.5q0 278 -177 458h33z" />
    <glyph glyph-name="asterisk" unicode="*" horiz-adv-x="515" 
d="M398 491q-68 0 -100 -9q19 -21 32 -41q25 -40 44.5 -57.5t47.5 -25.5q-24 -50 -56 -50q-35 0 -53 27q-23 35 -31 70q-4 14 -24 55q-70 -87 -70 -160q-78 5 -78 60q0 43 43 75q41 30 64 53q-63 26 -120 26q-24 0 -54 -10q3 38 20.5 65t49.5 27q40 0 76 -30q18 -15 50 -33
q4 38 4 42q0 94 -34 136q31 9 41 9q33 0 53 -15.5t20 -45.5t-12 -58q-13 -30 -21 -70q41 1 85 29t66 62q31 -46 31 -74t-21 -42.5t-53 -14.5z" />
    <glyph glyph-name="plus" unicode="+" 
d="M464 250h-148v-229h-26q-17 0 -30.5 16.5t-13.5 48.5v164h-211v37q0 14 11.5 26.5t31.5 12.5h168v206h34q14 0 25 -12t11 -34v-160h207v-28q0 -18 -15 -33t-44 -15z" />
    <glyph glyph-name="comma" unicode="," horiz-adv-x="288" 
d="M83 -156v6q49 51 49 99q0 37 -30 59q-9 6 -17 21.5t-8 29.5q0 27 18.5 45t51.5 18q31 0 52.5 -28.5t21.5 -83.5q0 -71 -37 -117t-101 -49z" />
    <glyph glyph-name="hyphen" unicode="-" horiz-adv-x="353" 
d="M300 325q0 -24 -14.5 -40.5t-36.5 -16.5h-195v30q0 22 16 38t40 16h190v-27z" />
    <glyph glyph-name="period" unicode="." horiz-adv-x="288" 
d="M215 70q0 -30 -20.5 -50t-50.5 -20t-51 20t-21 50t21 50.5t51 20.5t50.5 -20t20.5 -51z" />
    <glyph glyph-name="slash" unicode="/" horiz-adv-x="483" 
d="M125 -10h-31q-9 0 -20 10t-11 27q0 18 10 41l293 651h30q14 0 24.5 -10.5t10.5 -23.5t-5 -23z" />
    <glyph glyph-name="zero" unicode="0" 
d="M526 354q0 -184 -64 -274.5t-183 -90.5q-102 0 -169 91t-67 248q0 176 61.5 269t185.5 93q103 0 169.5 -83.5t66.5 -252.5zM436 326q0 155 -39 217t-118 62q-66 0 -104.5 -62t-38.5 -190q0 -144 42 -211t107 -67q66 0 108.5 60t42.5 191z" />
    <glyph glyph-name="one" unicode="1" 
d="M420 0h-33q-60 0 -60 68v517l-102 -48q-13 -6 -26 -6q-32 0 -39 25l-10 34l104 53q74 37 113 37q21 0 37 -13.5t16 -33.5v-633z" />
    <glyph glyph-name="two" unicode="2" 
d="M512 52q0 -20 -14.5 -36t-44.5 -16h-345q-20 0 -32.5 11.5t-12.5 27.5v4q0 35 21 65t91 92l143 127q47 42 66 76t19 73q0 62 -37.5 96t-108.5 34q-123 0 -183 -102h-6v42q0 58 55 101t153 43q93 0 156 -57t63 -141q0 -75 -29.5 -122.5t-102.5 -109.5l-138 -117
q-40 -35 -57 -59h344v-32z" />
    <glyph glyph-name="three" unicode="3" 
d="M499 202q0 -99 -61 -155.5t-185 -56.5q-82 0 -141 38.5t-59 95.5v41h6q70 -91 201 -91q146 0 146 116q0 119 -181 120q-46 0 -46 44v26h31q102 0 145.5 26.5t43.5 86.5q0 113 -157 113q-69 0 -115.5 -25.5t-68.5 -65.5h-6v39q0 47 56.5 91.5t149.5 44.5
q108 0 170.5 -51.5t62.5 -132.5q0 -128 -142 -156q64 -11 107 -53t43 -95z" />
    <glyph glyph-name="four" unicode="4" 
d="M548 216q0 -47 -50 -47h-59v-169h-33q-26 0 -42.5 15.5t-16.5 47.5v106h-241q-30 0 -49.5 14.5t-19.5 33.5q0 26 6 40q45 98 141.5 234.5t154.5 188.5h38q27 0 44.5 -18t17.5 -57v-359h109v-30zM347 246v346q-43 -50 -115.5 -160t-109.5 -186h225z" />
    <glyph glyph-name="five" unicode="5" 
d="M520 216q0 -106 -66 -166t-182 -60q-85 0 -138 37t-53 88v31h6q61 -72 191 -72q150 0 150 133q0 68 -40.5 97t-130.5 29q-84 0 -168 -28v281q0 94 87 94h314v-30q0 -54 -60 -54h-258v-198q70 14 114 14q112 0 173 -52.5t61 -143.5z" />
    <glyph glyph-name="six" unicode="6" 
d="M528 219q0 -102 -64.5 -165.5t-174.5 -63.5q-103 0 -169.5 81.5t-66.5 239.5q0 168 77 273.5t209 105.5q74 0 115 -32t41 -74v-29h-5q-29 27 -62 40.5t-90 13.5q-90 0 -142 -70t-52 -210q18 43 66 73.5t104 30.5q98 0 156 -59t58 -155zM437 207q0 77 -34.5 111.5
t-105.5 34.5q-67 0 -108 -38t-41 -81q0 -74 40 -119t109 -45q68 0 104 38t36 99z" />
    <glyph glyph-name="seven" unicode="7" 
d="M509 629q0 -42 -63 -165l-135 -263q-39 -77 -39 -161v-40h-37q-54 0 -54 62q0 76 47 164l138 258q40 74 48 112h-362v29q0 55 57 55h341q59 0 59 -51z" />
    <glyph glyph-name="eight" unicode="8" 
d="M530 196q0 -87 -61 -146.5t-179 -59.5q-111 0 -172.5 55t-61.5 138q0 54 33.5 98.5t98.5 63.5q-123 40 -123 145q0 87 61.5 143.5t169.5 56.5q98 0 161 -51.5t63 -134.5q0 -64 -32 -100t-95 -52q61 -15 99 -62t38 -94zM429 495q0 52 -36 83t-103 31q-66 0 -100 -30
t-34 -79q0 -54 37 -84t104 -30q132 0 132 109zM438 188q0 53 -37 87t-112 34q-66 0 -103.5 -33t-37.5 -84q0 -54 40 -86t108 -32q71 0 106.5 31.5t35.5 82.5z" />
    <glyph glyph-name="nine" unicode="9" 
d="M518 367q0 -194 -60 -285.5t-191 -91.5q-87 0 -142 36t-55 102v31h5q59 -87 193 -87q84 0 121.5 62t37.5 192q-23 -42 -64.5 -66t-93.5 -24q-106 0 -167.5 63t-61.5 153q0 101 69.5 169.5t169.5 68.5q239 0 239 -323zM426 438q0 88 -38 129t-115 41q-67 0 -104.5 -40.5
t-37.5 -103.5q0 -150 152 -150q67 0 105 37t38 87z" />
    <glyph glyph-name="colon" unicode=":" horiz-adv-x="288" 
d="M215 70q0 -30 -20.5 -50t-50.5 -20t-51 20t-21 50t21 50.5t51 20.5t50.5 -20t20.5 -51zM215 463q0 -30 -20.5 -50t-50.5 -20t-51 20t-21 50t21 50.5t51 20.5t50.5 -20t20.5 -51z" />
    <glyph glyph-name="semicolon" unicode=";" horiz-adv-x="288" 
d="M83 -156v6q49 51 49 99q0 37 -30 59q-9 6 -17 21.5t-8 29.5q0 27 18.5 45t51.5 18q31 0 52.5 -28.5t21.5 -83.5q0 -71 -37 -117t-101 -49zM215 463q0 -30 -20.5 -50t-50.5 -20t-51 20t-21 50t21 50.5t51 20.5t50.5 -20t20.5 -51z" />
    <glyph glyph-name="less" unicode="&#x3c;" 
d="M423 435q-130 -55 -278 -141q174 -108 335 -182v-18q0 -33 -50 -33q-15 0 -45 15q-68 30 -166.5 88t-164.5 109v22q0 19 45 49q53 36 175.5 96.5t209.5 94.5v-29q0 -25 -13 -40.5t-48 -30.5z" />
    <glyph glyph-name="equal" unicode="=" 
d="M453 364h-367v36q0 17 11 28t32 11h367v-38q0 -15 -13 -26t-30 -11zM453 151h-367v36q0 17 11 28t32 11h367v-38q0 -15 -13 -26t-30 -11z" />
    <glyph glyph-name="greater" unicode="&#x3e;" 
d="M141 158q130 55 278 141q-174 108 -335 182v18q0 33 50 33q15 0 45 -15q66 -28 165 -86.5t166 -110.5v-22q0 -19 -45 -49q-46 -30 -172.5 -93.5t-212.5 -97.5v29q0 25 13 40.5t48 30.5z" />
    <glyph glyph-name="question" unicode="?" horiz-adv-x="472" 
d="M337 524q0 44 -33.5 67.5t-89.5 23.5q-62 0 -96 -21.5t-64 -63.5h-6v31q0 54 46 95.5t137 41.5q94 0 146 -46.5t52 -116.5q0 -79 -73 -144l-86 -77q-28 -25 -28 -79v-29h-34q-13 0 -27.5 16t-14.5 38q0 61 47 103l73 65q31 28 41 46.5t10 49.5zM285 70q0 -30 -20.5 -50
t-50.5 -20t-51 20t-21 50t21 50.5t51 20.5t50.5 -20t20.5 -51z" />
    <glyph glyph-name="at" unicode="@" horiz-adv-x="757" 
d="M529 159q-32 0 -52 17.5t-29 59.5q-32 -77 -122 -77q-42 0 -77 43.5t-35 108.5q0 95 57.5 160t144.5 65q47 0 84 -25.5t37 -63.5q0 -28 -11 -81q-12 -57 -12 -87q0 -54 34 -54q37 0 67.5 48t30.5 130q0 105 -63 171t-175 66q-120 0 -204.5 -89t-84.5 -233
q0 -125 71 -196.5t184 -71.5q95 0 158 26v-24q0 -18 -9.5 -26.5t-35.5 -19.5q-38 -16 -131 -16q-128 0 -217.5 87.5t-89.5 232.5q0 162 103 276t266 114q131 0 214.5 -83t83.5 -210q0 -111 -53.5 -179.5t-133.5 -68.5zM401 458q-39 0 -67.5 -40t-28.5 -97q0 -81 50 -81
q48 0 68.5 46.5t36.5 150.5q-21 21 -59 21z" />
    <glyph glyph-name="A" unicode="A" horiz-adv-x="597" 
d="M582 0h-33q-54 0 -63 48q-4 21 -10 45.5t-13 50.5t-9 36h-318q-28 -109 -41 -180h-35q-41 0 -41 44q0 80 83.5 313.5t156.5 322.5h30q28 0 48.5 -18t43.5 -58q51 -90 114 -270.5t87 -333.5zM431 253q-55 197 -137 345q-81 -145 -137 -345h274z" />
    <glyph glyph-name="B" unicode="B" horiz-adv-x="610" 
d="M555 201q0 -93 -63.5 -149.5t-160.5 -56.5h-80q-176 0 -176 152v510q84 28 165 28h90q99 0 155.5 -50.5t56.5 -127.5q0 -116 -121 -151q72 -20 103 -64.5t31 -90.5zM165 592v-202h139q74 0 111 24.5t37 83.5q0 106 -142 106h-56q-40 0 -89 -12zM310 314h-144v-163
q0 -74 90 -74h71q64 0 100 30t36 88q0 65 -35 92t-118 27z" />
    <glyph glyph-name="C" unicode="C" horiz-adv-x="591" 
d="M566 529h-7q-51 76 -167 76q-110 0 -177.5 -69.5t-67.5 -178.5q0 -135 69.5 -208.5t179.5 -73.5q104 0 163 67h5v-28q0 -51 -50 -87.5t-136 -36.5q-136 0 -229.5 99t-93.5 253q0 91 38.5 169.5t116.5 128.5t181 50q79 0 127 -39.5t48 -86.5v-35z" />
    <glyph glyph-name="D" unicode="D" horiz-adv-x="670" 
d="M615 347q0 -157 -85.5 -254.5t-219.5 -97.5h-61q-84 0 -129 39t-45 106v525q76 20 152 20h85q127 0 215 -94t88 -244zM523 333q0 134 -61 202t-172 68h-39q-39 0 -84 -9v-429q0 -88 96 -88h37q104 0 163.5 70t59.5 186z" />
    <glyph glyph-name="E" unicode="E" horiz-adv-x="560" 
d="M523 71q0 -40 -25 -58t-102 -18h-84q-247 0 -247 283v123q0 90 23 184q12 50 32 72.5t54 22.5h355v-37q0 -47 -66 -47h-282q-24 -94 -24 -207h295v-29q0 -22 -15 -35.5t-44 -13.5h-236v-50q0 -102 42 -142.5t144 -40.5h52q60 0 128 19v-26z" />
    <glyph glyph-name="F" unicode="F" horiz-adv-x="489" 
d="M484 641q0 -17 -14 -31.5t-41 -14.5h-256v-196h265v-30q0 -24 -16 -38t-42 -14h-207v-317h-35q-58 0 -58 55v541q0 46 21.5 65t77.5 19h305v-39z" />
    <glyph glyph-name="G" unicode="G" horiz-adv-x="666" 
d="M422 690q81 0 132 -37.5t51 -85.5v-33h-5q-54 72 -189 72q-104 0 -176.5 -67t-72.5 -191q0 -137 71.5 -205.5t183.5 -68.5q64 0 87 20t23 73v63q0 44 -5 77h41q21 0 34.5 -14t13.5 -33v-116q0 -154 -211 -154q-136 0 -233 97.5t-97 249.5q0 155 93 254t259 99z" />
    <glyph glyph-name="H" unicode="H" horiz-adv-x="686" 
d="M606 0h-31q-24 0 -42 17.5t-18 49.5v246h-343v-313h-34q-23 0 -40.5 17t-17.5 50v613h49q17 0 30 -12.5t13 -33.5v-237h343v283h44q19 0 33 -13t14 -33v-634z" />
    <glyph glyph-name="I" unicode="I" horiz-adv-x="263" 
d="M178 0h-33q-60 0 -60 67v613h44q19 0 34 -13t15 -33v-634z" />
    <glyph glyph-name="J" unicode="J" horiz-adv-x="393" 
d="M318 200q0 -100 -51 -155t-146 -55q-49 0 -82.5 24t-33.5 62v37h5q13 -15 44 -26t64 -11q57 0 83 29t26 91v484h32q59 0 59 -60v-420z" />
    <glyph glyph-name="K" unicode="K" horiz-adv-x="573" 
d="M171 0h-34q-24 0 -40.5 17.5t-16.5 46.5v616h27q31 0 47.5 -16.5t16.5 -46.5v-258l51.5 69.5l59.5 80t50.5 63.5t62.5 72q33 36 103 36h45v-5q-78 -68 -271 -316q30 -40 96.5 -122.5t100.5 -120.5q50 -55 104 -77q-9 -16 -14.5 -23.5t-17 -14t-27.5 -6.5q-53 0 -87 37
q-56 62 -136.5 161.5t-119.5 154.5v-348z" />
    <glyph glyph-name="L" unicode="L" horiz-adv-x="498" 
d="M496 69q0 -36 -27.5 -55t-105.5 -19h-57q-226 0 -226 244v442h33q29 0 43.5 -15t14.5 -53v-350q0 -109 30.5 -145.5t123.5 -36.5h38q80 0 133 15v-27z" />
    <glyph glyph-name="M" unicode="M" horiz-adv-x="901" 
d="M826 0h-34q-31 0 -45.5 17t-14.5 56q0 90 -11 253t-26 248q-19 -35 -60 -151l-106 -305q-23 -68 -49 -118h-21q-12 0 -22 6t-24 23.5t-30.5 55t-35.5 94.5l-85 257q-23 73 -58 137q-39 -258 -43 -573h-27q-26 0 -44.5 19.5t-18.5 53.5q0 128 19.5 302t43.5 305h34
q59 0 93 -41.5t58 -110.5l90 -267q32 -96 40 -136q17 63 45 138l88 245q19 52 45 101.5t42 70.5h24q44 0 66.5 -32t29.5 -97q30 -271 37 -551z" />
    <glyph glyph-name="N" unicode="N" horiz-adv-x="685" 
d="M605 0h-28q-51 0 -94.5 38t-94.5 141l-144 291q-38 78 -75 113v-583h-38q-22 0 -36.5 16.5t-14.5 45.5v619h44q107 0 174 -136l144 -292l18 -37.5l19 -39.5t18 -32.5t22 -31.5v568h38q20 0 34 -13.5t14 -34.5v-632z" />
    <glyph glyph-name="O" unicode="O" horiz-adv-x="726" 
d="M671 349q0 -160 -83 -259.5t-230 -99.5q-128 0 -215 93t-87 249q0 160 83 259t230 99q136 0 219 -94.5t83 -246.5zM580 332q0 138 -54 206t-168 68q-99 0 -155 -65t-56 -192q0 -133 56.5 -204t165.5 -71q98 0 154.5 69.5t56.5 188.5z" />
    <glyph glyph-name="P" unicode="P" horiz-adv-x="551" 
d="M541 476q0 -95 -67 -158.5t-166 -63.5q-92 0 -136 29v-283h-34q-27 0 -42.5 15t-15.5 45v594q32 12 82.5 21.5t90.5 9.5h53q104 0 169.5 -55.5t65.5 -153.5zM449 466q0 134 -141 134h-52q-42 0 -84 -10v-229q48 -26 137 -26q69 0 104.5 34.5t35.5 96.5z" />
    <glyph glyph-name="Q" unicode="Q" horiz-adv-x="734" 
d="M646 -96q-78 0 -183.5 28t-180.5 68q-105 29 -166.5 122t-61.5 210q0 161 80.5 259.5t237.5 98.5q136 0 218 -93t82 -248q0 -136 -71 -228.5t-170 -103.5q96 -34 260 -41v-31q0 -17 -13.5 -29t-31.5 -12zM581 334q0 141 -54 207t-171 66q-57 0 -99.5 -22.5t-66 -61
t-34.5 -82t-11 -92.5q0 -133 59.5 -205t167.5 -72q94 0 151.5 71.5t57.5 190.5z" />
    <glyph glyph-name="R" unicode="R" horiz-adv-x="598" 
d="M576 7v-5q-35 -5 -49 -5q-54 0 -75 51l-51 122q-29 69 -53.5 90.5t-60.5 24.5q-75 5 -115 14v-299h-34q-58 0 -58 58v596q31 12 81.5 21.5t90.5 9.5h61q103 0 162.5 -49.5t59.5 -136.5q0 -77 -44.5 -121.5t-114.5 -54.5q30 -9 52 -30t32 -38.5t22 -47.5l62 -146
q16 -36 32 -54zM443 485q0 120 -137 120h-51q-36 0 -83 -11v-218q63 -10 123 -10q61 0 104.5 29.5t43.5 89.5z" />
    <glyph glyph-name="S" unicode="S" horiz-adv-x="579" 
d="M272 -10q-76 0 -140 39.5t-64 95.5v44h5q31 -42 86.5 -67.5t119.5 -25.5q84 0 119 28.5t35 82.5q0 53 -36 79t-141 49q-103 23 -150.5 61t-47.5 109q0 89 70 147t188 58q90 0 142.5 -38t52.5 -88v-41h-5q-64 81 -195 81q-75 0 -116 -27.5t-41 -77.5q0 -48 32 -70.5
t133 -45.5q40 -9 74 -23t66 -36t50.5 -54.5t18.5 -72.5q0 -90 -65.5 -148.5t-190.5 -58.5z" />
    <glyph glyph-name="T" unicode="T" horiz-adv-x="523" 
d="M518 646q0 -16 -15.5 -32.5t-37.5 -16.5h-160v-597h-34q-31 0 -45 12.5t-14 45.5v539h-207v34q0 21 14.5 35.5t43.5 14.5h455v-35z" />
    <glyph glyph-name="U" unicode="U" horiz-adv-x="684" 
d="M70 307v373h32q33 0 46.5 -16t13.5 -56v-293q0 -126 43.5 -183t139.5 -57t136.5 54.5t40.5 177.5v373h35q57 0 57 -67v-298q0 -156 -70.5 -240.5t-204.5 -84.5q-133 0 -201 82t-68 235z" />
    <glyph glyph-name="V" unicode="V" horiz-adv-x="602" 
d="M574 615q-27 -138 -104.5 -331.5t-136.5 -288.5h-23q-32 0 -59 45q-80 134 -140 306t-88 334h40q21 0 41 -15t25 -40q22 -114 71.5 -264t105.5 -250q58 112 112 275t75 294h44q17 0 28.5 -11t11.5 -25t-3 -29z" />
    <glyph glyph-name="W" unicode="W" horiz-adv-x="888" 
d="M900 583q-58 -305 -205 -588h-23q-25 0 -43 32q-41 77 -84.5 202.5t-70.5 261.5q-30 -140 -79.5 -285.5t-86.5 -210.5h-20q-17 0 -31 10.5t-20 21.5q-146 287 -199 653h48q22 0 37.5 -17.5t19.5 -42.5q47 -272 140 -492q44 112 86 258.5t56 220.5l10 51h26q35 0 49 -15
t24 -62q52 -253 140 -453q52 127 94 278t56 274h47q16 0 26.5 -11.5t10.5 -31.5q0 -6 -8 -54z" />
    <glyph glyph-name="X" unicode="X" horiz-adv-x="643" 
d="M555 -8q-39 0 -72 27.5t-86 105.5l-108 160q-171 -187 -174 -285h-37q-15 0 -26 13.5t-11 26.5q0 32 10 59q27 70 106 159l87 98l-99 144l-74 106q-32 46 -41 74h55q45 0 121 -114l104 -156q155 169 188 270h31q14 0 25 -12.5t11 -33.5q0 -67 -210 -293l115 -169
q61 -89 143 -164q-22 -16 -58 -16z" />
    <glyph glyph-name="Y" unicode="Y" horiz-adv-x="553" 
d="M541 643q0 -31 -78.5 -160t-136.5 -198v-285h-34q-58 0 -58 55v229q-63 84 -125 194.5t-94 201.5h47q49 0 69 -49q55 -130 156 -277q128 183 180 326h38q36 0 36 -37z" />
    <glyph glyph-name="Z" unicode="Z" horiz-adv-x="589" 
d="M537 49q0 -21 -16.5 -35t-41.5 -14h-361q-26 0 -42 14t-16 36q0 34 23 74.5t84 117.5l193 245q54 69 62 110h-367v19q0 32 16.5 48t61.5 16h352q15 0 29.5 -14.5t14.5 -36.5q0 -58 -86 -168l-191 -244q-71 -91 -91 -134h376v-34z" />
    <glyph glyph-name="bracketleft" unicode="[" horiz-adv-x="320" 
d="M89 -170v890h155q26 0 41.5 -14.5t15.5 -39.5v-17h-128v-748h71q26 0 41.5 -14t15.5 -39v-18h-212z" />
    <glyph glyph-name="backslash" unicode="\" horiz-adv-x="490" 
d="M423 0q-30 0 -52.5 15t-33.5 39l-286 626h32q24 0 44 -13.5t29 -32.5l289 -634h-22z" />
    <glyph glyph-name="bracketright" unicode="]" horiz-adv-x="320" 
d="M230 720v-890h-155q-27 0 -42.5 14.5t-15.5 39.5v17h129v748h-71q-26 0 -42 14t-16 39v18h213z" />
    <glyph glyph-name="asciicircum" unicode="^" horiz-adv-x="491" 
d="M338 458q-18 52 -92 179q-90 -149 -122 -220h-13q-22 0 -32 9.5t-10 21.5q0 3 2 8t5 10.5t4 8.5q58 133 148 245h18q21 0 47 -35q27 -38 68.5 -118.5t68.5 -152.5q-38 1 -62 13.5t-30 30.5z" />
    <glyph glyph-name="underscore" unicode="_" horiz-adv-x="565" 
d="M565 -285h-565v85h565v-85z" />
    <glyph glyph-name="grave" unicode="`" horiz-adv-x="529" 
d="M323 628h-16q-47 0 -120 33q-64 29 -64 70q0 17 11 28.5t30 11.5q43 0 84 -41q56 -56 75 -96v-6z" />
    <glyph glyph-name="a" unicode="a" horiz-adv-x="535" 
d="M468 176q0 -86 -50.5 -136t-157.5 -50q-84 0 -144 44.5t-60 113.5q0 86 64.5 132t184.5 46h72v25q0 58 -30 84t-96 26q-117 0 -170 -73h-5v44q0 41 50 77t134 36q102 0 155 -51.5t53 -149.5v-168zM378 183v67h-73q-156 0 -156 -92q0 -36 32 -60t83 -24q61 0 87.5 25.5
t26.5 83.5z" />
    <glyph glyph-name="b" unicode="b" horiz-adv-x="614" 
d="M559 276q0 -124 -69.5 -205t-182.5 -81q-110 0 -173.5 73t-63.5 192v465h43q20 0 35 -15.5t15 -46.5v-219q22 49 68.5 77.5t102.5 28.5q96 0 160.5 -71.5t64.5 -197.5zM466 266q0 102 -42.5 148t-113.5 46q-65 0 -106 -53.5t-41 -140.5q0 -97 41.5 -144t114.5 -47
q67 0 107 52.5t40 138.5z" />
    <glyph glyph-name="c" unicode="c" horiz-adv-x="521" 
d="M466 390h-5q-14 29 -55 49.5t-81 20.5q-79 0 -128 -52t-49 -133q0 -97 54.5 -148.5t124.5 -51.5q94 0 134 47h5v-38q0 -33 -39 -63.5t-116 -30.5q-93 0 -174.5 75t-81.5 196q0 118 74 201t191 83q63 0 104.5 -30.5t41.5 -86.5v-38z" />
    <glyph glyph-name="d" unicode="d" horiz-adv-x="612" 
d="M542 283q0 -153 -58 -223t-184 -70q-100 0 -172.5 79.5t-72.5 190.5q0 137 61.5 211t172.5 74q109 0 161 -103v278h24q68 0 68 -74v-363zM449 258q0 202 -157 202q-69 0 -107 -50.5t-38 -141.5q0 -81 45.5 -137t115.5 -56q74 0 107.5 43t33.5 140z" />
    <glyph glyph-name="e" unicode="e" horiz-adv-x="562" 
d="M507 359q0 -73 -47 -103t-180 -30h-132q7 -68 52.5 -110t118.5 -42q105 0 162 55h5v-40q0 -44 -46.5 -71.5t-133.5 -27.5q-110 0 -180.5 75.5t-70.5 191.5q0 128 71 208t179 80q80 0 141 -54t61 -132zM419 354q0 46 -32 77.5t-92 31.5q-63 0 -104 -44t-43 -99l-1 -22
l121 2q94 1 122.5 12t28.5 42z" />
    <glyph glyph-name="f" unicode="f" horiz-adv-x="354" 
d="M354 607h-5q-31 27 -80 27q-52 0 -75 -25.5t-23 -83.5v-66h159v-33q0 -20 -16 -34t-44 -14h-100v-378h-34q-56 0 -56 65v470q0 75 48.5 130t128.5 55q44 0 70.5 -20.5t26.5 -44.5v-48z" />
    <glyph glyph-name="g" unicode="g" horiz-adv-x="579" 
d="M512 171q0 -13 2 -49t2 -45q0 -119 -71 -181t-182 -62q-66 0 -116.5 30.5t-50.5 76.5v37h7q61 -58 171 -58q69 0 112 39t43 113q0 6 -2.5 30.5t-2.5 38.5v27q-43 -97 -148 -97q-96 0 -159 58t-63 155q0 108 66 184.5t189 76.5q93 0 148 -58t55 -169v-147zM424 295
q0 85 -32 125t-97 40q-68 0 -108.5 -46.5t-40.5 -110.5q0 -77 37.5 -113t103.5 -36q63 0 100 39.5t37 101.5z" />
    <glyph glyph-name="h" unicode="h" horiz-adv-x="592" 
d="M522 0h-24q-36 0 -51.5 14.5t-15.5 44.5v253q0 78 -32 112.5t-96 34.5q-51 0 -92 -40.5t-41 -111.5v-307h-26q-64 0 -64 59v661h27q65 0 65 -68v-201q51 94 144 94q98 0 152 -56.5t54 -173.5v-315z" />
    <glyph glyph-name="i" unicode="i" horiz-adv-x="317" 
d="M198 671q0 -26 -18 -44t-43 -18t-43.5 18.5t-18.5 43.5q0 26 18.5 44.5t43.5 18.5t43 -18.5t18 -44.5zM302 49q0 -25 -14.5 -39.5t-38.5 -14.5q-160 0 -160 159v381h28q25 0 44 -19t19 -52v-297q0 -88 83 -88h39v-30z" />
    <glyph glyph-name="j" unicode="j" horiz-adv-x="315" 
d="M240 671q0 -26 -18 -44t-43 -18t-43.5 18.5t-18.5 43.5q0 26 18.5 44.5t43.5 18.5t43 -18.5t18 -44.5zM222 -10q0 -79 -41.5 -124.5t-118.5 -45.5q-34 0 -53 14t-19 32v31l56 4q85 6 85 93v541h28q35 0 49 -16t14 -55v-474z" />
    <glyph glyph-name="k" unicode="k" horiz-adv-x="499" 
d="M485 41q-6 -24 -17 -34t-44 -10q-42 0 -70 30q-52 52 -196 234v-261h-29q-59 0 -59 72v648h28q60 0 60 -60v-360q91 115 196 214q20 20 70 20h63v-5q-33 -26 -53.5 -44t-70 -69l-119.5 -129q89 -120 146 -179q33 -35 52.5 -48.5t42.5 -18.5z" />
    <glyph glyph-name="l" unicode="l" horiz-adv-x="320" 
d="M315 50q0 -54 -73 -54q-162 0 -162 159v565h28q29 0 46.5 -18t17.5 -52v-484q0 -47 21.5 -66.5t62.5 -19.5h59v-30z" />
    <glyph glyph-name="m" unicode="m" horiz-adv-x="894" 
d="M825 0h-32q-27 0 -43.5 17.5t-16.5 49.5v236q0 156 -115 156q-66 0 -95.5 -36t-29.5 -117v-306h-31q-61 0 -61 67v236q0 73 -31.5 114.5t-88.5 41.5q-120 0 -120 -156v-303h-29q-29 0 -46 17t-17 50v248q0 97 58.5 163.5t159.5 66.5q114 0 166 -97q27 44 71.5 70.5
t96.5 26.5q204 0 204 -239v-306z" />
    <glyph glyph-name="n" unicode="n" horiz-adv-x="582" 
d="M512 0h-33q-57 0 -57 59v246q0 83 -32 118.5t-104 35.5q-126 0 -126 -154v-305h-34q-26 0 -41 15.5t-15 46.5v245q0 111 61.5 174.5t165.5 63.5q103 0 159 -59.5t56 -177.5v-308z" />
    <glyph glyph-name="o" unicode="o" horiz-adv-x="599" 
d="M543 278q0 -134 -65 -211t-175 -77q-107 0 -177.5 75t-70.5 193q0 132 67 209t181 77q107 0 173.5 -73.5t66.5 -192.5zM451 257q0 99 -41 150t-120 51q-65 0 -104 -49t-39 -132q0 -93 43.5 -147t121.5 -54q66 0 102.5 50t36.5 131z" />
    <glyph glyph-name="p" unicode="p" horiz-adv-x="611" 
d="M556 280q0 -134 -68 -212t-172 -78q-46 0 -89.5 26t-64.5 68v-254h-33q-59 0 -59 69v354q0 138 65 215t191 77q92 0 161 -75t69 -190zM464 255q0 104 -42.5 154t-115.5 50q-70 0 -108 -48.5t-38 -132.5q0 -100 44.5 -151.5t121.5 -51.5q65 0 101.5 47t36.5 133z" />
    <glyph glyph-name="q" unicode="q" horiz-adv-x="611" 
d="M543 -170h-36q-27 0 -42.5 17.5t-15.5 43.5v198q-17 -42 -62 -70.5t-99 -28.5q-95 0 -164 74t-69 196q0 121 74 203t185 82q106 0 167.5 -68.5t61.5 -192.5v-454zM451 271q0 189 -145 189q-73 0 -116 -53.5t-43 -140.5q0 -88 43.5 -139.5t108.5 -51.5q152 0 152 196z" />
    <glyph glyph-name="r" unicode="r" horiz-adv-x="363" 
d="M351 422h-5q-31 27 -82 27q-54 0 -76 -32.5t-22 -116.5v-300h-39q-24 0 -38 17t-14 44v246q0 109 48 168t128 59q51 0 75.5 -19t24.5 -49v-44z" />
    <glyph glyph-name="s" unicode="s" horiz-adv-x="488" 
d="M434 162q0 -82 -57.5 -127t-151.5 -45q-69 0 -115.5 29.5t-46.5 76.5v39h5q24 -26 66.5 -43t92.5 -17q114 0 114 78q0 35 -26.5 52.5t-114.5 36.5q-78 16 -112.5 46.5t-34.5 88.5q0 69 58 118.5t154 49.5q63 0 109.5 -27.5t46.5 -73.5v-40h-5q-18 22 -58.5 38.5
t-85.5 16.5q-127 0 -127 -76q0 -28 25 -42.5t106 -32.5q158 -34 158 -146z" />
    <glyph glyph-name="t" unicode="t" horiz-adv-x="374" 
d="M170 644v-110h184v-30q0 -55 -70 -55h-113v-265q0 -108 88 -108q60 0 84 15h5v-32q0 -69 -97 -69q-88 0 -129.5 46t-41.5 139v348q0 49 23 83q9 14 27.5 26t28.5 12h11z" />
    <glyph glyph-name="u" unicode="u" horiz-adv-x="582" 
d="M512 230q0 -117 -58 -178.5t-166 -61.5q-100 0 -159 66t-59 182v297h28q63 0 63 -71v-221q0 -80 36.5 -123.5t96.5 -43.5q64 0 95.5 39t31.5 124v296h25q66 0 66 -71v-234z" />
    <glyph glyph-name="v" unicode="v" horiz-adv-x="526" 
d="M493 423q-25 -103 -83 -234.5t-117 -198.5h-25q-28 0 -46 26q-154 228 -198 519h45q45 0 55 -52q46 -232 148 -390q54 82 100.5 217.5t60.5 224.5h32q39 0 39 -43q0 -28 -11 -69z" />
    <glyph glyph-name="w" unicode="w" horiz-adv-x="824" 
d="M794 490q0 -46 -5 -71q-25 -112 -72.5 -227.5t-100.5 -200.5h-18q-34 0 -50 27q-42 71 -81.5 170.5t-49.5 178.5q-15 -84 -61.5 -201t-87.5 -176h-19q-30 0 -47 28q-136 235 -174 517h48q23 0 38.5 -15.5t18.5 -36.5q31 -201 113 -368q75 140 137 406h29q49 0 61 -54
q46 -213 120 -352q41 79 79 207.5t45 212.5h28q22 0 35.5 -12t13.5 -33z" />
    <glyph glyph-name="x" unicode="x" horiz-adv-x="511" 
d="M489 30v-7q-1 -1 -5 -6t-7 -8t-8 -6.5t-11 -5.5t-14 -2q-32 0 -51.5 12t-51.5 50q-27 32 -108 153l-56 -64t-41.5 -66t-24.5 -80h-42q-15 0 -26 12t-11 31q0 28 18 67q13 27 38 60.5t45 56t54 57.5l-159 243v8h54q50 0 78 -48q13 -23 91 -145q52 54 82 95q40 56 48 98h24
q19 0 31 -14.5t12 -38.5q0 -41 -55 -107q-24 -29 -99 -106l101 -141q56 -78 94 -98z" />
    <glyph glyph-name="y" unicode="y" horiz-adv-x="531" 
d="M498 438q-10 -38 -24.5 -81t-28 -76t-32.5 -75l-29 -63l-27.5 -55t-18.5 -37q-64 -130 -109 -178.5t-102 -48.5q-30 0 -49.5 14t-19.5 32v34h43q35 0 61.5 22.5t69.5 104.5q-67 102 -124.5 240t-81.5 264h52q43 0 56 -54q45 -199 145 -364q44 76 91.5 204.5t60.5 213.5
h36q42 0 42 -41q0 -15 -11 -56z" />
    <glyph glyph-name="z" unicode="z" horiz-adv-x="502" 
d="M462 49q0 -22 -17.5 -35.5t-45.5 -13.5h-297q-25 0 -41.5 14t-16.5 37q0 27 16.5 56.5t59.5 77.5l182 204q34 37 44 63h-306v31q0 23 15.5 37.5t39.5 14.5h305q24 0 39.5 -12.5t15.5 -37.5q0 -49 -75 -133l-173 -192q-31 -35 -54 -77h309v-34z" />
    <glyph glyph-name="braceleft" unicode="{" horiz-adv-x="370" 
d="M132 568q0 68 41 110t100 42q69 0 69 -47v-19q-29 1 -53 1q-80 0 -80 -111q0 -5 -0.5 -21t-0.5 -25q0 -11 2.5 -42t2.5 -55q0 -56 -21 -83t-68 -36v-3q89 -19 89 -128q0 -41 -3 -63q-2 -20 -2 -35q0 -9 0.5 -24.5t0.5 -20.5q0 -112 80 -112h9q16 0 31.5 -15t15.5 -33v-18
h-71q-64 0 -103 40.5t-39 113.5q0 65 3 93q4 40 4 74q0 36 -18 60t-51 30q-37 7 -37 31v33l37 6q68 11 68 87q0 47 -3 77q-3 29 -3 93z" />
    <glyph glyph-name="bar" unicode="|" horiz-adv-x="257" 
d="M167 -170h-29q-54 0 -54 67v823h39q17 0 30.5 -13t13.5 -33v-844z" />
    <glyph glyph-name="braceright" unicode="}" horiz-adv-x="370" 
d="M239 -18q0 -68 -41 -110t-100 -42q-69 0 -69 47v19q28 -1 53 -1q80 0 80 111q0 5 0.5 21t0.5 25q0 15 -2 35q-3 22 -3 62q0 56 21 83t68 36v3q-89 17 -89 128q0 40 3 63q2 20 2 35q0 9 -0.5 24t-0.5 21q0 112 -80 112h-9q-17 0 -32 14.5t-15 33.5v18h71q64 0 103 -40.5
t39 -113.5q0 -65 -3 -93q-4 -40 -4 -74q0 -36 18 -60t51 -30q37 -7 37 -31v-33l-37 -6q-68 -11 -68 -87q0 -48 3 -77t3 -93z" />
    <glyph glyph-name="asciitilde" unicode="~" horiz-adv-x="591" 
d="M388 230q-36 0 -92 36q-51 31 -89 31q-29 0 -49.5 -22t-25.5 -56h-12q-12 0 -25 11t-13 35q0 57 38 86.5t81 29.5q36 0 90 -34q60 -36 94 -36q67 0 75 75h19q11 0 21 -11t10 -35q0 -46 -34.5 -78t-87.5 -32z" />
    <glyph glyph-name="uni00A0" unicode="&#xa0;" horiz-adv-x="220" 
 />
    <glyph glyph-name="exclamdown" unicode="&#xa1;" horiz-adv-x="314" 
d="M124 290h20q54 0 57 -67l13 -394h-43q-28 0 -44 17t-16 44v5zM83 464q0 30 20.5 50t50.5 20t51 -20t21 -50t-21 -50.5t-51 -20.5t-50.5 20t-20.5 51z" />
    <glyph glyph-name="cent" unicode="&#xa2;" 
d="M285 -88v81q-86 16 -151.5 88t-65.5 180q0 105 59.5 184t157.5 96v126h26q41 0 41 -37v-86q56 -5 91.5 -35t35.5 -81v-38h-5q-14 29 -55 49.5t-81 20.5q-79 0 -128 -52t-49 -133q0 -97 54.5 -148.5t124.5 -51.5q86 0 126 47h5v-38q0 -26 -22.5 -52.5t-70.5 -36.5
q-8 -2 -26 -4v-117l-25 1q-42 1 -42 37z" />
    <glyph glyph-name="sterling" unicode="&#xa3;" 
d="M228 477q0 -40 16 -109h170v-25q0 -23 -15 -34.5t-36 -11.5h-107q6 -32 6 -60q0 -36 -11 -81.5t-28 -68.5v-5h293v-29q0 -24 -17 -38.5t-47 -14.5h-365v24q0 13 5 25.5t10 19t17.5 21l17.5 20.5q36 45 36 115q0 30 -10 72h-109v25q0 46 48 46h50q-16 76 -16 110
q0 91 59.5 151.5t159.5 60.5q56 0 95.5 -30.5t39.5 -73.5v-48h-5q-14 29 -52 47.5t-78 18.5q-127 0 -127 -127z" />
    <glyph glyph-name="currency" unicode="&#xa4;" horiz-adv-x="726" 
d="M693 47l-23 -21q-32 -27 -52 -27q-22 0 -51 28l-38 36q-80 -53 -173 -53q-95 0 -177 71l-96 -90l-21 22q-21 26 -21 43q0 16 14 41q12 21 30 39l36 37q-15 50 -15 92q0 83 41 158l-119 109l31 29q18 16 39 16q25 0 51 -22l66 -57q76 46 154 46q56 0 121 -31l98 92l36 -34
q17 -15 17 -35q0 -22 -23 -44l-50 -48q51 -80 51 -161q0 -72 -26 -139zM523 264q0 93 -46 145t-125 52q-64 0 -110.5 -50t-46.5 -123q0 -98 45 -148t126 -50q71 0 114 49.5t43 124.5z" />
    <glyph glyph-name="yen" unicode="&#xa5;" 
d="M329 352h168v-29q0 -18 -11.5 -29.5t-33.5 -11.5h-128v-93h173v-27q0 -16 -11.5 -28.5t-33.5 -12.5h-128v-121h-42q-19 0 -32.5 14t-13.5 39v68h-170v32q0 15 12 25.5t36 10.5h122v93h-170v31q0 16 11.5 27.5t36.5 11.5h118q-63 81 -120.5 172t-83.5 156h40q53 0 67 -32
q49 -106 152 -239q122 152 166 271h40q31 0 31 -27q0 -30 -63 -126t-132 -175z" />
    <glyph glyph-name="brokenbar" unicode="&#xa6;" horiz-adv-x="257" 
d="M167 -170h-29q-54 0 -54 67v331h39q17 0 30.5 -13t13.5 -33v-352zM167 321h-29q-54 0 -54 67v331h39q17 0 30.5 -13t13.5 -33v-352z" />
    <glyph glyph-name="section" unicode="&#xa7;" 
d="M385 168q70 -48 70 -115q0 -176 -206 -176q-63 0 -105.5 32t-42.5 71v37h5q61 -54 148 -54q109 0 109 78q0 36 -31 55.5t-140 57.5q-113 39 -113 142q0 40 21.5 70t78.5 53q-78 41 -78 121q0 70 51 115t149 45q58 0 95.5 -31t37.5 -69v-25h-5q-45 42 -136 42
q-47 0 -74.5 -19t-27.5 -46q0 -35 24 -54.5t100 -47.5q78 -28 118 -64.5t40 -95.5q0 -84 -88 -122zM312 356q-16 6 -104 45q-51 -39 -51 -79q0 -65 85 -95q71 -25 109 -41q40 33 40 84q0 58 -79 86z" />
    <glyph glyph-name="dieresis" unicode="&#xa8;" horiz-adv-x="498" 
d="M280 680q0 25 17.5 42.5t42.5 17.5t43 -17.5t18 -42.5t-18 -43t-43 -18t-42.5 18t-17.5 43zM72 680q0 25 18 42.5t43 17.5t42.5 -17.5t17.5 -42.5t-17.5 -43t-42.5 -18t-43 18t-18 43z" />
    <glyph glyph-name="copyright" unicode="&#xa9;" horiz-adv-x="806" 
d="M742 342q0 -142 -101 -243t-243 -101t-243 101t-101 243t101 243t243 101t243 -101t101 -243zM676 342q0 115 -81.5 196.5t-196.5 81.5t-196.5 -81.5t-81.5 -196.5t81.5 -196.5t196.5 -81.5t196.5 81.5t81.5 196.5zM525 251h6v-27q0 -36 -36.5 -57.5t-77.5 -21.5
q-77 0 -130 56.5t-53 139.5q0 92 52 149t137 57q49 0 79.5 -26.5t30.5 -65.5v-30h-7q-8 23 -35.5 40t-64.5 17q-57 0 -85.5 -36.5t-28.5 -93.5q0 -67 31.5 -103.5t82.5 -36.5q67 0 99 39z" />
    <glyph glyph-name="ordfeminine" unicode="&#xaa;" horiz-adv-x="409" 
d="M64 589v22q0 32 32.5 58t92.5 26q73 0 106 -37t33 -120v-82q0 -55 -34.5 -90t-88.5 -35h-26q-58 0 -93.5 31t-35.5 79q0 109 161 109h45v18q0 30 -18 44t-62 14q-73 0 -108 -37h-4zM253 493h-42q-46 0 -64.5 -11.5t-18.5 -37.5q0 -47 59 -47q66 0 66 58v38z" />
    <glyph glyph-name="guillemotleft" unicode="&#xab;" horiz-adv-x="451" 
d="M407 73q-73 0 -101 45l-87 145l87 146q26 43 101 43h14l-108 -189l108 -190h-14zM219 73q-72 0 -101 45l-97 145l97 146q28 43 101 43h14l-118 -189l118 -190h-14z" />
    <glyph glyph-name="logicalnot" unicode="&#xac;" horiz-adv-x="546" 
d="M426 230v92h-380v36q0 17 11 28t32 11h407v-210h-33q-15 0 -26 13t-11 30z" />
    <glyph glyph-name="uni00AD" unicode="&#xad;" horiz-adv-x="353" 
d="M300 325q0 -24 -14.5 -40.5t-36.5 -16.5h-195v30q0 22 16 38t40 16h190v-27z" />
    <glyph glyph-name="registered" unicode="&#xae;" horiz-adv-x="806" 
d="M742 342q0 -142 -101 -243t-243 -101t-243 101t-101 243t101 243t243 101t243 -101t101 -243zM676 342q0 115 -81.5 196.5t-196.5 81.5t-196.5 -81.5t-81.5 -196.5t81.5 -196.5t196.5 -81.5t196.5 81.5t81.5 196.5zM516 152q-29 0 -45 16t-28 48q-1 2 -7 18t-8 20.5
t-8.5 17t-12 17t-14.5 10t-19 7.5q-3 1 -35 4v-158h-28q-49 0 -49 52v326q48 15 97 15h43q56 0 90 -31t34 -85q0 -75 -79 -95q30 -16 56 -70q5 -11 14 -35.5t15 -35.5q1 -2 11 -17l8 -11q-15 -13 -35 -13zM393 484h-22q-2 0 -5.5 -0.5l-11 -1.5l-15.5 -2v-110q14 -2 34 -2
h19q23 0 40 14.5t17 40.5q0 61 -56 61z" />
    <glyph glyph-name="macron" unicode="&#xaf;" horiz-adv-x="330" 
d="M221 628h-166v32q0 21 16.5 36.5t45.5 15.5h158v-36q0 -22 -14.5 -35t-39.5 -13z" />
    <glyph glyph-name="degree" unicode="&#xb0;" horiz-adv-x="415" 
d="M209 395q-66 0 -104.5 41t-38.5 104q0 66 37.5 108t105.5 42q67 0 104 -41t37 -107q0 -64 -38.5 -105.5t-102.5 -41.5zM209 635q-38 0 -59.5 -29t-21.5 -66q0 -34 22 -62t58 -28q38 0 60 27t22 65q0 37 -21.5 65t-59.5 28z" />
    <glyph glyph-name="plusminus" unicode="&#xb1;" 
d="M478 385h-148v-202h-26q-17 0 -30.5 12.5t-13.5 41.5v148h-211v36q0 14 11.5 26.5t31.5 12.5h168v191h34q13 0 24.5 -13t11.5 -34v-144h207v-28q0 -18 -15 -32.5t-44 -14.5zM474 -1h-412v32q0 43 52 43h404v-35q0 -16 -13.5 -28t-30.5 -12z" />
    <glyph glyph-name="twosuperior" unicode="&#xb2;" horiz-adv-x="406" 
d="M348 315q0 -22 -9.5 -31.5t-35.5 -9.5h-199q-18 0 -30 12t-12 30q0 23 15.5 43.5t64.5 59.5l85 68q41 34 41 74q0 29 -24 45.5t-64 16.5q-74 0 -111 -62h-3v42q0 35 36 61t99 26q61 0 101.5 -34.5t40.5 -84.5q0 -46 -17 -77.5t-61 -65.5l-70 -54q-29 -21 -39 -30h192v-29
z" />
    <glyph glyph-name="threesuperior" unicode="&#xb3;" horiz-adv-x="410" 
d="M339 393q0 -59 -40 -94t-117 -35q-50 0 -89.5 24t-39.5 58v40h3q43 -55 131 -55q35 0 55.5 15.5t20.5 39.5q0 28 -22.5 44t-58.5 17q-53 1 -53 33v27h47q40 0 62.5 17.5t22.5 45.5q0 22 -23.5 37.5t-61.5 15.5q-90 0 -120 -56h-4v40q0 28 38 55.5t95 27.5q67 0 108 -31.5
t41 -80.5q0 -81 -86 -95q38 -5 64.5 -31.5t26.5 -58.5z" />
    <glyph glyph-name="acute" unicode="&#xb4;" horiz-adv-x="529" 
d="M155 628v6q19 40 75 96q41 41 84 41q19 0 30 -11.5t11 -28.5q0 -41 -64 -70q-73 -33 -120 -33h-16z" />
    <glyph glyph-name="mu" unicode="&#xb5;" 
d="M323 0q-115 0 -152 90v-238h-32q-60 0 -60 67v626h49q17 0 30 -16t13 -35v-247q0 -82 38.5 -126.5t98.5 -44.5q55 0 89.5 42t34.5 119v308h42q21 0 35.5 -15t14.5 -36v-246q0 -120 -57 -184t-144 -64z" />
    <glyph glyph-name="paragraph" unicode="&#xb6;" horiz-adv-x="531" 
d="M428 -10q-27 0 -38.5 10.5t-11.5 40.5v548q0 25 -12 34.5t-36 9.5h-41v-643h-22q-49 2 -49 51v254h-17q-66 0 -114 58.5t-48 132.5q0 100 67.5 157t194.5 57q71 0 109.5 -26t38.5 -73v-611h-21z" />
    <glyph glyph-name="periodcentered" unicode="&#xb7;" horiz-adv-x="250" 
d="M60 287q0 27 19 45.5t46 18.5t45.5 -18.5t18.5 -45.5t-18.5 -46t-45.5 -19t-46 19t-19 46z" />
    <glyph glyph-name="cedilla" unicode="&#xb8;" horiz-adv-x="581" 
d="M355 -127q0 16 -12 22t-41 6q-28 0 -51 -3l29 112h48l-6 -60q106 0 106 -74q0 -89 -123 -89q-101 0 -101 58v27q28 -28 94 -28q33 0 45 6t12 23z" />
    <glyph glyph-name="onesuperior" unicode="&#xb9;" horiz-adv-x="274" 
d="M194 274h-26q-23 0 -37.5 15t-14.5 42v263l-42 -15q-21 -7 -33 -7q-35 0 -42 32l-4 18l79 35q51 23 80 23q20 0 30 -14t10 -32v-360z" />
    <glyph glyph-name="ordmasculine" unicode="&#xba;" horiz-adv-x="409" 
d="M201 331q-69 0 -110.5 51t-41.5 124q0 82 42 135t117 53q69 0 111 -51.5t42 -124.5q0 -82 -42 -134.5t-118 -52.5zM201 622q-36 0 -55 -28.5t-19 -75.5q0 -115 81 -115q36 0 55.5 28.5t19.5 74.5q0 116 -82 116z" />
    <glyph glyph-name="guillemotright" unicode="&#xbb;" horiz-adv-x="451" 
d="M233 73h-14l118 190l-118 189h14q73 0 101 -43l97 -146l-97 -145q-29 -45 -101 -45zM45 73h-14l108 190l-108 189h14q75 0 101 -43l87 -146l-87 -145q-28 -45 -101 -45z" />
    <glyph glyph-name="onequarter" unicode="&#xbc;" horiz-adv-x="900" 
d="M310 0h-21q-10 0 -20.5 10t-10.5 27q0 21 10 41l281 603h20q14 0 24.5 -10.5t10.5 -23.5t-5 -23zM262 274h-26q-23 0 -37.5 15t-14.5 42v263l-42 -15q-21 -7 -33 -7q-35 0 -42 32l-4 18l79 35q51 23 80 23q20 0 30 -14t10 -32v-360zM829 128q0 -37 -36 -37h-39v-94h-30
q-45 0 -45 56v38h-148q-21 0 -33.5 13.5t-12.5 29.5q0 25 16 50q34 53 88 122.5t90 99.5h28q47 0 47 -61v-188h75v-29zM679 157v166q-69 -81 -123 -166h123z" />
    <glyph glyph-name="onehalf" unicode="&#xbd;" horiz-adv-x="900" 
d="M310 0h-21q-10 0 -20.5 10t-10.5 27q0 21 10 41l281 603h20q14 0 24.5 -10.5t10.5 -23.5t-5 -23zM262 274h-26q-23 0 -37.5 15t-14.5 42v263l-42 -15q-21 -7 -33 -7q-35 0 -42 32l-4 18l79 35q51 23 80 23q20 0 30 -14t10 -32v-360zM842 41q0 -22 -9.5 -31.5t-35.5 -9.5
h-199q-18 0 -30 12t-12 30q0 23 15.5 43.5t64.5 59.5l85 68q41 34 41 74q0 29 -24 45.5t-64 16.5q-74 0 -111 -62h-3v42q0 35 36 61t99 26q61 0 101.5 -34.5t40.5 -84.5q0 -46 -17 -77.5t-61 -65.5l-70 -54q-29 -21 -39 -30h192v-29z" />
    <glyph glyph-name="threequarters" unicode="&#xbe;" horiz-adv-x="900" 
d="M310 0h-21q-10 0 -20.5 10t-10.5 27q0 21 10 41l281 603h20q14 0 24.5 -10.5t10.5 -23.5t-5 -23zM829 128q0 -37 -36 -37h-39v-94h-30q-45 0 -45 56v38h-148q-21 0 -33.5 13.5t-12.5 29.5q0 25 16 50q34 53 88 122.5t90 99.5h28q47 0 47 -61v-188h75v-29zM679 157v166
q-69 -81 -123 -166h123zM317 393q0 -59 -40 -94t-117 -35q-50 0 -89.5 24t-39.5 58v40h3q43 -55 131 -55q35 0 55.5 15.5t20.5 39.5q0 28 -22.5 44t-58.5 17q-53 1 -53 33v27h47q40 0 62.5 17.5t22.5 45.5q0 22 -23.5 37.5t-61.5 15.5q-90 0 -120 -56h-4v40q0 28 38 55.5
t95 27.5q67 0 108 -31.5t41 -80.5q0 -81 -86 -95q38 -5 64.5 -31.5t26.5 -58.5z" />
    <glyph glyph-name="questiondown" unicode="&#xbf;" horiz-adv-x="472" 
d="M334 463q0 -30 -20.5 -50t-50.5 -20t-51 20t-21 50t21 50.5t51 20.5t50.5 -20.5t20.5 -50.5zM141 -5q0 -44 33.5 -67.5t89.5 -23.5q58 0 93.5 20t66.5 65h6v-31q0 -54 -46 -95.5t-137 -41.5q-94 0 -146 46.5t-52 116.5q0 79 73 144l86 77q28 25 28 79v29h34
q13 0 27.5 -16t14.5 -38q0 -61 -47 -103l-73 -65q-31 -28 -41 -46.5t-10 -49.5z" />
    <glyph glyph-name="Agrave" unicode="&#xc0;" horiz-adv-x="597" 
d="M582 0h-33q-54 0 -63 48q-4 21 -10 45.5t-13 50.5t-9 36h-318q-28 -109 -41 -180h-35q-41 0 -41 44q0 80 83.5 313.5t156.5 322.5h30q28 0 48.5 -18t43.5 -58q51 -90 114 -270.5t87 -333.5zM431 253q-55 197 -137 345q-81 -145 -137 -345h274zM336 754h-16q-47 0 -120 33
q-64 29 -64 70q0 17 11 28.5t30 11.5q43 0 84 -41q56 -56 75 -96v-6z" />
    <glyph glyph-name="Aacute" unicode="&#xc1;" horiz-adv-x="597" 
d="M582 0h-33q-54 0 -63 48q-4 21 -10 45.5t-13 50.5t-9 36h-318q-28 -109 -41 -180h-35q-41 0 -41 44q0 80 83.5 313.5t156.5 322.5h30q28 0 48.5 -18t43.5 -58q51 -90 114 -270.5t87 -333.5zM431 253q-55 197 -137 345q-81 -145 -137 -345h274zM253 752v6q19 40 75 96
q41 41 84 41q19 0 30 -11.5t11 -28.5q0 -41 -64 -70q-73 -33 -120 -33h-16z" />
    <glyph glyph-name="Acircumflex" unicode="&#xc2;" horiz-adv-x="597" 
d="M582 0h-33q-54 0 -63 48q-4 21 -10 45.5t-13 50.5t-9 36h-318q-28 -109 -41 -180h-35q-41 0 -41 44q0 80 83.5 313.5t156.5 322.5h30q28 0 48.5 -18t43.5 -58q51 -90 114 -270.5t87 -333.5zM431 253q-55 197 -137 345q-81 -145 -137 -345h274zM441 715l-153 78l-150 -78
v40q0 39 32 57l119 69l117 -68q35 -21 35 -58v-40z" />
    <glyph glyph-name="Atilde" unicode="&#xc3;" horiz-adv-x="597" 
d="M582 0h-33q-54 0 -63 48q-4 21 -10 45.5t-13 50.5t-9 36h-318q-28 -109 -41 -180h-35q-41 0 -41 44q0 80 83.5 313.5t156.5 322.5h30q28 0 48.5 -18t43.5 -58q51 -90 114 -270.5t87 -333.5zM431 253q-55 197 -137 345q-81 -145 -137 -345h274zM356 748q-16 0 -36.5 11
t-33.5 25q-31 33 -50 33q-40 0 -40 -70h-28q-10 0 -20.5 11t-10.5 30q0 48 30 73.5t67 25.5q38 0 67 -31q36 -38 55 -38q41 0 41 70h29q11 0 21 -11.5t10 -30.5q0 -45 -28.5 -71.5t-72.5 -26.5z" />
    <glyph glyph-name="Adieresis" unicode="&#xc4;" horiz-adv-x="597" 
d="M582 0h-33q-54 0 -63 48q-4 21 -10 45.5t-13 50.5t-9 36h-318q-28 -109 -41 -180h-35q-41 0 -41 44q0 80 83.5 313.5t156.5 322.5h30q28 0 48.5 -18t43.5 -58q51 -90 114 -270.5t87 -333.5zM431 253q-55 197 -137 345q-81 -145 -137 -345h274zM126 815q0 25 18 42.5
t43 17.5t42.5 -17.5t17.5 -42.5t-17.5 -43t-42.5 -18t-43 18t-18 43zM333 815q0 25 18 42.5t43 17.5t42.5 -17.5t17.5 -42.5t-17.5 -43t-42.5 -18t-43 18t-18 43z" />
    <glyph glyph-name="Aring" unicode="&#xc5;" horiz-adv-x="597" 
d="M582 0h-35q-56 0 -63 48q-3 22 -30 132h-318q-28 -109 -41 -180h-36q-41 0 -41 44q0 69 70.5 272.5t140.5 317.5q-44 29 -44 85q0 44 27.5 74t79.5 30q51 0 78.5 -29.5t27.5 -74.5q0 -52 -39 -82q9 -10 22 -33q51 -90 114 -270.5t87 -333.5zM292 770q-19 0 -31 -14.5
t-12 -36.5q0 -20 12.5 -34.5t29.5 -14.5q19 0 32 13.5t13 35.5t-12.5 36.5t-31.5 14.5zM431 253q-47 181 -137 345q-81 -145 -137 -345h274z" />
    <glyph glyph-name="AE" unicode="&#xc6;" horiz-adv-x="865" 
d="M704 -9h-64q-105 0 -157.5 46.5t-63.5 148.5h-270q-20 -51 -61 -186h-39q-34 0 -34 32q0 12 1 20q12 87 116 313.5t187 314.5h515v-31q0 -24 -19.5 -38.5t-55.5 -14.5h-312q25 -124 36 -206h279v-33q0 -25 -14.5 -36.5t-50.5 -11.5h-206l11 -90q10 -82 41.5 -113
t103.5 -31h57q72 0 131 21v-27q0 -41 -28.5 -59.5t-102.5 -18.5zM353 602q-94 -139 -171 -343h225q-5 58 -22.5 172.5t-31.5 170.5z" />
    <glyph glyph-name="Ccedilla" unicode="&#xc7;" horiz-adv-x="591" 
d="M566 529h-7q-51 76 -167 76q-110 0 -177.5 -69.5t-67.5 -178.5q0 -135 69.5 -208.5t179.5 -73.5q104 0 163 67h5v-28q0 -51 -49.5 -87.5t-136.5 -36.5h-8l-4 -40q106 0 106 -74q0 -89 -123 -89q-100 0 -100 58v23q33 -24 94 -24q32 0 44 5.5t12 23.5q0 16 -11.5 22
t-41.5 6q-28 0 -51 -3q9 28 26 97q-116 21 -191 115.5t-75 231.5q0 91 38.5 169.5t116.5 128.5t181 50q79 0 127 -39.5t48 -86.5v-35z" />
    <glyph glyph-name="Egrave" unicode="&#xc8;" horiz-adv-x="560" 
d="M523 71q0 -40 -25 -58t-102 -18h-84q-247 0 -247 283v123q0 90 23 184q12 50 32 72.5t54 22.5h355v-37q0 -47 -66 -47h-282q-24 -94 -24 -207h295v-29q0 -22 -15 -35.5t-44 -13.5h-236v-50q0 -102 42 -142.5t144 -40.5h52q60 0 128 19v-26zM373 754h-16q-47 0 -120 33
q-64 29 -64 70q0 17 11 28.5t30 11.5q43 0 84 -41q56 -56 75 -96v-6z" />
    <glyph glyph-name="Eacute" unicode="&#xc9;" horiz-adv-x="560" 
d="M523 71q0 -40 -25 -58t-102 -18h-84q-247 0 -247 283v123q0 90 23 184q12 50 32 72.5t54 22.5h355v-37q0 -47 -66 -47h-282q-24 -94 -24 -207h295v-29q0 -22 -15 -35.5t-44 -13.5h-236v-50q0 -102 42 -142.5t144 -40.5h52q60 0 128 19v-26zM254 754v6q19 40 75 96
q41 41 84 41q19 0 30 -11.5t11 -28.5q0 -41 -64 -70q-73 -33 -120 -33h-16z" />
    <glyph glyph-name="Ecircumflex" unicode="&#xca;" horiz-adv-x="560" 
d="M523 71q0 -40 -25 -58t-102 -18h-84q-247 0 -247 283v123q0 90 23 184q12 50 32 72.5t54 22.5h355v-37q0 -47 -66 -47h-282q-24 -94 -24 -207h295v-29q0 -22 -15 -35.5t-44 -13.5h-236v-50q0 -102 42 -142.5t144 -40.5h52q60 0 128 19v-26zM455 720l-153 78l-150 -78v40
q0 39 32 57l119 69l117 -68q35 -21 35 -58v-40z" />
    <glyph glyph-name="Edieresis" unicode="&#xcb;" horiz-adv-x="560" 
d="M523 71q0 -40 -25 -58t-102 -18h-84q-247 0 -247 283v123q0 90 23 184q12 50 32 72.5t54 22.5h355v-37q0 -47 -66 -47h-282q-24 -94 -24 -207h295v-29q0 -22 -15 -35.5t-44 -13.5h-236v-50q0 -102 42 -142.5t144 -40.5h52q60 0 128 19v-26zM133 815q0 25 18 42.5t43 17.5
t42.5 -17.5t17.5 -42.5t-17.5 -43t-42.5 -18t-43 18t-18 43zM340 815q0 25 18 42.5t43 17.5t42.5 -17.5t17.5 -42.5t-17.5 -43t-42.5 -18t-43 18t-18 43z" />
    <glyph glyph-name="Igrave" unicode="&#xcc;" horiz-adv-x="263" 
d="M178 0h-33q-60 0 -60 67v613h44q19 0 34 -13t15 -33v-634zM187 754h-16q-47 0 -120 33q-64 29 -64 70q0 17 11 28.5t30 11.5q43 0 84 -41q56 -56 75 -96v-6z" />
    <glyph glyph-name="Iacute" unicode="&#xcd;" horiz-adv-x="263" 
d="M178 0h-33q-60 0 -60 67v613h44q19 0 34 -13t15 -33v-634zM72 754v6q19 40 75 96q41 41 84 41q19 0 30 -11.5t11 -28.5q0 -41 -64 -70q-73 -33 -120 -33h-16z" />
    <glyph glyph-name="Icircumflex" unicode="&#xce;" horiz-adv-x="263" 
d="M178 0h-33q-60 0 -60 67v613h44q19 0 34 -13t15 -33v-634zM284 719l-153 78l-150 -78v40q0 39 32 57l119 69l117 -68q35 -21 35 -58v-40z" />
    <glyph glyph-name="Idieresis" unicode="&#xcf;" horiz-adv-x="263" 
d="M178 0h-33q-60 0 -60 67v613h44q19 0 34 -13t15 -33v-634zM-47 815q0 25 18 42.5t43 17.5t42.5 -17.5t17.5 -42.5t-17.5 -43t-42.5 -18t-43 18t-18 43zM160 815q0 25 18 42.5t43 17.5t42.5 -17.5t17.5 -42.5t-17.5 -43t-42.5 -18t-43 18t-18 43z" />
    <glyph glyph-name="Eth" unicode="&#xd0;" horiz-adv-x="670" 
d="M615 347q0 -157 -85.5 -254.5t-219.5 -97.5h-61q-84 0 -129 39t-45 106v172h-83v35q0 15 12.5 24t33.5 9h37v285q76 20 152 20h85q127 0 215 -94t88 -244zM523 333q0 134 -61 202t-172 68h-39q-39 0 -84 -9v-214h147v-32q0 -16 -13 -26t-35 -10h-99v-147q0 -88 96 -88h37
q104 0 163.5 70t59.5 186z" />
    <glyph glyph-name="Ntilde" unicode="&#xd1;" horiz-adv-x="685" 
d="M605 0h-28q-51 0 -94.5 38t-94.5 141l-144 291q-38 78 -75 113v-583h-38q-22 0 -36.5 16.5t-14.5 45.5v619h44q107 0 174 -136l144 -292l18 -37.5l19 -39.5t18 -32.5t22 -31.5v568h38q20 0 34 -13.5t14 -34.5v-632zM394 749q-16 0 -36.5 11t-33.5 25q-31 33 -50 33
q-40 0 -40 -70h-28q-10 0 -20.5 11t-10.5 30q0 48 30 73.5t67 25.5q38 0 67 -31q36 -38 55 -38q41 0 41 70h29q11 0 21 -11.5t10 -30.5q0 -45 -28.5 -71.5t-72.5 -26.5z" />
    <glyph glyph-name="Ograve" unicode="&#xd2;" horiz-adv-x="726" 
d="M671 349q0 -160 -83 -259.5t-230 -99.5q-128 0 -215 93t-87 249q0 160 83 259t230 99q136 0 219 -94.5t83 -246.5zM580 332q0 138 -54 206t-168 68q-99 0 -155 -65t-56 -192q0 -133 56.5 -204t165.5 -71q98 0 154.5 69.5t56.5 188.5zM393 754h-16q-47 0 -120 33
q-64 29 -64 70q0 17 11 28.5t30 11.5q43 0 84 -41q56 -56 75 -96v-6z" />
    <glyph glyph-name="Oacute" unicode="&#xd3;" horiz-adv-x="726" 
d="M671 349q0 -160 -83 -259.5t-230 -99.5q-128 0 -215 93t-87 249q0 160 83 259t230 99q136 0 219 -94.5t83 -246.5zM580 332q0 138 -54 206t-168 68q-99 0 -155 -65t-56 -192q0 -133 56.5 -204t165.5 -71q98 0 154.5 69.5t56.5 188.5zM315 753v6q19 40 75 96q41 41 84 41
q19 0 30 -11.5t11 -28.5q0 -41 -64 -70q-73 -33 -120 -33h-16z" />
    <glyph glyph-name="Ocircumflex" unicode="&#xd4;" horiz-adv-x="726" 
d="M671 349q0 -160 -83 -259.5t-230 -99.5q-128 0 -215 93t-87 249q0 160 83 259t230 99q136 0 219 -94.5t83 -246.5zM580 332q0 138 -54 206t-168 68q-99 0 -155 -65t-56 -192q0 -133 56.5 -204t165.5 -71q98 0 154.5 69.5t56.5 188.5zM516 720l-153 78l-150 -78v40
q0 39 32 57l119 69l117 -68q35 -21 35 -58v-40z" />
    <glyph glyph-name="Otilde" unicode="&#xd5;" horiz-adv-x="726" 
d="M671 349q0 -160 -83 -259.5t-230 -99.5q-128 0 -215 93t-87 249q0 160 83 259t230 99q136 0 219 -94.5t83 -246.5zM580 332q0 138 -54 206t-168 68q-99 0 -155 -65t-56 -192q0 -133 56.5 -204t165.5 -71q98 0 154.5 69.5t56.5 188.5zM407 749q-16 0 -36.5 11t-33.5 25
q-31 33 -50 33q-40 0 -40 -70h-28q-10 0 -20.5 11t-10.5 30q0 48 30 73.5t67 25.5q38 0 67 -31q36 -38 55 -38q41 0 41 70h29q11 0 21 -11.5t10 -30.5q0 -45 -28.5 -71.5t-72.5 -26.5z" />
    <glyph glyph-name="Odieresis" unicode="&#xd6;" horiz-adv-x="726" 
d="M671 349q0 -160 -83 -259.5t-230 -99.5q-128 0 -215 93t-87 249q0 160 83 259t230 99q136 0 219 -94.5t83 -246.5zM580 332q0 138 -54 206t-168 68q-99 0 -155 -65t-56 -192q0 -133 56.5 -204t165.5 -71q98 0 154.5 69.5t56.5 188.5zM201 815q0 25 18 42.5t43 17.5
t42.5 -17.5t17.5 -42.5t-17.5 -43t-42.5 -18t-43 18t-18 43zM408 815q0 25 18 42.5t43 17.5t42.5 -17.5t17.5 -42.5t-17.5 -43t-42.5 -18t-43 18t-18 43z" />
    <glyph glyph-name="multiply" unicode="&#xd7;" 
d="M511 84q-13 -13 -29 -13q-19 0 -39 20l-151 151l-178 -178l-28 29q-13 15 -13 29q0 19 20 39l140 141l-177 177l27 28q12 13 30 13q20 0 37 -17l142 -142l170 170l27 -28q14 -14 14 -32q0 -19 -17 -35l-135 -134l189 -189z" />
    <glyph glyph-name="Oslash" unicode="&#xd8;" horiz-adv-x="732" 
d="M671 349q0 -160 -83 -259.5t-230 -99.5q-102 0 -179 60l-45 -60h-21q-8 0 -14.5 8t-6.5 22q0 16 25 49l17 24q-78 92 -78 239q0 162 79.5 260t233.5 98q99 0 175 -57l43 57h20q13 0 19 -7.5t6 -16.5q0 -16 -13 -33l-31 -41q83 -96 83 -243zM494 567q-52 39 -136 39
q-99 0 -155 -65t-56 -192q0 -119 41 -185zM581 332q0 124 -45 191l-306 -406q54 -43 139 -43q97 0 154.5 70t57.5 188z" />
    <glyph glyph-name="Ugrave" unicode="&#xd9;" horiz-adv-x="684" 
d="M70 307v373h32q33 0 46.5 -16t13.5 -56v-293q0 -126 43.5 -183t139.5 -57t136.5 54.5t40.5 177.5v373h35q57 0 57 -67v-298q0 -156 -70.5 -240.5t-204.5 -84.5q-133 0 -201 82t-68 235zM378 753h-16q-47 0 -120 33q-64 29 -64 70q0 17 11 28.5t30 11.5q43 0 84 -41
q56 -56 75 -96v-6z" />
    <glyph glyph-name="Uacute" unicode="&#xda;" horiz-adv-x="684" 
d="M70 307v373h32q33 0 46.5 -16t13.5 -56v-293q0 -126 43.5 -183t139.5 -57t136.5 54.5t40.5 177.5v373h35q57 0 57 -67v-298q0 -156 -70.5 -240.5t-204.5 -84.5q-133 0 -201 82t-68 235zM265 754v6q19 40 75 96q41 41 84 41q19 0 30 -11.5t11 -28.5q0 -41 -64 -70
q-73 -33 -120 -33h-16z" />
    <glyph glyph-name="Ucircumflex" unicode="&#xdb;" horiz-adv-x="684" 
d="M70 307v373h32q33 0 46.5 -16t13.5 -56v-293q0 -126 43.5 -183t139.5 -57t136.5 54.5t40.5 177.5v373h35q57 0 57 -67v-298q0 -156 -70.5 -240.5t-204.5 -84.5q-133 0 -201 82t-68 235zM485 720l-153 78l-150 -78v40q0 39 32 57l119 69l117 -68q35 -21 35 -58v-40z" />
    <glyph glyph-name="Udieresis" unicode="&#xdc;" horiz-adv-x="684" 
d="M70 307v373h32q33 0 46.5 -16t13.5 -56v-293q0 -126 43.5 -183t139.5 -57t136.5 54.5t40.5 177.5v373h35q57 0 57 -67v-298q0 -156 -70.5 -240.5t-204.5 -84.5q-133 0 -201 82t-68 235zM173 815q0 25 18 42.5t43 17.5t42.5 -17.5t17.5 -42.5t-17.5 -43t-42.5 -18t-43 18
t-18 43zM380 815q0 25 18 42.5t43 17.5t42.5 -17.5t17.5 -42.5t-17.5 -43t-42.5 -18t-43 18t-18 43z" />
    <glyph glyph-name="Yacute" unicode="&#xdd;" horiz-adv-x="553" 
d="M541 643q0 -31 -78.5 -160t-136.5 -198v-285h-34q-58 0 -58 55v229q-63 84 -125 194.5t-94 201.5h47q49 0 69 -49q55 -130 156 -277q128 183 180 326h38q36 0 36 -37zM226 747v6q19 40 75 96q41 41 84 41q19 0 30 -11.5t11 -28.5q0 -41 -64 -70q-73 -33 -120 -33h-16z
" />
    <glyph glyph-name="Thorn" unicode="&#xde;" horiz-adv-x="580" 
d="M173 477l-1 -229q48 -26 137 -26q69 0 104.5 34.5t35.5 96.5q0 134 -141 134h-52q-41 0 -83 -10zM80 680h44q19 0 34 -13t15 -33v-70q45 8 80 8h53q104 0 169.5 -55.5t65.5 -153.5q0 -95 -67 -158.5t-166 -63.5q-92 0 -136 29v-170h-34q-27 0 -42.5 15t-15.5 45v620z" />
    <glyph glyph-name="germandbls" unicode="&#xdf;" horiz-adv-x="579" 
d="M359 -10q-53 0 -80.5 21.5t-27.5 48.5v36h5q12 -9 43 -16.5t54 -7.5q47 0 68.5 18t21.5 56q0 50 -43 77l-69 43q-50 31 -50 92q0 58 48 96l58 45q29 22 29 57q0 38 -27.5 61.5t-81.5 23.5q-145 0 -145 -179v-462h-30q-30 0 -46 19.5t-16 50.5v400q0 116 67.5 183
t174.5 67q84 0 139.5 -45t55.5 -110t-57 -108l-50 -37q-40 -30 -40 -53q0 -28 30 -47l65 -41q79 -49 79 -131q0 -72 -47.5 -115t-127.5 -43z" />
    <glyph glyph-name="agrave" unicode="&#xe0;" horiz-adv-x="535" 
d="M468 176q0 -86 -50.5 -136t-157.5 -50q-84 0 -144 44.5t-60 113.5q0 86 64.5 132t184.5 46h72v25q0 58 -30 84t-96 26q-117 0 -170 -73h-5v44q0 41 50 77t134 36q102 0 155 -51.5t53 -149.5v-168zM378 183v67h-73q-156 0 -156 -92q0 -36 32 -60t83 -24q61 0 87.5 25.5
t26.5 83.5zM323 628h-16q-47 0 -120 33q-64 29 -64 70q0 17 11 28.5t30 11.5q43 0 84 -41q56 -56 75 -96v-6z" />
    <glyph glyph-name="aacute" unicode="&#xe1;" horiz-adv-x="535" 
d="M468 176q0 -86 -50.5 -136t-157.5 -50q-84 0 -144 44.5t-60 113.5q0 86 64.5 132t184.5 46h72v25q0 58 -30 84t-96 26q-117 0 -170 -73h-5v44q0 41 50 77t134 36q102 0 155 -51.5t53 -149.5v-168zM378 183v67h-73q-156 0 -156 -92q0 -36 32 -60t83 -24q61 0 87.5 25.5
t26.5 83.5zM208 628v6q19 40 75 96q41 41 84 41q19 0 30 -11.5t11 -28.5q0 -41 -64 -70q-73 -33 -120 -33h-16z" />
    <glyph glyph-name="acircumflex" unicode="&#xe2;" horiz-adv-x="535" 
d="M468 176q0 -86 -50.5 -136t-157.5 -50q-84 0 -144 44.5t-60 113.5q0 86 64.5 132t184.5 46h72v25q0 58 -30 84t-96 26q-117 0 -170 -73h-5v44q0 41 50 77t134 36q102 0 155 -51.5t53 -149.5v-168zM378 183v67h-73q-156 0 -156 -92q0 -36 32 -60t83 -24q61 0 87.5 25.5
t26.5 83.5zM412 594l-153 78l-150 -78v40q0 39 32 57l119 69l117 -68q35 -21 35 -58v-40z" />
    <glyph glyph-name="atilde" unicode="&#xe3;" horiz-adv-x="535" 
d="M468 176q0 -86 -50.5 -136t-157.5 -50q-84 0 -144 44.5t-60 113.5q0 86 64.5 132t184.5 46h72v25q0 58 -30 84t-96 26q-117 0 -170 -73h-5v44q0 41 50 77t134 36q102 0 155 -51.5t53 -149.5v-168zM378 183v67h-73q-156 0 -156 -92q0 -36 32 -60t83 -24q61 0 87.5 25.5
t26.5 83.5zM317 623q-16 0 -36.5 11t-33.5 25q-31 33 -50 33q-40 0 -40 -70h-28q-10 0 -20.5 11t-10.5 30q0 48 30 73.5t67 25.5q38 0 67 -31q36 -38 55 -38q41 0 41 70h29q11 0 21 -11.5t10 -30.5q0 -45 -28.5 -71.5t-72.5 -26.5z" />
    <glyph glyph-name="adieresis" unicode="&#xe4;" horiz-adv-x="535" 
d="M468 176q0 -86 -50.5 -136t-157.5 -50q-84 0 -144 44.5t-60 113.5q0 86 64.5 132t184.5 46h72v25q0 58 -30 84t-96 26q-117 0 -170 -73h-5v44q0 41 50 77t134 36q102 0 155 -51.5t53 -149.5v-168zM378 183v67h-73q-156 0 -156 -92q0 -36 32 -60t83 -24q61 0 87.5 25.5
t26.5 83.5zM97 680q0 25 18 42.5t43 17.5t42.5 -17.5t17.5 -42.5t-17.5 -43t-42.5 -18t-43 18t-18 43zM304 680q0 25 18 42.5t43 17.5t42.5 -17.5t17.5 -42.5t-17.5 -43t-42.5 -18t-43 18t-18 43z" />
    <glyph glyph-name="aring" unicode="&#xe5;" horiz-adv-x="535" 
d="M468 176q0 -86 -50.5 -136t-157.5 -50q-84 0 -144 44.5t-60 113.5q0 86 64.5 132t184.5 46h72v25q0 58 -30 84t-96 26q-117 0 -170 -73h-5v44q0 41 50 77t134 36q102 0 155 -51.5t53 -149.5v-168zM378 183v67h-73q-156 0 -156 -92q0 -36 32 -60t83 -24q61 0 87.5 25.5
t26.5 83.5zM267 604q-51 0 -79 30t-28 73q0 44 27.5 74t79.5 30q51 0 78.5 -29.5t27.5 -74.5q0 -43 -28.5 -73t-77.5 -30zM267 758q-19 0 -31 -14.5t-12 -36.5q0 -20 12.5 -34.5t29.5 -14.5q19 0 32 13.5t13 35.5t-12.5 36.5t-31.5 14.5z" />
    <glyph glyph-name="ae" unicode="&#xe6;" horiz-adv-x="872" 
d="M817 359q0 -72 -45 -99t-175 -27h-127q0 -70 46.5 -113.5t117.5 -43.5q107 0 158 55h5v-31q0 -51 -45 -80.5t-131 -29.5q-60 0 -115 29t-78 73q-55 -101 -175 -101q-84 0 -141 42.5t-57 112.5q0 177 250 177h72v26q0 58 -30.5 83t-96.5 25q-115 0 -166 -71h-8v38
q0 48 51.5 83.5t131.5 35.5q122 0 179 -96q28 46 75.5 72t101.5 26q80 0 141 -55.5t61 -130.5zM378 187v60h-73q-151 0 -151 -89q0 -37 29 -60t74 -23q58 0 89.5 29.5t31.5 82.5zM725 354q0 51 -31.5 79.5t-86.5 28.5q-63 0 -100 -45.5t-37 -109.5l102 1q69 1 101 5.5t42 13
t10 27.5z" />
    <glyph glyph-name="ccedilla" unicode="&#xe7;" horiz-adv-x="521" 
d="M466 389h-4q-14 29 -54.5 48.5t-80.5 19.5q-74 0 -126.5 -53t-52.5 -126q0 -97 56.5 -149.5t127.5 -52.5q81 0 121 47h5v-38q0 -33 -30.5 -62.5t-101.5 -31.5l-4 -43q106 0 106 -72q0 -89 -123 -89q-100 0 -100 58v27q28 -28 94 -28q32 0 44 5.5t12 23.5q0 16 -11.5 22
t-41.5 6q-28 0 -51 -3q1 3 26 97q-88 16 -155 85.5t-67 177.5q0 118 73 202t190 84q63 0 105.5 -31t42.5 -86v-38z" />
    <glyph glyph-name="egrave" unicode="&#xe8;" horiz-adv-x="562" 
d="M507 359q0 -73 -47 -103t-180 -30h-132q7 -68 52.5 -110t118.5 -42q105 0 162 55h5v-40q0 -44 -46.5 -71.5t-133.5 -27.5q-110 0 -180.5 75.5t-70.5 191.5q0 128 71 208t179 80q80 0 141 -54t61 -132zM419 354q0 46 -32 77.5t-92 31.5q-63 0 -104 -44t-43 -99l-1 -22
l121 2q94 1 122.5 12t28.5 42zM343 628h-16q-47 0 -120 33q-64 29 -64 70q0 17 11 28.5t30 11.5q43 0 84 -41q56 -56 75 -96v-6z" />
    <glyph glyph-name="eacute" unicode="&#xe9;" horiz-adv-x="562" 
d="M507 359q0 -73 -47 -103t-180 -30h-132q7 -68 52.5 -110t118.5 -42q105 0 162 55h5v-40q0 -44 -46.5 -71.5t-133.5 -27.5q-110 0 -180.5 75.5t-70.5 191.5q0 128 71 208t179 80q80 0 141 -54t61 -132zM419 354q0 46 -32 77.5t-92 31.5q-63 0 -104 -44t-43 -99l-1 -22
l121 2q94 1 122.5 12t28.5 42zM235 628v6q19 40 75 96q41 41 84 41q19 0 30 -11.5t11 -28.5q0 -41 -64 -70q-73 -33 -120 -33h-16z" />
    <glyph glyph-name="ecircumflex" unicode="&#xea;" horiz-adv-x="562" 
d="M507 359q0 -73 -47 -103t-180 -30h-132q7 -68 52.5 -110t118.5 -42q105 0 162 55h5v-40q0 -44 -46.5 -71.5t-133.5 -27.5q-110 0 -180.5 75.5t-70.5 191.5q0 128 71 208t179 80q80 0 141 -54t61 -132zM419 354q0 46 -32 77.5t-92 31.5q-63 0 -104 -44t-43 -99l-1 -22
l121 2q94 1 122.5 12t28.5 42zM451 594l-153 78l-150 -78v40q0 39 32 57l119 69l117 -68q35 -21 35 -58v-40z" />
    <glyph glyph-name="edieresis" unicode="&#xeb;" horiz-adv-x="562" 
d="M507 359q0 -73 -47 -103t-180 -30h-132q7 -68 52.5 -110t118.5 -42q105 0 162 55h5v-40q0 -44 -46.5 -71.5t-133.5 -27.5q-110 0 -180.5 75.5t-70.5 191.5q0 128 71 208t179 80q80 0 141 -54t61 -132zM419 354q0 46 -32 77.5t-92 31.5q-63 0 -104 -44t-43 -99l-1 -22
l121 2q94 1 122.5 12t28.5 42zM123 680q0 25 18 42.5t43 17.5t42.5 -17.5t17.5 -42.5t-17.5 -43t-42.5 -18t-43 18t-18 43zM330 680q0 25 18 42.5t43 17.5t42.5 -17.5t17.5 -42.5t-17.5 -43t-42.5 -18t-43 18t-18 43z" />
    <glyph glyph-name="igrave" unicode="&#xec;" horiz-adv-x="317" 
d="M302 49q0 -25 -14.5 -39.5t-38.5 -14.5q-160 0 -160 159v381h28q25 0 44 -19t19 -52v-297q0 -88 83 -88h39v-30zM180 628h-16q-47 0 -120 33q-64 29 -64 70q0 17 11 28.5t30 11.5q43 0 84 -41q56 -56 75 -96v-6z" />
    <glyph glyph-name="iacute" unicode="&#xed;" horiz-adv-x="317" 
d="M302 49q0 -25 -14.5 -39.5t-38.5 -14.5q-160 0 -160 159v381h28q25 0 44 -19t19 -52v-297q0 -88 83 -88h39v-30zM72 628v6q19 40 75 96q41 41 84 41q19 0 30 -11.5t11 -28.5q0 -41 -64 -70q-73 -33 -120 -33h-16z" />
    <glyph glyph-name="icircumflex" unicode="&#xee;" horiz-adv-x="317" 
d="M302 49q0 -25 -14.5 -39.5t-38.5 -14.5q-160 0 -160 159v381h28q25 0 44 -19t19 -52v-297q0 -88 83 -88h39v-30zM285 594l-153 78l-150 -78v40q0 39 32 57l119 69l117 -68q35 -21 35 -58v-40z" />
    <glyph glyph-name="idieresis" unicode="&#xef;" horiz-adv-x="317" 
d="M302 49q0 -25 -14.5 -39.5t-38.5 -14.5q-160 0 -160 159v381h28q25 0 44 -19t19 -52v-297q0 -88 83 -88h39v-30zM179 680q0 25 17.5 42.5t42.5 17.5t43 -17.5t18 -42.5t-18 -43t-43 -18t-42.5 18t-17.5 43zM-29 680q0 25 18 42.5t43 17.5t42.5 -17.5t17.5 -42.5
t-17.5 -43t-42.5 -18t-43 18t-18 43z" />
    <glyph glyph-name="eth" unicode="&#xf0;" horiz-adv-x="602" 
d="M545 278q0 -126 -66 -208t-184 -82q-109 0 -173.5 79.5t-64.5 192.5q0 126 62 203.5t176 77.5q46 0 87.5 -15.5t59.5 -46.5q-27 128 -128 185l-105 -83l-9 8q-10 10 -10 24q0 19 17 32l58 47q-7 3 -56 14q-14 4 -23.5 12.5t-9.5 16.5v34l30 -1q51 -2 124 -30l81 65
l15 -15q8 -8 4 -25q-3 -14 -30 -36l-23 -17q78 -55 123 -156t45 -228v-48zM451 258q0 201 -159 201q-70 0 -107 -48t-37 -131q0 -205 159 -205q70 0 107 50t37 133z" />
    <glyph glyph-name="ntilde" unicode="&#xf1;" horiz-adv-x="582" 
d="M512 0h-33q-57 0 -57 59v246q0 83 -32 118.5t-104 35.5q-126 0 -126 -154v-305h-34q-26 0 -41 15.5t-15 46.5v245q0 111 61.5 174.5t165.5 63.5q103 0 159 -59.5t56 -177.5v-308zM347 623q-16 0 -36.5 11t-33.5 25q-31 33 -50 33q-40 0 -40 -70h-28q-10 0 -20.5 11
t-10.5 30q0 48 30 73.5t67 25.5q38 0 67 -31q36 -38 55 -38q41 0 41 70h29q11 0 21 -11.5t10 -30.5q0 -45 -28.5 -71.5t-72.5 -26.5z" />
    <glyph glyph-name="ograve" unicode="&#xf2;" horiz-adv-x="599" 
d="M543 278q0 -134 -65 -211t-175 -77q-107 0 -177.5 75t-70.5 193q0 132 67 209t181 77q107 0 173.5 -73.5t66.5 -192.5zM451 257q0 99 -41 150t-120 51q-65 0 -104 -49t-39 -132q0 -93 43.5 -147t121.5 -54q66 0 102.5 50t36.5 131zM333 628h-16q-47 0 -120 33
q-64 29 -64 70q0 17 11 28.5t30 11.5q43 0 84 -41q56 -56 75 -96v-6z" />
    <glyph glyph-name="oacute" unicode="&#xf3;" horiz-adv-x="599" 
d="M543 278q0 -134 -65 -211t-175 -77q-107 0 -177.5 75t-70.5 193q0 132 67 209t181 77q107 0 173.5 -73.5t66.5 -192.5zM451 257q0 99 -41 150t-120 51q-65 0 -104 -49t-39 -132q0 -93 43.5 -147t121.5 -54q66 0 102.5 50t36.5 131zM245 628v6q19 40 75 96q41 41 84 41
q19 0 30 -11.5t11 -28.5q0 -41 -64 -70q-73 -33 -120 -33h-16z" />
    <glyph glyph-name="ocircumflex" unicode="&#xf4;" horiz-adv-x="599" 
d="M543 278q0 -134 -65 -211t-175 -77q-107 0 -177.5 75t-70.5 193q0 132 67 209t181 77q107 0 173.5 -73.5t66.5 -192.5zM451 257q0 99 -41 150t-120 51q-65 0 -104 -49t-39 -132q0 -93 43.5 -147t121.5 -54q66 0 102.5 50t36.5 131zM455 594l-153 78l-150 -78v40
q0 39 32 57l119 69l117 -68q35 -21 35 -58v-40z" />
    <glyph glyph-name="otilde" unicode="&#xf5;" horiz-adv-x="599" 
d="M543 278q0 -134 -65 -211t-175 -77q-107 0 -177.5 75t-70.5 193q0 132 67 209t181 77q107 0 173.5 -73.5t66.5 -192.5zM451 257q0 99 -41 150t-120 51q-65 0 -104 -49t-39 -132q0 -93 43.5 -147t121.5 -54q66 0 102.5 50t36.5 131zM357 623q-16 0 -36.5 11t-33.5 25
q-31 33 -50 33q-40 0 -40 -70h-28q-10 0 -20.5 11t-10.5 30q0 48 30 73.5t67 25.5q38 0 67 -31q36 -38 55 -38q41 0 41 70h29q11 0 21 -11.5t10 -30.5q0 -45 -28.5 -71.5t-72.5 -26.5z" />
    <glyph glyph-name="odieresis" unicode="&#xf6;" horiz-adv-x="599" 
d="M543 278q0 -134 -65 -211t-175 -77q-107 0 -177.5 75t-70.5 193q0 132 67 209t181 77q107 0 173.5 -73.5t66.5 -192.5zM451 257q0 99 -41 150t-120 51q-65 0 -104 -49t-39 -132q0 -93 43.5 -147t121.5 -54q66 0 102.5 50t36.5 131zM133 680q0 25 18 42.5t43 17.5
t42.5 -17.5t17.5 -42.5t-17.5 -43t-42.5 -18t-43 18t-18 43zM340 680q0 25 18 42.5t43 17.5t42.5 -17.5t17.5 -42.5t-17.5 -43t-42.5 -18t-43 18t-18 43z" />
    <glyph glyph-name="divide" unicode="&#xf7;" 
d="M446 268h-366v24q0 54 57 54h355v-36q0 -16 -13 -29t-33 -13zM353 110q0 -30 -20.5 -50t-50.5 -20t-51 20t-21 50t21 50.5t51 20.5t50.5 -20t20.5 -51zM353 503q0 -30 -20.5 -50t-50.5 -20t-51 20t-21 50t21 50.5t51 20.5t50.5 -20t20.5 -51z" />
    <glyph glyph-name="oslash" unicode="&#xf8;" horiz-adv-x="599" 
d="M139 -21h-20q-9 0 -19.5 8t-10.5 21q0 18 10 33l21 30q-65 75 -65 187q0 132 67 209t181 77q71 0 127 -34l32 45h20q13 0 21.5 -12t8.5 -24q0 -11 -5 -18l-26 -36q62 -73 62 -187q0 -134 -65 -211t-175 -77q-73 0 -131 36zM174 148l206 291q-35 22 -90 22q-65 0 -105 -50
t-40 -134q0 -81 29 -129zM427 387l-205 -290q38 -24 90 -24q67 0 104 51t37 133t-26 130z" />
    <glyph glyph-name="ugrave" unicode="&#xf9;" horiz-adv-x="582" 
d="M512 230q0 -117 -58 -178.5t-166 -61.5q-100 0 -159 66t-59 182v297h28q63 0 63 -71v-221q0 -80 36.5 -123.5t96.5 -43.5q64 0 95.5 39t31.5 124v296h25q66 0 66 -71v-234zM333 628h-16q-47 0 -120 33q-64 29 -64 70q0 17 11 28.5t30 11.5q43 0 84 -41q56 -56 75 -96v-6z
" />
    <glyph glyph-name="uacute" unicode="&#xfa;" horiz-adv-x="582" 
d="M512 230q0 -117 -58 -178.5t-166 -61.5q-100 0 -159 66t-59 182v297h28q63 0 63 -71v-221q0 -80 36.5 -123.5t96.5 -43.5q64 0 95.5 39t31.5 124v296h25q66 0 66 -71v-234zM225 628v6q19 40 75 96q41 41 84 41q19 0 30 -11.5t11 -28.5q0 -41 -64 -70q-73 -33 -120 -33
h-16z" />
    <glyph glyph-name="ucircumflex" unicode="&#xfb;" horiz-adv-x="582" 
d="M512 230q0 -117 -58 -178.5t-166 -61.5q-100 0 -159 66t-59 182v297h28q63 0 63 -71v-221q0 -80 36.5 -123.5t96.5 -43.5q64 0 95.5 39t31.5 124v296h25q66 0 66 -71v-234zM441 594l-153 78l-150 -78v40q0 39 32 57l119 69l117 -68q35 -21 35 -58v-40z" />
    <glyph glyph-name="udieresis" unicode="&#xfc;" horiz-adv-x="582" 
d="M512 230q0 -117 -58 -178.5t-166 -61.5q-100 0 -159 66t-59 182v297h28q63 0 63 -71v-221q0 -80 36.5 -123.5t96.5 -43.5q64 0 95.5 39t31.5 124v296h25q66 0 66 -71v-234zM123 680q0 25 18 42.5t43 17.5t42.5 -17.5t17.5 -42.5t-17.5 -43t-42.5 -18t-43 18t-18 43z
M330 680q0 25 18 42.5t43 17.5t42.5 -17.5t17.5 -42.5t-17.5 -43t-42.5 -18t-43 18t-18 43z" />
    <glyph glyph-name="yacute" unicode="&#xfd;" horiz-adv-x="531" 
d="M498 438q-10 -38 -24.5 -81t-28 -76t-32.5 -75l-29 -63l-27.5 -55t-18.5 -37q-64 -130 -109 -178.5t-102 -48.5q-30 0 -49.5 14t-19.5 32v34h43q35 0 61.5 22.5t69.5 104.5q-67 102 -124.5 240t-81.5 264h52q43 0 56 -54q45 -199 145 -364q44 76 91.5 204.5t60.5 213.5
h36q42 0 42 -41q0 -15 -11 -56zM180 628v6q19 40 75 96q41 41 84 41q19 0 30 -11.5t11 -28.5q0 -41 -64 -70q-73 -33 -120 -33h-16z" />
    <glyph glyph-name="thorn" unicode="&#xfe;" horiz-adv-x="611" 
d="M70 720h28q29 0 46.5 -18t17.5 -52v-166q23 29 67.5 45t96.5 16q92 0 161 -75t69 -190q0 -134 -68 -212t-172 -78q-102 0 -154 81v-241h-33q-59 0 -59 69v821zM162 314v-75q9 -81 52 -122.5t112 -41.5q65 0 101.5 47t36.5 133q0 104 -42.5 154t-115.5 50
q-61 0 -98.5 -38.5t-45.5 -106.5z" />
    <glyph glyph-name="ydieresis" unicode="&#xff;" horiz-adv-x="531" 
d="M498 438q-10 -38 -24.5 -81t-28 -76t-32.5 -75l-29 -63l-27.5 -55t-18.5 -37q-64 -130 -109 -178.5t-102 -48.5q-30 0 -49.5 14t-19.5 32v34h43q35 0 61.5 22.5t69.5 104.5q-67 102 -124.5 240t-81.5 264h52q43 0 56 -54q45 -199 145 -364q44 76 91.5 204.5t60.5 213.5
h36q42 0 42 -41q0 -15 -11 -56zM113 680q0 25 18 42.5t43 17.5t42.5 -17.5t17.5 -42.5t-17.5 -43t-42.5 -18t-43 18t-18 43zM320 680q0 25 18 42.5t43 17.5t42.5 -17.5t17.5 -42.5t-17.5 -43t-42.5 -18t-43 18t-18 43z" />
    <glyph glyph-name="Amacron" unicode="&#x100;" horiz-adv-x="597" 
d="M582 0h-33q-54 0 -63 48q-4 21 -10 45.5t-13 50.5t-9 36h-318q-28 -109 -41 -180h-35q-41 0 -41 44q0 80 83.5 313.5t156.5 322.5h30q28 0 48.5 -18t43.5 -58q51 -90 114 -270.5t87 -333.5zM431 253q-55 197 -137 345q-81 -145 -137 -345h274zM345 754h-166v32
q0 21 16.5 36.5t45.5 15.5h158v-36q0 -22 -14.5 -35t-39.5 -13z" />
    <glyph glyph-name="amacron" unicode="&#x101;" horiz-adv-x="535" 
d="M468 176q0 -86 -50.5 -136t-157.5 -50q-84 0 -144 44.5t-60 113.5q0 86 64.5 132t184.5 46h72v25q0 58 -30 84t-96 26q-117 0 -170 -73h-5v44q0 41 50 77t134 36q102 0 155 -51.5t53 -149.5v-168zM378 183v67h-73q-156 0 -156 -92q0 -36 32 -60t83 -24q61 0 87.5 25.5
t26.5 83.5zM315 619h-166v32q0 21 16.5 36.5t45.5 15.5h158v-36q0 -22 -14.5 -35t-39.5 -13z" />
    <glyph glyph-name="Abreve" unicode="&#x102;" horiz-adv-x="597" 
d="M582 0h-33q-54 0 -63 48q-4 21 -10 45.5t-13 50.5t-9 36h-318q-28 -109 -41 -180h-35q-41 0 -41 44q0 80 83.5 313.5t156.5 322.5h30q28 0 48.5 -18t43.5 -58q51 -90 114 -270.5t87 -333.5zM431 253q-55 197 -137 345q-81 -145 -137 -345h274zM288 758q-130 0 -130 123v2
q59 -55 131 -55q70 0 129 55v-7q0 -118 -130 -118z" />
    <glyph glyph-name="abreve" unicode="&#x103;" horiz-adv-x="535" 
d="M468 176q0 -86 -50.5 -136t-157.5 -50q-84 0 -144 44.5t-60 113.5q0 86 64.5 132t184.5 46h72v25q0 58 -30 84t-96 26q-117 0 -170 -73h-5v44q0 41 50 77t134 36q102 0 155 -51.5t53 -149.5v-168zM378 183v67h-73q-156 0 -156 -92q0 -36 32 -60t83 -24q61 0 87.5 25.5
t26.5 83.5zM260 634q-130 0 -130 123v2q59 -55 131 -55q70 0 129 55v-7q0 -118 -130 -118z" />
    <glyph glyph-name="Aogonek" unicode="&#x104;" horiz-adv-x="597" 
d="M525 -203q-50 0 -78.5 23t-28.5 62q0 36 26.5 67.5t64.5 50.5l9 5q-26 10 -32 43q-4 21 -10 45.5t-13 50.5t-9 36h-318q-28 -109 -41 -180h-35q-41 0 -41 44q0 80 83.5 313.5t156.5 322.5h30q28 0 48.5 -18t43.5 -58q51 -90 114 -270.5t87 -333.5q-36 -2 -54 -18
q-29 -27 -38.5 -43t-9.5 -45q0 -22 17 -35t45 -13q34 0 72 20v-19q0 -50 -89 -50zM431 253q-55 197 -137 345q-81 -145 -137 -345h274z" />
    <glyph glyph-name="aogonek" unicode="&#x105;" horiz-adv-x="535" 
d="M321 -203q-50 0 -78.5 23t-28.5 62q0 32 21 61t53 48q-10 -1 -28 -1q-84 0 -144 44.5t-60 113.5q0 86 64.5 132t184.5 46h72v25q0 58 -30 84t-96 26q-117 0 -170 -73h-5v44q0 41 50 77t134 36q102 0 155 -51.5t53 -149.5v-168q0 -124 -97 -166q-33 -14 -47 -28
q-29 -27 -38.5 -43t-9.5 -45q0 -22 17 -35t45 -13q34 0 72 20v-19q0 -50 -89 -50zM378 183v67h-73q-156 0 -156 -92q0 -36 32 -60t83 -24q61 0 87.5 25.5t26.5 83.5z" />
    <glyph glyph-name="Cacute" unicode="&#x106;" horiz-adv-x="591" 
d="M566 529h-7q-51 76 -167 76q-110 0 -177.5 -69.5t-67.5 -178.5q0 -135 69.5 -208.5t179.5 -73.5q104 0 163 67h5v-28q0 -51 -50 -87.5t-136 -36.5q-136 0 -229.5 99t-93.5 253q0 91 38.5 169.5t116.5 128.5t181 50q79 0 127 -39.5t48 -86.5v-35zM326 753v6q19 40 75 96
q41 41 84 41q19 0 30 -11.5t11 -28.5q0 -41 -64 -70q-73 -33 -120 -33h-16z" />
    <glyph glyph-name="cacute" unicode="&#x107;" horiz-adv-x="521" 
d="M466 390h-5q-14 29 -55 49.5t-81 20.5q-79 0 -128 -52t-49 -133q0 -97 54.5 -148.5t124.5 -51.5q94 0 134 47h5v-38q0 -33 -39 -63.5t-116 -30.5q-93 0 -174.5 75t-81.5 196q0 118 74 201t191 83q63 0 104.5 -30.5t41.5 -86.5v-38zM248 628v6q19 40 75 96q41 41 84 41
q19 0 30 -11.5t11 -28.5q0 -41 -64 -70q-73 -33 -120 -33h-16z" />
    <glyph glyph-name="Ccircumflex" unicode="&#x108;" horiz-adv-x="591" 
d="M566 529h-7q-51 76 -167 76q-110 0 -177.5 -69.5t-67.5 -178.5q0 -135 69.5 -208.5t179.5 -73.5q104 0 163 67h5v-28q0 -51 -50 -87.5t-136 -36.5q-136 0 -229.5 99t-93.5 253q0 91 38.5 169.5t116.5 128.5t181 50q79 0 127 -39.5t48 -86.5v-35zM523 720l-153 78
l-150 -78v40q0 39 32 57l119 69l117 -68q35 -21 35 -58v-40z" />
    <glyph glyph-name="ccircumflex" unicode="&#x109;" horiz-adv-x="521" 
d="M466 390h-5q-14 29 -55 49.5t-81 20.5q-79 0 -128 -52t-49 -133q0 -97 54.5 -148.5t124.5 -51.5q94 0 134 47h5v-38q0 -33 -39 -63.5t-116 -30.5q-93 0 -174.5 75t-81.5 196q0 118 74 201t191 83q63 0 104.5 -30.5t41.5 -86.5v-38zM452 594l-153 78l-150 -78v40
q0 39 32 57l119 69l117 -68q35 -21 35 -58v-40z" />
    <glyph glyph-name="Cdotaccent" unicode="&#x10a;" horiz-adv-x="591" 
d="M566 529h-7q-51 76 -167 76q-110 0 -177.5 -69.5t-67.5 -178.5q0 -135 69.5 -208.5t179.5 -73.5q104 0 163 67h5v-28q0 -51 -50 -87.5t-136 -36.5q-136 0 -229.5 99t-93.5 253q0 91 38.5 169.5t116.5 128.5t181 50q79 0 127 -39.5t48 -86.5v-35zM334 811q0 23 17 39.5
t40 16.5t39.5 -16.5t16.5 -39.5t-16.5 -40t-39.5 -17t-40 17t-17 40z" />
    <glyph glyph-name="cdotaccent" unicode="&#x10b;" horiz-adv-x="521" 
d="M466 390h-5q-14 29 -55 49.5t-81 20.5q-79 0 -128 -52t-49 -133q0 -97 54.5 -148.5t124.5 -51.5q94 0 134 47h5v-38q0 -33 -39 -63.5t-116 -30.5q-93 0 -174.5 75t-81.5 196q0 118 74 201t191 83q63 0 104.5 -30.5t41.5 -86.5v-38zM262 678q0 23 17 39.5t40 16.5
t39.5 -16.5t16.5 -39.5t-16.5 -40t-39.5 -17t-40 17t-17 40z" />
    <glyph glyph-name="Ccaron" unicode="&#x10c;" horiz-adv-x="591" 
d="M566 529h-7q-51 76 -167 76q-110 0 -177.5 -69.5t-67.5 -178.5q0 -135 69.5 -208.5t179.5 -73.5q104 0 163 67h5v-28q0 -51 -50 -87.5t-136 -36.5q-136 0 -229.5 99t-93.5 253q0 91 38.5 169.5t116.5 128.5t181 50q79 0 127 -39.5t48 -86.5v-35zM220 921l153 -78l150 78
v-40q0 -39 -32 -57l-119 -69l-117 68q-35 21 -35 58v40z" />
    <glyph glyph-name="ccaron" unicode="&#x10d;" horiz-adv-x="521" 
d="M466 390h-5q-14 29 -55 49.5t-81 20.5q-79 0 -128 -52t-49 -133q0 -97 54.5 -148.5t124.5 -51.5q94 0 134 47h5v-38q0 -33 -39 -63.5t-116 -30.5q-93 0 -174.5 75t-81.5 196q0 118 74 201t191 83q63 0 104.5 -30.5t41.5 -86.5v-38zM147 784l153 -78l150 78v-40
q0 -39 -32 -57l-119 -69l-117 68q-35 21 -35 58v40z" />
    <glyph glyph-name="Dcaron" unicode="&#x10e;" horiz-adv-x="670" 
d="M615 347q0 -157 -85.5 -254.5t-219.5 -97.5h-61q-84 0 -129 39t-45 106v525q76 20 152 20h85q127 0 215 -94t88 -244zM523 333q0 134 -61 202t-172 68h-39q-39 0 -84 -9v-429q0 -88 96 -88h37q104 0 163.5 70t59.5 186zM149 921l153 -78l150 78v-40q0 -39 -32 -57
l-119 -69l-117 68q-35 21 -35 58v40z" />
    <glyph glyph-name="dcaron" unicode="&#x10f;" horiz-adv-x="677" 
d="M542 283q0 -153 -58 -223t-184 -70q-100 0 -172.5 79.5t-72.5 190.5q0 137 61.5 211t172.5 74q109 0 161 -103v278h24q68 0 68 -74v-363zM449 258q0 202 -157 202q-69 0 -107 -50.5t-38 -141.5q0 -81 45.5 -137t115.5 -56q74 0 107.5 43t33.5 140zM592 578v142h32
q22 0 37 -14t15 -38v-134h-36q-22 0 -35 12t-13 32z" />
    <glyph glyph-name="Dcroat" unicode="&#x110;" horiz-adv-x="670" 
d="M615 347q0 -157 -85.5 -254.5t-219.5 -97.5h-61q-84 0 -129 39t-45 106v172h-83v35q0 15 12.5 24t33.5 9h37v285q76 20 152 20h85q127 0 215 -94t88 -244zM523 333q0 134 -61 202t-172 68h-39q-39 0 -84 -9v-214h147v-32q0 -16 -13 -26t-35 -10h-99v-147q0 -88 96 -88h37
q104 0 163.5 70t59.5 186z" />
    <glyph glyph-name="dcroat" unicode="&#x111;" horiz-adv-x="612" 
d="M542 283q0 -153 -58 -223t-184 -70q-100 0 -172.5 79.5t-72.5 190.5q0 137 61.5 211t172.5 74q109 0 161 -103v144h-185v22q0 42 62 42h123v70h24q67 0 68 -70h70v-26q0 -38 -54 -38h-16v-303zM449 258q0 202 -157 202q-69 0 -107 -50.5t-38 -141.5q0 -81 45.5 -137
t115.5 -56q74 0 107.5 43t33.5 140z" />
    <glyph glyph-name="Emacron" unicode="&#x112;" horiz-adv-x="560" 
d="M523 71q0 -40 -25 -58t-102 -18h-84q-247 0 -247 283v123q0 90 23 184q12 50 32 72.5t54 22.5h355v-37q0 -47 -66 -47h-282q-24 -94 -24 -207h295v-29q0 -22 -15 -35.5t-44 -13.5h-236v-50q0 -102 42 -142.5t144 -40.5h52q60 0 128 19v-26zM359 754h-166v32
q0 21 16.5 36.5t45.5 15.5h158v-36q0 -22 -14.5 -35t-39.5 -13z" />
    <glyph glyph-name="emacron" unicode="&#x113;" horiz-adv-x="562" 
d="M507 359q0 -73 -47 -103t-180 -30h-132q7 -68 52.5 -110t118.5 -42q105 0 162 55h5v-40q0 -44 -46.5 -71.5t-133.5 -27.5q-110 0 -180.5 75.5t-70.5 191.5q0 128 71 208t179 80q80 0 141 -54t61 -132zM419 354q0 46 -32 77.5t-92 31.5q-63 0 -104 -44t-43 -99l-1 -22
l121 2q94 1 122.5 12t28.5 42zM356 619h-166v32q0 21 16.5 36.5t45.5 15.5h158v-36q0 -22 -14.5 -35t-39.5 -13z" />
    <glyph glyph-name="Ebreve" unicode="&#x114;" horiz-adv-x="560" 
d="M523 71q0 -40 -25 -58t-102 -18h-84q-247 0 -247 283v123q0 90 23 184q12 50 32 72.5t54 22.5h355v-37q0 -47 -66 -47h-282q-24 -94 -24 -207h295v-29q0 -22 -15 -35.5t-44 -13.5h-236v-50q0 -102 42 -142.5t144 -40.5h52q60 0 128 19v-26zM304 758q-130 0 -130 123v2
q59 -55 131 -55q70 0 129 55v-7q0 -118 -130 -118z" />
    <glyph glyph-name="ebreve" unicode="&#x115;" horiz-adv-x="562" 
d="M507 359q0 -73 -47 -103t-180 -30h-132q7 -68 52.5 -110t118.5 -42q105 0 162 55h5v-40q0 -44 -46.5 -71.5t-133.5 -27.5q-110 0 -180.5 75.5t-70.5 191.5q0 128 71 208t179 80q80 0 141 -54t61 -132zM419 354q0 46 -32 77.5t-92 31.5q-63 0 -104 -44t-43 -99l-1 -22
l121 2q94 1 122.5 12t28.5 42zM299 634q-130 0 -130 123v2q59 -55 131 -55q70 0 129 55v-7q0 -118 -130 -118z" />
    <glyph glyph-name="Edotaccent" unicode="&#x116;" horiz-adv-x="560" 
d="M523 71q0 -40 -25 -58t-102 -18h-84q-247 0 -247 283v123q0 90 23 184q12 50 32 72.5t54 22.5h355v-37q0 -47 -66 -47h-282q-24 -94 -24 -207h295v-29q0 -22 -15 -35.5t-44 -13.5h-236v-50q0 -102 42 -142.5t144 -40.5h52q60 0 128 19v-26zM246 811q0 23 17 39.5t40 16.5
t39.5 -16.5t16.5 -39.5t-16.5 -40t-39.5 -17t-40 17t-17 40z" />
    <glyph glyph-name="edotaccent" unicode="&#x117;" horiz-adv-x="562" 
d="M507 359q0 -73 -47 -103t-180 -30h-132q7 -68 52.5 -110t118.5 -42q105 0 162 55h5v-40q0 -44 -46.5 -71.5t-133.5 -27.5q-110 0 -180.5 75.5t-70.5 191.5q0 128 71 208t179 80q80 0 141 -54t61 -132zM419 354q0 46 -32 77.5t-92 31.5q-63 0 -104 -44t-43 -99l-1 -22
l121 2q94 1 122.5 12t28.5 42zM243 678q0 23 17 39.5t40 16.5t39.5 -16.5t16.5 -39.5t-16.5 -40t-39.5 -17t-40 17t-17 40z" />
    <glyph glyph-name="Eogonek" unicode="&#x118;" horiz-adv-x="560" 
d="M434 -203q-50 0 -78.5 23t-28.5 62q0 34 23 63.5t58 49.5h-96q-247 0 -247 283v123q0 90 23 184q12 50 32 72.5t54 22.5h355v-37q0 -47 -66 -47h-282q-24 -94 -24 -207h295v-29q0 -22 -15 -35.5t-44 -13.5h-236v-50q0 -102 42 -142.5t144 -40.5h52q60 0 128 19v-26
q0 -30 -16 -50q-9 -10 -33 -18q-20 -5 -37 -21q-29 -27 -38.5 -43t-9.5 -45q0 -22 17.5 -35t44.5 -13q34 0 72 20v-19q0 -50 -89 -50z" />
    <glyph glyph-name="eogonek" unicode="&#x119;" horiz-adv-x="562" 
d="M371 -203q-50 0 -78.5 23t-28.5 62q0 32 21 61t53 48q-10 -1 -32 -1q-110 0 -180.5 75.5t-70.5 191.5q0 128 71 208t179 80q80 0 141 -54t61 -132q0 -73 -47 -103t-180 -30h-132q7 -68 52.5 -110t118.5 -42q105 0 162 55h5v-40q0 -58 -74 -84q-20 -7 -38 -23
q-29 -27 -38.5 -43t-9.5 -45q0 -22 17 -35t45 -13q34 0 72 20v-19q0 -50 -89 -50zM419 354q0 46 -32 77.5t-92 31.5q-63 0 -104 -44t-43 -99l-1 -22l121 2q94 1 122.5 12t28.5 42z" />
    <glyph glyph-name="Ecaron" unicode="&#x11a;" horiz-adv-x="560" 
d="M523 71q0 -40 -25 -58t-102 -18h-84q-247 0 -247 283v123q0 90 23 184q12 50 32 72.5t54 22.5h355v-37q0 -47 -66 -47h-282q-24 -94 -24 -207h295v-29q0 -22 -15 -35.5t-44 -13.5h-236v-50q0 -102 42 -142.5t144 -40.5h52q60 0 128 19v-26zM151 921l153 -78l150 78v-40
q0 -39 -32 -57l-119 -69l-117 68q-35 21 -35 58v40z" />
    <glyph glyph-name="ecaron" unicode="&#x11b;" horiz-adv-x="562" 
d="M507 359q0 -73 -47 -103t-180 -30h-132q7 -68 52.5 -110t118.5 -42q105 0 162 55h5v-40q0 -44 -46.5 -71.5t-133.5 -27.5q-110 0 -180.5 75.5t-70.5 191.5q0 128 71 208t179 80q80 0 141 -54t61 -132zM419 354q0 46 -32 77.5t-92 31.5q-63 0 -104 -44t-43 -99l-1 -22
l121 2q94 1 122.5 12t28.5 42zM148 784l153 -78l150 78v-40q0 -39 -32 -57l-119 -69l-117 68q-35 21 -35 58v40z" />
    <glyph glyph-name="Gcircumflex" unicode="&#x11c;" horiz-adv-x="666" 
d="M422 690q81 0 132 -37.5t51 -85.5v-33h-5q-54 72 -189 72q-104 0 -176.5 -67t-72.5 -191q0 -137 71.5 -205.5t183.5 -68.5q64 0 87 20t23 73v63q0 44 -5 77h41q21 0 34.5 -14t13.5 -33v-116q0 -154 -211 -154q-136 0 -233 97.5t-97 249.5q0 155 93 254t259 99zM569 720
l-153 78l-150 -78v40q0 39 32 57l119 69l117 -68q35 -21 35 -58v-40z" />
    <glyph glyph-name="gcircumflex" unicode="&#x11d;" horiz-adv-x="579" 
d="M512 171q0 -13 2 -49t2 -45q0 -119 -71 -181t-182 -62q-66 0 -116.5 30.5t-50.5 76.5v37h7q61 -58 171 -58q69 0 112 39t43 113q0 6 -2.5 30.5t-2.5 38.5v27q-43 -97 -148 -97q-96 0 -159 58t-63 155q0 108 66 184.5t189 76.5q93 0 148 -58t55 -169v-147zM424 295
q0 85 -32 125t-97 40q-68 0 -108.5 -46.5t-40.5 -110.5q0 -77 37.5 -113t103.5 -36q63 0 100 39.5t37 101.5zM461 594l-153 78l-150 -78v40q0 39 32 57l119 69l117 -68q35 -21 35 -58v-40z" />
    <glyph glyph-name="Gbreve" unicode="&#x11e;" horiz-adv-x="666" 
d="M422 690q81 0 132 -37.5t51 -85.5v-33h-5q-54 72 -189 72q-104 0 -176.5 -67t-72.5 -191q0 -137 71.5 -205.5t183.5 -68.5q64 0 87 20t23 73v63q0 44 -5 77h41q21 0 34.5 -14t13.5 -33v-116q0 -154 -211 -154q-136 0 -233 97.5t-97 249.5q0 155 93 254t259 99zM416 758
q-130 0 -130 123v2q59 -55 131 -55q70 0 129 55v-7q0 -118 -130 -118z" />
    <glyph glyph-name="gbreve" unicode="&#x11f;" horiz-adv-x="579" 
d="M512 171q0 -13 2 -49t2 -45q0 -119 -71 -181t-182 -62q-66 0 -116.5 30.5t-50.5 76.5v37h7q61 -58 171 -58q69 0 112 39t43 113q0 6 -2.5 30.5t-2.5 38.5v27q-43 -97 -148 -97q-96 0 -159 58t-63 155q0 108 66 184.5t189 76.5q93 0 148 -58t55 -169v-147zM424 295
q0 85 -32 125t-97 40q-68 0 -108.5 -46.5t-40.5 -110.5q0 -77 37.5 -113t103.5 -36q63 0 100 39.5t37 101.5zM309 634q-130 0 -130 123v2q59 -55 131 -55q70 0 129 55v-7q0 -118 -130 -118z" />
    <glyph glyph-name="Gdotaccent" unicode="&#x120;" horiz-adv-x="666" 
d="M422 690q81 0 132 -37.5t51 -85.5v-33h-5q-54 72 -189 72q-104 0 -176.5 -67t-72.5 -191q0 -137 71.5 -205.5t183.5 -68.5q64 0 87 20t23 73v63q0 44 -5 77h41q21 0 34.5 -14t13.5 -33v-116q0 -154 -211 -154q-136 0 -233 97.5t-97 249.5q0 155 93 254t259 99zM359 811
q0 23 17 39.5t40 16.5t39.5 -16.5t16.5 -39.5t-16.5 -40t-39.5 -17t-40 17t-17 40z" />
    <glyph glyph-name="gdotaccent" unicode="&#x121;" horiz-adv-x="579" 
d="M512 171q0 -13 2 -49t2 -45q0 -119 -71 -181t-182 -62q-66 0 -116.5 30.5t-50.5 76.5v37h7q61 -58 171 -58q69 0 112 39t43 113q0 6 -2.5 30.5t-2.5 38.5v27q-43 -97 -148 -97q-96 0 -159 58t-63 155q0 108 66 184.5t189 76.5q93 0 148 -58t55 -169v-147zM424 295
q0 85 -32 125t-97 40q-68 0 -108.5 -46.5t-40.5 -110.5q0 -77 37.5 -113t103.5 -36q63 0 100 39.5t37 101.5zM252 678q0 23 17 39.5t40 16.5t39.5 -16.5t16.5 -39.5t-16.5 -40t-39.5 -17t-40 17t-17 40z" />
    <glyph glyph-name="Gcommaaccent" unicode="&#x122;" horiz-adv-x="666" 
d="M422 690q81 0 132 -37.5t51 -85.5v-33h-5q-54 72 -189 72q-104 0 -176.5 -67t-72.5 -191q0 -137 71.5 -205.5t183.5 -68.5q64 0 87 20t23 73v63q0 44 -5 77h41q21 0 34.5 -14t13.5 -33v-116q0 -154 -211 -154q-136 0 -233 97.5t-97 249.5q0 155 93 254t259 99zM454 -86
l-37 -129l-31 9q-38 12 -38 43q0 9 2 16l35 122l34 -10q37 -10 37 -39q0 -4 -2 -12z" />
    <glyph glyph-name="gcommaaccent" unicode="&#x123;" horiz-adv-x="579" 
d="M512 171q0 -13 2 -49t2 -45q0 -119 -71 -181t-182 -62q-66 0 -116.5 30.5t-50.5 76.5v37h7q61 -58 171 -58q69 0 112 39t43 113q0 6 -2.5 30.5t-2.5 38.5v27q-43 -97 -148 -97q-96 0 -159 58t-63 155q0 108 66 184.5t189 76.5q93 0 148 -58t55 -169v-147zM424 295
q0 85 -32 125t-97 40q-68 0 -108.5 -46.5t-40.5 -110.5q0 -77 37.5 -113t103.5 -36q63 0 100 39.5t37 101.5zM266 635v142h32q22 0 37 -14t15 -38v-134h-36q-22 0 -35 12t-13 32z" />
    <glyph glyph-name="Hcircumflex" unicode="&#x124;" horiz-adv-x="686" 
d="M606 0h-31q-24 0 -42 17.5t-18 49.5v246h-343v-313h-34q-23 0 -40.5 17t-17.5 50v613h49q17 0 30 -12.5t13 -33.5v-237h343v283h44q19 0 33 -13t14 -33v-634zM495 720l-153 78l-150 -78v40q0 39 32 57l119 69l117 -68q35 -21 35 -58v-40z" />
    <glyph glyph-name="hcircumflex" unicode="&#x125;" horiz-adv-x="592" 
d="M522 0h-24q-36 0 -51.5 14.5t-15.5 44.5v253q0 78 -32 112.5t-96 34.5q-51 0 -92 -40.5t-41 -111.5v-307h-26q-64 0 -64 59v661h27q65 0 65 -68v-201q51 94 144 94q98 0 152 -56.5t54 -173.5v-315zM275 739l-153 78l-150 -78v40q0 39 32 57l119 69l117 -68q35 -21 35 -58
v-40z" />
    <glyph glyph-name="Hbar" unicode="&#x126;" horiz-adv-x="686" 
d="M606 0h-31q-24 0 -42 17.5t-18 49.5v246h-343v-313h-34q-23 0 -40.5 17t-17.5 50v418h-80v22q0 42 62 42h18v131h49q17 0 30 -12.5t13 -33.5v-85h343v131h44q19 0 33 -13t14 -33v-85h80v-26q0 -38 -54 -38h-26v-485zM172 397h343v88h-343v-88z" />
    <glyph glyph-name="hbar" unicode="&#x127;" horiz-adv-x="592" 
d="M522 0h-24q-36 0 -51.5 14.5t-15.5 44.5v253q0 78 -32 112.5t-96 34.5q-51 0 -92 -40.5t-41 -111.5v-307h-26q-64 0 -64 59v525h-80v22q0 42 62 42h18v72h27q65 0 65 -68v-4h210v-26q0 -38 -54 -38h-156v-133q51 94 144 94q98 0 152 -56.5t54 -173.5v-315z" />
    <glyph glyph-name="Itilde" unicode="&#x128;" horiz-adv-x="263" 
d="M178 0h-33q-60 0 -60 67v613h44q19 0 34 -13t15 -33v-634zM191 749q-16 0 -36.5 11t-33.5 25q-31 33 -50 33q-40 0 -40 -70h-28q-10 0 -20.5 11t-10.5 30q0 48 30 73.5t67 25.5q38 0 67 -31q36 -38 55 -38q41 0 41 70h29q11 0 21 -11.5t10 -30.5q0 -45 -28.5 -71.5
t-72.5 -26.5z" />
    <glyph glyph-name="itilde" unicode="&#x129;" horiz-adv-x="317" 
d="M302 49q0 -25 -14.5 -39.5t-38.5 -14.5q-160 0 -160 159v381h28q25 0 44 -19t19 -52v-297q0 -88 83 -88h39v-30zM193 623q-16 0 -36.5 11t-33.5 25q-31 33 -50 33q-40 0 -40 -70h-28q-10 0 -20.5 11t-10.5 30q0 48 30 73.5t67 25.5q38 0 67 -31q36 -38 55 -38q41 0 41 70
h29q11 0 21 -11.5t10 -30.5q0 -45 -28.5 -71.5t-72.5 -26.5z" />
    <glyph glyph-name="Imacron" unicode="&#x12a;" horiz-adv-x="263" 
d="M178 0h-33q-60 0 -60 67v613h44q19 0 34 -13t15 -33v-634zM188 754h-166v32q0 21 16.5 36.5t45.5 15.5h158v-36q0 -22 -14.5 -35t-39.5 -13z" />
    <glyph glyph-name="imacron" unicode="&#x12b;" horiz-adv-x="317" 
d="M302 49q0 -25 -14.5 -39.5t-38.5 -14.5q-160 0 -160 159v381h28q25 0 44 -19t19 -52v-297q0 -88 83 -88h39v-30zM186 619h-166v32q0 21 16.5 36.5t45.5 15.5h158v-36q0 -22 -14.5 -35t-39.5 -13z" />
    <glyph glyph-name="Ibreve" unicode="&#x12c;" horiz-adv-x="263" 
d="M178 0h-33q-60 0 -60 67v613h44q19 0 34 -13t15 -33v-634zM132 758q-130 0 -130 123v2q59 -55 131 -55q70 0 129 55v-7q0 -118 -130 -118z" />
    <glyph glyph-name="ibreve" unicode="&#x12d;" horiz-adv-x="317" 
d="M302 49q0 -25 -14.5 -39.5t-38.5 -14.5q-160 0 -160 159v381h28q25 0 44 -19t19 -52v-297q0 -88 83 -88h39v-30zM134 634q-130 0 -130 123v2q59 -55 131 -55q70 0 129 55v-7q0 -118 -130 -118z" />
    <glyph glyph-name="Iogonek" unicode="&#x12e;" horiz-adv-x="263" 
d="M126 -203q-50 0 -78.5 23t-28.5 62q0 33 25.5 66.5t74.5 56.5q-34 15 -34 62v613h44q19 0 34 -13t15 -33v-634q-31 -2 -49 -18q-29 -27 -38.5 -43t-9.5 -45q0 -22 17.5 -35t44.5 -13q34 0 72 20v-19q0 -50 -89 -50z" />
    <glyph glyph-name="iogonek" unicode="&#x12f;" horiz-adv-x="317" 
d="M213 -203q-50 0 -78.5 23t-28.5 62q0 36 26.5 67.5t64.5 50.5q-108 23 -108 154v381h28q25 0 44 -19t19 -52v-297q0 -88 83 -88h39v-30q0 -37 -28 -49q-3 -1 -17.5 -5t-28.5 -9.5t-23 -13.5q-21 -19 -29 -34t-8 -44q0 -22 17 -35t45 -13q34 0 72 20v-19q0 -50 -89 -50z
M198 671q0 -26 -18 -44t-43 -18t-43.5 18.5t-18.5 43.5q0 26 18.5 44.5t43.5 18.5t43 -18.5t18 -44.5z" />
    <glyph glyph-name="Idotaccent" unicode="&#x130;" horiz-adv-x="263" 
d="M178 0h-33q-60 0 -60 67v613h44q19 0 34 -13t15 -33v-634zM76 811q0 23 17 39.5t40 16.5t39.5 -16.5t16.5 -39.5t-16.5 -40t-39.5 -17t-40 17t-17 40z" />
    <glyph glyph-name="dotlessi" unicode="&#x131;" horiz-adv-x="317" 
d="M302 49q0 -25 -14.5 -39.5t-38.5 -14.5q-160 0 -160 159v381h28q25 0 44 -19t19 -52v-297q0 -88 83 -88h39v-30z" />
    <glyph glyph-name="IJ" unicode="&#x132;" horiz-adv-x="602" 
d="M178 0h-33q-60 0 -60 67v613h44q19 0 34 -13t15 -33v-634zM527 200q0 -100 -51 -155t-146 -55q-49 0 -82.5 24t-33.5 62v37h5q13 -15 44 -26t64 -11q57 0 83 29t26 91v484h32q59 0 59 -60v-420z" />
    <glyph glyph-name="ij" unicode="&#x133;" horiz-adv-x="556" 
d="M478 671q0 -26 -18 -44t-43 -18t-43.5 18.5t-18.5 43.5q0 26 18.5 44.5t43.5 18.5t43 -18.5t18 -44.5zM201 671q0 -26 -18 -44t-43 -18q-26 0 -44 18.5t-18 43.5q0 26 18.5 44.5t43.5 18.5t43 -18.5t18 -44.5zM185 454v-454h-28q-25 0 -45 19t-20 52v454h28
q30 0 47.5 -18t17.5 -53zM369 2v523h28q29 0 47 -19.5t18 -54.5v-453q0 -79 -41.5 -124.5t-118.5 -45.5q-34 0 -53 14t-19 32v31l56 4q83 6 83 93z" />
    <glyph glyph-name="Jcircumflex" unicode="&#x134;" horiz-adv-x="393" 
d="M318 200q0 -100 -51 -155t-146 -55q-49 0 -82.5 24t-33.5 62v37h5q13 -15 44 -26t64 -11q57 0 83 29t26 91v484h32q59 0 59 -60v-420zM424 720l-153 78l-150 -78v40q0 39 32 57l119 69l117 -68q35 -21 35 -58v-40z" />
    <glyph glyph-name="jcircumflex" unicode="&#x135;" horiz-adv-x="315" 
d="M222 -10q0 -79 -41.5 -124.5t-118.5 -45.5q-34 0 -53 14t-19 32v31l56 4q85 6 85 93v541h28q35 0 49 -16t14 -55v-474zM326 594l-153 78l-150 -78v40q0 39 32 57l119 69l117 -68q35 -21 35 -58v-40z" />
    <glyph glyph-name="Kcommaaccent" unicode="&#x136;" horiz-adv-x="573" 
d="M171 0h-34q-24 0 -40.5 17.5t-16.5 46.5v616h27q31 0 47.5 -16.5t16.5 -46.5v-258l51.5 69.5l59.5 80t50.5 63.5t62.5 72q33 36 103 36h45v-5q-78 -68 -271 -316q30 -40 96.5 -122.5t100.5 -120.5q50 -55 104 -77q-9 -16 -14.5 -23.5t-17 -14t-27.5 -6.5q-53 0 -87 37
q-56 62 -136.5 161.5t-119.5 154.5v-348zM345 -86l-37 -129l-31 9q-38 12 -38 43q0 9 2 16l35 122l34 -10q37 -10 37 -39q0 -4 -2 -12z" />
    <glyph glyph-name="kcommaaccent" unicode="&#x137;" horiz-adv-x="499" 
d="M485 41q-6 -24 -17 -34t-44 -10q-42 0 -70 30q-52 52 -196 234v-261h-29q-59 0 -59 72v648h28q60 0 60 -60v-360q91 115 196 214q20 20 70 20h63v-5q-33 -26 -53.5 -44t-70 -69l-119.5 -129q89 -120 146 -179q33 -35 52.5 -48.5t42.5 -18.5zM308 -86l-37 -129l-31 9
q-38 12 -38 43q0 9 2 16l35 122l34 -10q37 -10 37 -39q0 -4 -2 -12z" />
    <glyph glyph-name="kgreenlandic" unicode="&#x138;" horiz-adv-x="499" 
d="M485 41q-6 -24 -17 -34t-44 -10q-42 0 -70 30q-52 52 -196 234v-261h-29q-59 0 -59 72v472h28q60 0 60 -60v-184q91 115 196 214q20 20 70 20h63v-5q-33 -26 -53.5 -44t-70 -69l-119.5 -129q89 -120 146 -179q33 -35 52.5 -48.5t42.5 -18.5z" />
    <glyph glyph-name="Lacute" unicode="&#x139;" horiz-adv-x="498" 
d="M496 69q0 -36 -27.5 -55t-105.5 -19h-57q-226 0 -226 244v442h33q29 0 43.5 -15t14.5 -53v-350q0 -109 30.5 -145.5t123.5 -36.5h38q80 0 133 15v-27zM75 753v6q19 40 75 96q41 41 84 41q19 0 30 -11.5t11 -28.5q0 -41 -64 -70q-73 -33 -120 -33h-16z" />
    <glyph glyph-name="lacute" unicode="&#x13a;" horiz-adv-x="320" 
d="M315 50q0 -54 -73 -54q-162 0 -162 159v565h28q29 0 46.5 -18t17.5 -52v-484q0 -47 21.5 -66.5t62.5 -19.5h59v-30zM76 773v6q19 40 75 96q41 41 84 41q19 0 30 -11.5t11 -28.5q0 -41 -64 -70q-73 -33 -120 -33h-16z" />
    <glyph glyph-name="Lcommaaccent" unicode="&#x13b;" horiz-adv-x="498" 
d="M496 69q0 -36 -27.5 -55t-105.5 -19h-57q-226 0 -226 244v442h33q29 0 43.5 -15t14.5 -53v-350q0 -109 30.5 -145.5t123.5 -36.5h38q80 0 133 15v-27zM368 -86l-37 -129l-31 9q-38 12 -38 43q0 9 2 16l35 122l34 -10q37 -10 37 -39q0 -4 -2 -12z" />
    <glyph glyph-name="lcommaaccent" unicode="&#x13c;" horiz-adv-x="320" 
d="M315 50q0 -54 -73 -54q-162 0 -162 159v565h28q29 0 46.5 -18t17.5 -52v-484q0 -47 21.5 -66.5t62.5 -19.5h59v-30zM273 -86l-37 -129l-31 9q-38 12 -38 43q0 9 2 16l35 122l34 -10q37 -10 37 -39q0 -4 -2 -12z" />
    <glyph glyph-name="Lcaron" unicode="&#x13d;" horiz-adv-x="498" 
d="M496 69q0 -36 -27.5 -55t-105.5 -19h-57q-226 0 -226 244v442h33q29 0 43.5 -15t14.5 -53v-350q0 -109 30.5 -145.5t123.5 -36.5h38q80 0 133 15v-27zM235 539v142h32q22 0 37 -14t15 -38v-134h-36q-22 0 -35 12t-13 32z" />
    <glyph glyph-name="lcaron" unicode="&#x13e;" horiz-adv-x="320" 
d="M315 50q0 -54 -73 -54q-162 0 -162 159v565h28q29 0 46.5 -18t17.5 -52v-484q0 -47 21.5 -66.5t62.5 -19.5h59v-30zM222 578v142h32q22 0 37 -14t15 -38v-134h-36q-22 0 -35 12t-13 32z" />
    <glyph glyph-name="Ldot" unicode="&#x13f;" horiz-adv-x="498" 
d="M496 69q0 -36 -27.5 -55t-105.5 -19h-57q-226 0 -226 244v442h33q29 0 43.5 -15t14.5 -53v-350q0 -109 30.5 -145.5t123.5 -36.5h38q80 0 133 15v-27zM269 364q0 27 19 45.5t46 18.5t45.5 -18.5t18.5 -45.5t-18.5 -46t-45.5 -19t-46 19t-19 46z" />
    <glyph glyph-name="ldot" unicode="&#x140;" horiz-adv-x="320" 
d="M315 50q0 -54 -73 -54q-162 0 -162 159v565h28q29 0 46.5 -18t17.5 -52v-484q0 -47 21.5 -66.5t62.5 -19.5h59v-30zM222 365q0 23 17 39.5t40 16.5t39.5 -16.5t16.5 -39.5t-16.5 -40t-39.5 -17t-40 17t-17 40z" />
    <glyph glyph-name="Lslash" unicode="&#x141;" horiz-adv-x="498" 
d="M250 345l-79 -36v-46q0 -110 30.5 -146t123.5 -36h38q80 0 133 15v-27q0 -36 -27.5 -55t-105.5 -19h-57q-226 0 -226 244v29l-84 -38v37q0 42 53 65l31 14v335h33q29 0 43.5 -15t14.5 -53v-226l134 60v-36q0 -22 -12 -37t-43 -29z" />
    <glyph glyph-name="lslash" unicode="&#x142;" horiz-adv-x="320" 
d="M250 345l-78 -35v-144q0 -47 21.5 -66.5t62.5 -19.5h59v-30q0 -54 -73 -54q-162 0 -162 159v113l-84 -38v37q0 42 53 65l31 14v374h28q29 0 46.5 -18t17.5 -52v-263l133 60v-36q0 -22 -12 -37t-43 -29z" />
    <glyph glyph-name="Nacute" unicode="&#x143;" horiz-adv-x="685" 
d="M605 0h-28q-51 0 -94.5 38t-94.5 141l-144 291q-38 78 -75 113v-583h-38q-22 0 -36.5 16.5t-14.5 45.5v619h44q107 0 174 -136l144 -292l18 -37.5l19 -39.5t18 -32.5t22 -31.5v568h38q20 0 34 -13.5t14 -34.5v-632zM272 753v6q19 40 75 96q41 41 84 41q19 0 30 -11.5
t11 -28.5q0 -41 -64 -70q-73 -33 -120 -33h-16z" />
    <glyph glyph-name="nacute" unicode="&#x144;" horiz-adv-x="582" 
d="M512 0h-33q-57 0 -57 59v246q0 83 -32 118.5t-104 35.5q-126 0 -126 -154v-305h-34q-26 0 -41 15.5t-15 46.5v245q0 111 61.5 174.5t165.5 63.5q103 0 159 -59.5t56 -177.5v-308zM187 628v6q19 40 75 96q41 41 84 41q19 0 30 -11.5t11 -28.5q0 -41 -64 -70
q-73 -33 -120 -33h-16z" />
    <glyph glyph-name="Ncommaaccent" unicode="&#x145;" horiz-adv-x="685" 
d="M605 0h-28q-51 0 -94.5 38t-94.5 141l-144 291q-38 78 -75 113v-583h-38q-22 0 -36.5 16.5t-14.5 45.5v619h44q107 0 174 -136l144 -292l18 -37.5l19 -39.5t18 -32.5t22 -31.5v568h38q20 0 34 -13.5t14 -34.5v-632zM387 -86l-37 -129l-31 9q-38 12 -38 43q0 9 2 16
l35 122l34 -10q37 -10 37 -39q0 -4 -2 -12z" />
    <glyph glyph-name="ncommaaccent" unicode="&#x146;" horiz-adv-x="582" 
d="M512 0h-33q-57 0 -57 59v246q0 83 -32 118.5t-104 35.5q-126 0 -126 -154v-305h-34q-26 0 -41 15.5t-15 46.5v245q0 111 61.5 174.5t165.5 63.5q103 0 159 -59.5t56 -177.5v-308zM353 -86l-37 -129l-31 9q-38 12 -38 43q0 9 2 16l35 122l34 -10q37 -10 37 -39
q0 -4 -2 -12z" />
    <glyph glyph-name="Ncaron" unicode="&#x147;" horiz-adv-x="685" 
d="M605 0h-28q-51 0 -94.5 38t-94.5 141l-144 291q-38 78 -75 113v-583h-38q-22 0 -36.5 16.5t-14.5 45.5v619h44q107 0 174 -136l144 -292l18 -37.5l19 -39.5t18 -32.5t22 -31.5v568h38q20 0 34 -13.5t14 -34.5v-632zM183 921l153 -78l150 78v-40q0 -39 -32 -57l-119 -69
l-117 68q-35 21 -35 58v40z" />
    <glyph glyph-name="ncaron" unicode="&#x148;" horiz-adv-x="582" 
d="M512 0h-33q-57 0 -57 59v246q0 83 -32 118.5t-104 35.5q-126 0 -126 -154v-305h-34q-26 0 -41 15.5t-15 46.5v245q0 111 61.5 174.5t165.5 63.5q103 0 159 -59.5t56 -177.5v-308zM136 784l153 -78l150 78v-40q0 -39 -32 -57l-119 -69l-117 68q-35 21 -35 58v40z" />
    <glyph glyph-name="napostrophe" unicode="&#x149;" horiz-adv-x="582" 
d="M512 0h-33q-57 0 -57 59v246q0 83 -32 118.5t-104 35.5q-126 0 -126 -154v-305h-34q-26 0 -41 15.5t-15 46.5v245q0 111 61.5 174.5t165.5 63.5q103 0 159 -59.5t56 -177.5v-308zM79 556h-12q-51 0 -57 78l-12 164h38q29 0 44 -20.5t13 -53.5z" />
    <glyph glyph-name="Eng" unicode="&#x14a;" horiz-adv-x="685" 
d="M605 0q-2 -97 -50.5 -150t-141.5 -53q-49 0 -82.5 24t-33.5 62v37h5q13 -15 44 -26t64 -11q57 0 83 29t26 91v10q-64 31 -131 166l-144 291q-38 78 -75 113v-583h-38q-22 0 -36.5 16.5t-14.5 45.5v619h44q107 0 174 -136l144 -292l18 -37.5l19 -39.5t18 -32.5t22 -31.5
v568h38q20 0 34 -13.5t14 -34.5v-632z" />
    <glyph glyph-name="eng" unicode="&#x14b;" horiz-adv-x="582" 
d="M512 -33q0 -79 -41 -124.5t-118 -45.5q-34 0 -53 14t-19 32v31l56 4q85 6 85 93v334q0 83 -32 118.5t-104 35.5q-126 0 -126 -154v-305h-34q-26 0 -41 15.5t-15 46.5v245q0 111 61.5 174.5t165.5 63.5q103 0 159 -59.5t56 -177.5v-341z" />
    <glyph glyph-name="Omacron" unicode="&#x14c;" horiz-adv-x="726" 
d="M671 349q0 -160 -83 -259.5t-230 -99.5q-128 0 -215 93t-87 249q0 160 83 259t230 99q136 0 219 -94.5t83 -246.5zM580 332q0 138 -54 206t-168 68q-99 0 -155 -65t-56 -192q0 -133 56.5 -204t165.5 -71q98 0 154.5 69.5t56.5 188.5zM418 754h-166v32q0 21 16.5 36.5
t45.5 15.5h158v-36q0 -22 -14.5 -35t-39.5 -13z" />
    <glyph glyph-name="omacron" unicode="&#x14d;" horiz-adv-x="599" 
d="M543 278q0 -134 -65 -211t-175 -77q-107 0 -177.5 75t-70.5 193q0 132 67 209t181 77q107 0 173.5 -73.5t66.5 -192.5zM451 257q0 99 -41 150t-120 51q-65 0 -104 -49t-39 -132q0 -93 43.5 -147t121.5 -54q66 0 102.5 50t36.5 131zM357 619h-166v32q0 21 16.5 36.5
t45.5 15.5h158v-36q0 -22 -14.5 -35t-39.5 -13z" />
    <glyph glyph-name="Obreve" unicode="&#x14e;" horiz-adv-x="726" 
d="M671 349q0 -160 -83 -259.5t-230 -99.5q-128 0 -215 93t-87 249q0 160 83 259t230 99q136 0 219 -94.5t83 -246.5zM580 332q0 138 -54 206t-168 68q-99 0 -155 -65t-56 -192q0 -133 56.5 -204t165.5 -71q98 0 154.5 69.5t56.5 188.5zM363 758q-130 0 -130 123v2
q59 -55 131 -55q70 0 129 55v-7q0 -118 -130 -118z" />
    <glyph glyph-name="obreve" unicode="&#x14f;" horiz-adv-x="599" 
d="M543 278q0 -134 -65 -211t-175 -77q-107 0 -177.5 75t-70.5 193q0 132 67 209t181 77q107 0 173.5 -73.5t66.5 -192.5zM451 257q0 99 -41 150t-120 51q-65 0 -104 -49t-39 -132q0 -93 43.5 -147t121.5 -54q66 0 102.5 50t36.5 131zM302 634q-130 0 -130 123v2
q59 -55 131 -55q70 0 129 55v-7q0 -118 -130 -118z" />
    <glyph glyph-name="Ohungarumlaut" unicode="&#x150;" horiz-adv-x="726" 
d="M671 349q0 -160 -83 -259.5t-230 -99.5q-128 0 -215 93t-87 249q0 160 83 259t230 99q136 0 219 -94.5t83 -246.5zM580 332q0 138 -54 206t-168 68q-99 0 -155 -65t-56 -192q0 -133 56.5 -204t165.5 -71q98 0 154.5 69.5t56.5 188.5zM482 809q-20 -16 -57.5 -34.5
t-55.5 -21.5h-4q14 39 48 94q42 66 80 66q21 0 29 -7t8 -25q0 -34 -48 -72zM312 809q-20 -16 -57.5 -34.5t-55.5 -21.5h-5q15 41 49 94q40 66 80 66q21 0 29 -7t8 -25q0 -32 -48 -72z" />
    <glyph glyph-name="ohungarumlaut" unicode="&#x151;" horiz-adv-x="599" 
d="M543 278q0 -134 -65 -211t-175 -77q-107 0 -177.5 75t-70.5 193q0 132 67 209t181 77q107 0 173.5 -73.5t66.5 -192.5zM451 257q0 99 -41 150t-120 51q-65 0 -104 -49t-39 -132q0 -93 43.5 -147t121.5 -54q66 0 102.5 50t36.5 131zM421 684q-20 -16 -57.5 -34.5
t-55.5 -21.5h-4q14 39 48 94q42 66 80 66q21 0 29 -7t8 -25q0 -34 -48 -72zM251 684q-20 -16 -57.5 -34.5t-55.5 -21.5h-5q15 41 49 94q40 66 80 66q21 0 29 -7t8 -25q0 -32 -48 -72z" />
    <glyph glyph-name="OE" unicode="&#x152;" horiz-adv-x="1018" 
d="M987 69q0 -39 -25 -56.5t-100 -17.5h-67q-181 0 -219 141q-53 -146 -231 -146q-122 0 -205.5 93t-83.5 249q0 161 75.5 259.5t221.5 98.5q67 0 127 -33.5t85 -89.5q4 54 26 82t57 28h340v-34q0 -19 -13.5 -33.5t-40.5 -14.5h-279q-14 -73 -14 -205h269v-27
q0 -20 -14.5 -34.5t-43.5 -14.5h-211v-57q0 -101 40.5 -141t140.5 -40h39q63 0 126 19v-26zM551 348q0 54 -10.5 98.5t-33 81.5t-63.5 57.5t-98 20.5q-93 0 -147 -65.5t-54 -191.5q0 -134 53.5 -204.5t157.5 -70.5q56 0 96 24t60.5 66t29.5 87t9 97z" />
    <glyph glyph-name="oe" unicode="&#x153;" horiz-adv-x="958" 
d="M903 355q0 -71 -47 -100t-180 -29h-132q7 -69 52 -111t118 -42q109 0 163 56h5v-29q0 -51 -46.5 -80.5t-134.5 -29.5q-69 0 -123 32t-83 82q-59 -114 -192 -114q-107 0 -177.5 75t-70.5 193q0 132 67 209t181 77q136 0 201 -117q27 51 79.5 84.5t115.5 33.5
q81 0 142.5 -54.5t61.5 -135.5zM816 351q0 56 -34.5 83.5t-90.5 27.5q-61 0 -103 -44.5t-44 -97.5l-1 -20l121 2q94 1 123 11.5t29 37.5zM451 257q0 99 -41 151t-120 52q-65 0 -104.5 -50t-39.5 -133q0 -93 44 -148t122 -55q66 0 102.5 51t36.5 132z" />
    <glyph glyph-name="Racute" unicode="&#x154;" horiz-adv-x="598" 
d="M576 7v-5q-35 -5 -49 -5q-54 0 -75 51l-51 122q-29 69 -53.5 90.5t-60.5 24.5q-75 5 -115 14v-299h-34q-58 0 -58 58v596q31 12 81.5 21.5t90.5 9.5h61q103 0 162.5 -49.5t59.5 -136.5q0 -77 -44.5 -121.5t-114.5 -54.5q30 -9 52 -30t32 -38.5t22 -47.5l62 -146
q16 -36 32 -54zM443 485q0 120 -137 120h-51q-36 0 -83 -11v-218q63 -10 123 -10q61 0 104.5 29.5t43.5 89.5zM183 753v6q19 40 75 96q41 41 84 41q19 0 30 -11.5t11 -28.5q0 -41 -64 -70q-73 -33 -120 -33h-16z" />
    <glyph glyph-name="racute" unicode="&#x155;" horiz-adv-x="363" 
d="M351 422h-5q-31 27 -82 27q-54 0 -76 -32.5t-22 -116.5v-300h-39q-24 0 -38 17t-14 44v246q0 109 48 168t128 59q51 0 75.5 -19t24.5 -49v-44zM144 628v6q19 40 75 96q41 41 84 41q19 0 30 -11.5t11 -28.5q0 -41 -64 -70q-73 -33 -120 -33h-16z" />
    <glyph glyph-name="Rcommaaccent" unicode="&#x156;" horiz-adv-x="598" 
d="M576 7v-5q-35 -5 -49 -5q-54 0 -75 51l-51 122q-29 69 -53.5 90.5t-60.5 24.5q-75 5 -115 14v-299h-34q-58 0 -58 58v596q31 12 81.5 21.5t90.5 9.5h61q103 0 162.5 -49.5t59.5 -136.5q0 -77 -44.5 -121.5t-114.5 -54.5q30 -9 52 -30t32 -38.5t22 -47.5l62 -146
q16 -36 32 -54zM443 485q0 120 -137 120h-51q-36 0 -83 -11v-218q63 -10 123 -10q61 0 104.5 29.5t43.5 89.5zM358 -86l-37 -129l-31 9q-38 12 -38 43q0 9 2 16l35 122l34 -10q37 -10 37 -39q0 -4 -2 -12z" />
    <glyph glyph-name="rcommaaccent" unicode="&#x157;" horiz-adv-x="363" 
d="M351 422h-5q-31 27 -82 27q-54 0 -76 -32.5t-22 -116.5v-300h-39q-24 0 -38 17t-14 44v246q0 109 48 168t128 59q51 0 75.5 -19t24.5 -49v-44zM167 -86l-37 -129l-31 9q-38 12 -38 43q0 9 2 16l35 122l34 -10q37 -10 37 -39q0 -4 -2 -12z" />
    <glyph glyph-name="Rcaron" unicode="&#x158;" horiz-adv-x="598" 
d="M576 7v-5q-35 -5 -49 -5q-54 0 -75 51l-51 122q-29 69 -53.5 90.5t-60.5 24.5q-75 5 -115 14v-299h-34q-58 0 -58 58v596q31 12 81.5 21.5t90.5 9.5h61q103 0 162.5 -49.5t59.5 -136.5q0 -77 -44.5 -121.5t-114.5 -54.5q30 -9 52 -30t32 -38.5t22 -47.5l62 -146
q16 -36 32 -54zM443 485q0 120 -137 120h-51q-36 0 -83 -11v-218q63 -10 123 -10q61 0 104.5 29.5t43.5 89.5zM133 921l153 -78l150 78v-40q0 -39 -32 -57l-119 -69l-117 68q-35 21 -35 58v40z" />
    <glyph glyph-name="rcaron" unicode="&#x159;" horiz-adv-x="363" 
d="M351 422h-5q-31 27 -82 27q-54 0 -76 -32.5t-22 -116.5v-300h-39q-24 0 -38 17t-14 44v246q0 109 48 168t128 59q51 0 75.5 -19t24.5 -49v-44zM94 784l153 -78l150 78v-40q0 -39 -32 -57l-119 -69l-117 68q-35 21 -35 58v40z" />
    <glyph glyph-name="Sacute" unicode="&#x15a;" horiz-adv-x="579" 
d="M272 -10q-76 0 -140 39.5t-64 95.5v44h5q31 -42 86.5 -67.5t119.5 -25.5q84 0 119 28.5t35 82.5q0 53 -36 79t-141 49q-103 23 -150.5 61t-47.5 109q0 89 70 147t188 58q90 0 142.5 -38t52.5 -88v-41h-5q-64 81 -195 81q-75 0 -116 -27.5t-41 -77.5q0 -48 32 -70.5
t133 -45.5q40 -9 74 -23t66 -36t50.5 -54.5t18.5 -72.5q0 -90 -65.5 -148.5t-190.5 -58.5zM212 753v6q19 40 75 96q41 41 84 41q19 0 30 -11.5t11 -28.5q0 -41 -64 -70q-73 -33 -120 -33h-16z" />
    <glyph glyph-name="sacute" unicode="&#x15b;" horiz-adv-x="488" 
d="M434 162q0 -82 -57.5 -127t-151.5 -45q-69 0 -115.5 29.5t-46.5 76.5v39h5q24 -26 66.5 -43t92.5 -17q114 0 114 78q0 35 -26.5 52.5t-114.5 36.5q-78 16 -112.5 46.5t-34.5 88.5q0 69 58 118.5t154 49.5q63 0 109.5 -27.5t46.5 -73.5v-40h-5q-18 22 -58.5 38.5
t-85.5 16.5q-127 0 -127 -76q0 -28 25 -42.5t106 -32.5q158 -34 158 -146zM207 628v6q19 40 75 96q41 41 84 41q19 0 30 -11.5t11 -28.5q0 -41 -64 -70q-73 -33 -120 -33h-16z" />
    <glyph glyph-name="Scircumflex" unicode="&#x15c;" horiz-adv-x="579" 
d="M272 -10q-76 0 -140 39.5t-64 95.5v44h5q31 -42 86.5 -67.5t119.5 -25.5q84 0 119 28.5t35 82.5q0 53 -36 79t-141 49q-103 23 -150.5 61t-47.5 109q0 89 70 147t188 58q90 0 142.5 -38t52.5 -88v-41h-5q-64 81 -195 81q-75 0 -116 -27.5t-41 -77.5q0 -48 32 -70.5
t133 -45.5q40 -9 74 -23t66 -36t50.5 -54.5t18.5 -72.5q0 -90 -65.5 -148.5t-190.5 -58.5zM454 720l-153 78l-150 -78v40q0 39 32 57l119 69l117 -68q35 -21 35 -58v-40z" />
    <glyph glyph-name="scircumflex" unicode="&#x15d;" horiz-adv-x="488" 
d="M434 162q0 -82 -57.5 -127t-151.5 -45q-69 0 -115.5 29.5t-46.5 76.5v39h5q24 -26 66.5 -43t92.5 -17q114 0 114 78q0 35 -26.5 52.5t-114.5 36.5q-78 16 -112.5 46.5t-34.5 88.5q0 69 58 118.5t154 49.5q63 0 109.5 -27.5t46.5 -73.5v-40h-5q-18 22 -58.5 38.5
t-85.5 16.5q-127 0 -127 -76q0 -28 25 -42.5t106 -32.5q158 -34 158 -146zM411 594l-153 78l-150 -78v40q0 39 32 57l119 69l117 -68q35 -21 35 -58v-40z" />
    <glyph glyph-name="Scedilla" unicode="&#x15e;" horiz-adv-x="579" 
d="M331 -127q0 16 -12 22t-41 6q-28 0 -51 -3l25 93q-72 6 -128 44t-56 90v44h5q31 -42 86.5 -67.5t119.5 -25.5q84 0 119 28.5t35 82.5q0 53 -36 79t-141 49q-103 23 -150.5 61t-47.5 109q0 89 70 147t188 58q90 0 142.5 -38t52.5 -88v-41h-5q-64 81 -195 81
q-75 0 -116 -27.5t-41 -77.5q0 -48 32 -70.5t133 -45.5q40 -9 74 -23t66 -36t50.5 -54.5t18.5 -72.5q0 -84 -58 -141.5t-168 -64.5l-4 -41q106 0 106 -74q0 -89 -123 -89q-101 0 -101 58v27q28 -28 94 -28q33 0 45 6t12 23z" />
    <glyph glyph-name="scedilla" unicode="&#x15f;" horiz-adv-x="488" 
d="M280 -127q0 16 -12 22t-41 6t-51 -3l25 93q-61 5 -99.5 33.5t-38.5 71.5v39h5q24 -26 66.5 -43t92.5 -17q114 0 114 78q0 35 -26.5 52.5t-114.5 36.5q-78 16 -112.5 46.5t-34.5 88.5q0 69 58 118.5t154 49.5q63 0 109.5 -27.5t46.5 -73.5v-40h-5q-18 22 -58.5 38.5
t-85.5 16.5q-127 0 -127 -76q0 -28 25 -42.5t106 -32.5q158 -34 158 -146q0 -76 -50 -120.5t-133 -50.5l-4 -41q106 0 106 -74q0 -89 -123 -89q-101 0 -101 58v23h5q27 -24 89 -24q33 0 45 6t12 23z" />
    <glyph glyph-name="Scaron" unicode="&#x160;" horiz-adv-x="579" 
d="M272 -10q-76 0 -140 39.5t-64 95.5v44h5q31 -42 86.5 -67.5t119.5 -25.5q84 0 119 28.5t35 82.5q0 53 -36 79t-141 49q-103 23 -150.5 61t-47.5 109q0 89 70 147t188 58q90 0 142.5 -38t52.5 -88v-41h-5q-64 81 -195 81q-75 0 -116 -27.5t-41 -77.5q0 -48 32 -70.5
t133 -45.5q40 -9 74 -23t66 -36t50.5 -54.5t18.5 -72.5q0 -90 -65.5 -148.5t-190.5 -58.5zM150 922l153 -78l150 78v-40q0 -39 -32 -57l-119 -69l-117 68q-35 21 -35 58v40z" />
    <glyph glyph-name="scaron" unicode="&#x161;" horiz-adv-x="488" 
d="M434 162q0 -82 -57.5 -127t-151.5 -45q-69 0 -115.5 29.5t-46.5 76.5v39h5q24 -26 66.5 -43t92.5 -17q114 0 114 78q0 35 -26.5 52.5t-114.5 36.5q-78 16 -112.5 46.5t-34.5 88.5q0 69 58 118.5t154 49.5q63 0 109.5 -27.5t46.5 -73.5v-40h-5q-18 22 -58.5 38.5
t-85.5 16.5q-127 0 -127 -76q0 -28 25 -42.5t106 -32.5q158 -34 158 -146zM107 784l153 -78l150 78v-40q0 -39 -32 -57l-119 -69l-117 68q-35 21 -35 58v40z" />
    <glyph glyph-name="Tcommaaccent" unicode="&#x162;" horiz-adv-x="523" 
d="M321 -127q0 16 -12 22t-41 6q-28 0 -51 -3l27 105q-32 9 -32 55v539h-207v34q0 21 14.5 35.5t43.5 14.5h455v-35q0 -16 -15.5 -32.5t-37.5 -16.5h-160v-597h-12l-5 -50q106 0 106 -74q0 -89 -123 -89q-101 0 -101 58v27q28 -28 94 -28q33 0 45 6t12 23z" />
    <glyph glyph-name="tcommaaccent" unicode="&#x163;" horiz-adv-x="374" 
d="M303 -127q0 16 -12 22t-41 6q-28 0 -51 -3l24 94q-143 13 -143 183v348q0 49 23 83q9 14 27.5 26t28.5 12h11v-110h184v-30q0 -55 -70 -55h-113v-265q0 -108 88 -108q60 0 84 15h5v-32q0 -59 -74 -68l-4 -41q106 0 106 -74q0 -89 -123 -89q-101 0 -101 58v27
q28 -28 94 -28q33 0 45 6t12 23z" />
    <glyph glyph-name="Tcaron" unicode="&#x164;" horiz-adv-x="523" 
d="M518 646q0 -16 -15.5 -32.5t-37.5 -16.5h-160v-597h-34q-31 0 -45 12.5t-14 45.5v539h-207v34q0 21 14.5 35.5t43.5 14.5h455v-35zM110 921l153 -78l150 78v-40q0 -39 -32 -57l-119 -69l-117 68q-35 21 -35 58v40z" />
    <glyph glyph-name="tcaron" unicode="&#x165;" horiz-adv-x="374" 
d="M170 644v-110h184v-30q0 -55 -70 -55h-113v-265q0 -108 88 -108q60 0 84 15h5v-32q0 -69 -97 -69q-88 0 -129.5 46t-41.5 139v348q0 49 23 83q9 14 27.5 26t28.5 12h11zM290 601v142h32q22 0 37 -14t15 -38v-134h-36q-22 0 -35 12t-13 32z" />
    <glyph glyph-name="Tbar" unicode="&#x166;" horiz-adv-x="523" 
d="M518 646q0 -16 -15.5 -32.5t-37.5 -16.5h-160v-185h166v-26q0 -38 -54 -38h-112v-348h-34q-31 0 -45 12.5t-14 45.5v290h-161v22q0 42 62 42h99v185h-207v34q0 21 14.5 35.5t43.5 14.5h455v-35z" />
    <glyph glyph-name="tbar" unicode="&#x167;" horiz-adv-x="374" 
d="M70 534h10q3 43 23 72q9 14 27.5 26t28.5 12h11v-110h184v-30q0 -55 -70 -55h-113v-134h165v-26q0 -38 -54 -38h-111v-67q0 -108 88 -108q60 0 84 15h5v-32q0 -69 -97 -69q-88 0 -129.5 46t-41.5 139v76h-80v22q0 42 62 42h18v134h-80v30q0 55 70 55z" />
    <glyph glyph-name="Utilde" unicode="&#x168;" horiz-adv-x="684" 
d="M70 307v373h32q33 0 46.5 -16t13.5 -56v-293q0 -126 43.5 -183t139.5 -57t136.5 54.5t40.5 177.5v373h35q57 0 57 -67v-298q0 -156 -70.5 -240.5t-204.5 -84.5q-133 0 -201 82t-68 235zM392 749q-16 0 -36.5 11t-33.5 25q-31 33 -50 33q-40 0 -40 -70h-28q-10 0 -20.5 11
t-10.5 30q0 48 30 73.5t67 25.5q38 0 67 -31q36 -38 55 -38q41 0 41 70h29q11 0 21 -11.5t10 -30.5q0 -45 -28.5 -71.5t-72.5 -26.5z" />
    <glyph glyph-name="utilde" unicode="&#x169;" horiz-adv-x="582" 
d="M512 230q0 -117 -58 -178.5t-166 -61.5q-100 0 -159 66t-59 182v297h28q63 0 63 -71v-221q0 -80 36.5 -123.5t96.5 -43.5q64 0 95.5 39t31.5 124v296h25q66 0 66 -71v-234zM348 623q-16 0 -36.5 11t-33.5 25q-31 33 -50 33q-40 0 -40 -70h-28q-10 0 -20.5 11t-10.5 30
q0 48 30 73.5t67 25.5q38 0 67 -31q36 -38 55 -38q41 0 41 70h29q11 0 21 -11.5t10 -30.5q0 -45 -28.5 -71.5t-72.5 -26.5z" />
    <glyph glyph-name="Umacron" unicode="&#x16a;" horiz-adv-x="684" 
d="M70 307v373h32q33 0 46.5 -16t13.5 -56v-293q0 -126 43.5 -183t139.5 -57t136.5 54.5t40.5 177.5v373h35q57 0 57 -67v-298q0 -156 -70.5 -240.5t-204.5 -84.5q-133 0 -201 82t-68 235zM389 754h-166v32q0 21 16.5 36.5t45.5 15.5h158v-36q0 -22 -14.5 -35t-39.5 -13z
" />
    <glyph glyph-name="umacron" unicode="&#x16b;" horiz-adv-x="582" 
d="M512 230q0 -117 -58 -178.5t-166 -61.5q-100 0 -159 66t-59 182v297h28q63 0 63 -71v-221q0 -80 36.5 -123.5t96.5 -43.5q64 0 95.5 39t31.5 124v296h25q66 0 66 -71v-234zM345 619h-166v32q0 21 16.5 36.5t45.5 15.5h158v-36q0 -22 -14.5 -35t-39.5 -13z" />
    <glyph glyph-name="Ubreve" unicode="&#x16c;" horiz-adv-x="684" 
d="M70 307v373h32q33 0 46.5 -16t13.5 -56v-293q0 -126 43.5 -183t139.5 -57t136.5 54.5t40.5 177.5v373h35q57 0 57 -67v-298q0 -156 -70.5 -240.5t-204.5 -84.5q-133 0 -201 82t-68 235zM333 758q-130 0 -130 123v2q59 -55 131 -55q70 0 129 55v-7q0 -118 -130 -118z" />
    <glyph glyph-name="ubreve" unicode="&#x16d;" horiz-adv-x="582" 
d="M512 230q0 -117 -58 -178.5t-166 -61.5q-100 0 -159 66t-59 182v297h28q63 0 63 -71v-221q0 -80 36.5 -123.5t96.5 -43.5q64 0 95.5 39t31.5 124v296h25q66 0 66 -71v-234zM288 634q-130 0 -130 123v2q59 -55 131 -55q70 0 129 55v-7q0 -118 -130 -118z" />
    <glyph glyph-name="Uring" unicode="&#x16e;" horiz-adv-x="684" 
d="M70 307v373h32q33 0 46.5 -16t13.5 -56v-293q0 -126 43.5 -183t139.5 -57t136.5 54.5t40.5 177.5v373h35q57 0 57 -67v-298q0 -156 -70.5 -240.5t-204.5 -84.5q-133 0 -201 82t-68 235zM334 696q-51 0 -79 30t-28 73q0 44 27.5 74t79.5 30q51 0 78.5 -29.5t27.5 -74.5
q0 -43 -28.5 -73t-77.5 -30zM334 850q-19 0 -31 -14.5t-12 -36.5q0 -20 12.5 -34.5t29.5 -14.5q19 0 32 13.5t13 35.5t-12.5 36.5t-31.5 14.5z" />
    <glyph glyph-name="uring" unicode="&#x16f;" horiz-adv-x="582" 
d="M512 230q0 -117 -58 -178.5t-166 -61.5q-100 0 -159 66t-59 182v297h28q63 0 63 -71v-221q0 -80 36.5 -123.5t96.5 -43.5q64 0 95.5 39t31.5 124v296h25q66 0 66 -71v-234zM290 604q-51 0 -79 30t-28 73q0 44 27.5 74t79.5 30q51 0 78.5 -29.5t27.5 -74.5
q0 -43 -28.5 -73t-77.5 -30zM290 758q-19 0 -31 -14.5t-12 -36.5q0 -20 12.5 -34.5t29.5 -14.5q19 0 32 13.5t13 35.5t-12.5 36.5t-31.5 14.5z" />
    <glyph glyph-name="Uhungarumlaut" unicode="&#x170;" horiz-adv-x="684" 
d="M70 307v373h32q33 0 46.5 -16t13.5 -56v-293q0 -126 43.5 -183t139.5 -57t136.5 54.5t40.5 177.5v373h35q57 0 57 -67v-298q0 -156 -70.5 -240.5t-204.5 -84.5q-133 0 -201 82t-68 235zM454 809q-20 -16 -57.5 -34.5t-55.5 -21.5h-4q14 39 48 94q42 66 80 66q21 0 29 -7
t8 -25q0 -34 -48 -72zM284 809q-20 -16 -57.5 -34.5t-55.5 -21.5h-5q15 41 49 94q40 66 80 66q21 0 29 -7t8 -25q0 -32 -48 -72z" />
    <glyph glyph-name="uhungarumlaut" unicode="&#x171;" horiz-adv-x="582" 
d="M512 230q0 -117 -58 -178.5t-166 -61.5q-100 0 -159 66t-59 182v297h28q63 0 63 -71v-221q0 -80 36.5 -123.5t96.5 -43.5q64 0 95.5 39t31.5 124v296h25q66 0 66 -71v-234zM406 684q-20 -16 -57.5 -34.5t-55.5 -21.5h-4q14 39 48 94q42 66 80 66q21 0 29 -7t8 -25
q0 -34 -48 -72zM236 684q-20 -16 -57.5 -34.5t-55.5 -21.5h-5q15 41 49 94q40 66 80 66q21 0 29 -7t8 -25q0 -32 -48 -72z" />
    <glyph glyph-name="Uogonek" unicode="&#x172;" horiz-adv-x="684" 
d="M400 -203q-50 0 -78.5 23t-28.5 62q0 32 21 61t53 48q-5 0 -14 -0.5t-14 -0.5q-133 0 -201 82t-68 235v373h32q33 0 46.5 -16t13.5 -56v-293q0 -126 43.5 -183t139.5 -57t136.5 54.5t40.5 177.5v373h35q57 0 57 -67v-298q0 -121 -44 -199.5t-126 -109.5q-23 -9 -41 -24
q-30 -27 -39 -42.5t-9 -45.5q0 -22 17.5 -35t44.5 -13q34 0 72 20v-19q0 -50 -89 -50z" />
    <glyph glyph-name="uogonek" unicode="&#x173;" horiz-adv-x="582" 
d="M345 -203q-50 0 -78.5 23t-28.5 62q0 63 74 109q-8 -1 -24 -1q-100 0 -159 66t-59 182v297h28q63 0 63 -71v-221q0 -80 36.5 -123.5t96.5 -43.5q64 0 95.5 39t31.5 124v296h25q66 0 66 -71v-234q0 -174 -125 -223q-23 -10 -39 -25q-29 -27 -38.5 -43t-9.5 -45
q0 -22 17 -35t45 -13q34 0 72 20v-19q0 -50 -89 -50z" />
    <glyph glyph-name="Wcircumflex" unicode="&#x174;" horiz-adv-x="888" 
d="M900 583q-58 -305 -205 -588h-23q-25 0 -43 32q-41 77 -84.5 202.5t-70.5 261.5q-30 -140 -79.5 -285.5t-86.5 -210.5h-20q-17 0 -31 10.5t-20 21.5q-146 287 -199 653h48q22 0 37.5 -17.5t19.5 -42.5q47 -272 140 -492q44 112 86 258.5t56 220.5l10 51h26q35 0 49 -15
t24 -62q52 -253 140 -453q52 127 94 278t56 274h47q16 0 26.5 -11.5t10.5 -31.5q0 -6 -8 -54zM624 720l-153 78l-150 -78v40q0 39 32 57l119 69l117 -68q35 -21 35 -58v-40z" />
    <glyph glyph-name="wcircumflex" unicode="&#x175;" horiz-adv-x="824" 
d="M794 490q0 -46 -5 -71q-25 -112 -72.5 -227.5t-100.5 -200.5h-18q-34 0 -50 27q-42 71 -81.5 170.5t-49.5 178.5q-15 -84 -61.5 -201t-87.5 -176h-19q-30 0 -47 28q-136 235 -174 517h48q23 0 38.5 -15.5t18.5 -36.5q31 -201 113 -368q75 140 137 406h29q49 0 61 -54
q46 -213 120 -352q41 79 79 207.5t45 212.5h28q22 0 35.5 -12t13.5 -33zM569 594l-153 78l-150 -78v40q0 39 32 57l119 69l117 -68q35 -21 35 -58v-40z" />
    <glyph glyph-name="Ycircumflex" unicode="&#x176;" horiz-adv-x="553" 
d="M541 643q0 -31 -78.5 -160t-136.5 -198v-285h-34q-58 0 -58 55v229q-63 84 -125 194.5t-94 201.5h47q49 0 69 -49q55 -130 156 -277q128 183 180 326h38q36 0 36 -37zM438 720l-153 78l-150 -78v40q0 39 32 57l119 69l117 -68q35 -21 35 -58v-40z" />
    <glyph glyph-name="ycircumflex" unicode="&#x177;" horiz-adv-x="531" 
d="M498 438q-10 -38 -24.5 -81t-28 -76t-32.5 -75l-29 -63l-27.5 -55t-18.5 -37q-64 -130 -109 -178.5t-102 -48.5q-30 0 -49.5 14t-19.5 32v34h43q35 0 61.5 22.5t69.5 104.5q-67 102 -124.5 240t-81.5 264h52q43 0 56 -54q45 -199 145 -364q44 76 91.5 204.5t60.5 213.5
h36q42 0 42 -41q0 -15 -11 -56zM432 594l-153 78l-150 -78v40q0 39 32 57l119 69l117 -68q35 -21 35 -58v-40z" />
    <glyph glyph-name="Ydieresis" unicode="&#x178;" horiz-adv-x="553" 
d="M541 643q0 -31 -78.5 -160t-136.5 -198v-285h-34q-58 0 -58 55v229q-63 84 -125 194.5t-94 201.5h47q49 0 69 -49q55 -130 156 -277q128 183 180 326h38q36 0 36 -37zM123 814q0 25 18 42.5t43 17.5t42.5 -17.5t17.5 -42.5t-17.5 -43t-42.5 -18t-43 18t-18 43zM330 814
q0 25 18 42.5t43 17.5t42.5 -17.5t17.5 -42.5t-17.5 -43t-42.5 -18t-43 18t-18 43z" />
    <glyph glyph-name="Zacute" unicode="&#x179;" horiz-adv-x="589" 
d="M537 49q0 -21 -16.5 -35t-41.5 -14h-361q-26 0 -42 14t-16 36q0 34 23 74.5t84 117.5l193 245q54 69 62 110h-367v19q0 32 16.5 48t61.5 16h352q15 0 29.5 -14.5t14.5 -36.5q0 -58 -86 -168l-191 -244q-71 -91 -91 -134h376v-34zM226 753v6q19 40 75 96q41 41 84 41
q19 0 30 -11.5t11 -28.5q0 -41 -64 -70q-73 -33 -120 -33h-16z" />
    <glyph glyph-name="zacute" unicode="&#x17a;" horiz-adv-x="502" 
d="M462 49q0 -22 -17.5 -35.5t-45.5 -13.5h-297q-25 0 -41.5 14t-16.5 37q0 27 16.5 56.5t59.5 77.5l182 204q34 37 44 63h-306v31q0 23 15.5 37.5t39.5 14.5h305q24 0 39.5 -12.5t15.5 -37.5q0 -49 -75 -133l-173 -192q-31 -35 -54 -77h309v-34zM189 628v6q19 40 75 96
q41 41 84 41q19 0 30 -11.5t11 -28.5q0 -41 -64 -70q-73 -33 -120 -33h-16z" />
    <glyph glyph-name="Zdotaccent" unicode="&#x17b;" horiz-adv-x="589" 
d="M537 49q0 -21 -16.5 -35t-41.5 -14h-361q-26 0 -42 14t-16 36q0 34 23 74.5t84 117.5l193 245q54 69 62 110h-367v19q0 32 16.5 48t61.5 16h352q15 0 29.5 -14.5t14.5 -36.5q0 -58 -86 -168l-191 -244q-71 -91 -91 -134h376v-34zM249 811q0 23 17 39.5t40 16.5
t39.5 -16.5t16.5 -39.5t-16.5 -40t-39.5 -17t-40 17t-17 40z" />
    <glyph glyph-name="zdotaccent" unicode="&#x17c;" horiz-adv-x="502" 
d="M462 49q0 -22 -17.5 -35.5t-45.5 -13.5h-297q-25 0 -41.5 14t-16.5 37q0 27 16.5 56.5t59.5 77.5l182 204q34 37 44 63h-306v31q0 23 15.5 37.5t39.5 14.5h305q24 0 39.5 -12.5t15.5 -37.5q0 -49 -75 -133l-173 -192q-31 -35 -54 -77h309v-34zM204 678q0 23 17 39.5
t40 16.5t39.5 -16.5t16.5 -39.5t-16.5 -40t-39.5 -17t-40 17t-17 40z" />
    <glyph glyph-name="Zcaron" unicode="&#x17d;" horiz-adv-x="589" 
d="M537 49q0 -21 -16.5 -35t-41.5 -14h-361q-26 0 -42 14t-16 36q0 34 23 74.5t84 117.5l193 245q54 69 62 110h-367v19q0 32 16.5 48t61.5 16h352q15 0 29.5 -14.5t14.5 -36.5q0 -58 -86 -168l-191 -244q-71 -91 -91 -134h376v-34zM153 921l153 -78l150 78v-40
q0 -39 -32 -57l-119 -69l-117 68q-35 21 -35 58v40z" />
    <glyph glyph-name="zcaron" unicode="&#x17e;" horiz-adv-x="502" 
d="M462 49q0 -22 -17.5 -35.5t-45.5 -13.5h-297q-25 0 -41.5 14t-16.5 37q0 27 16.5 56.5t59.5 77.5l182 204q34 37 44 63h-306v31q0 23 15.5 37.5t39.5 14.5h305q24 0 39.5 -12.5t15.5 -37.5q0 -49 -75 -133l-173 -192q-31 -35 -54 -77h309v-34zM107 784l153 -78l150 78
v-40q0 -39 -32 -57l-119 -69l-117 68q-35 21 -35 58v40z" />
    <glyph glyph-name="longs" unicode="&#x17f;" horiz-adv-x="324" 
d="M354 607h-5q-31 27 -80 27q-52 0 -75.5 -25.5t-23.5 -83.5v-705h-34q-56 0 -56 65v650q0 75 48.5 130t128.5 55q44 0 70.5 -20.5t26.5 -44.5v-48z" />
    <glyph glyph-name="uni018F" unicode="&#x18f;" horiz-adv-x="681" 
d="M56 224q0 93 59.5 130.5t226.5 37.5h190q-11 102 -70.5 157.5t-168.5 55.5q-121 0 -204 -71h-6v28q0 55 59 91t168 36q138 0 227 -95t89 -241q0 -165 -87 -264t-228 -99q-101 0 -178 68t-77 166zM148 229q0 -66 45.5 -110.5t130.5 -44.5q86 0 144 63.5t63 138.5l2 33
l-171 -2q-91 -1 -137 -9t-61.5 -23.5t-15.5 -45.5z" />
    <glyph glyph-name="florin" unicode="&#x192;" 
d="M454 616q-89 0 -101 -88l-17 -121h140v-28q0 -15 -16 -28t-51 -13h-80l-28 -240q-14 -117 -52.5 -163.5t-108.5 -46.5q-39 0 -59.5 15t-20.5 35v42h5q31 -14 59 -14q46 0 65 24t27 95l28 253h-119v26q0 16 14.5 29.5t34.5 13.5h79l15 114q23 173 177 173q30 0 49.5 -16.5
t19.5 -38.5v-42h-5q-26 19 -55 19z" />
    <glyph glyph-name="uni01B5" unicode="&#x1b5;" horiz-adv-x="589" 
d="M537 49q0 -21 -16.5 -35t-41.5 -14h-361q-26 0 -42 14t-16 36q0 34 23 74.5t84 117.5l55 70h-114v22q0 42 62 42h102l88 111q54 69 62 110h-367v19q0 32 16.5 48t61.5 16h352q15 0 29.5 -14.5t14.5 -36.5q0 -58 -86 -168l-67 -85h116v-26q0 -38 -54 -38h-112l-74 -95
q-71 -91 -91 -134h376v-34z" />
    <glyph glyph-name="uni01B6" unicode="&#x1b6;" horiz-adv-x="502" 
d="M462 49q0 -22 -17.5 -35.5t-45.5 -13.5h-297q-25 0 -41.5 14t-16.5 37q0 27 16.5 56.5t59.5 77.5l51 57h-76v22q0 42 62 42h71l74 83q34 37 44 63h-306v31q0 23 15.5 37.5t39.5 14.5h305q24 0 39.5 -12.5t15.5 -37.5q0 -49 -75 -133l-42 -46h77v-26q0 -38 -54 -38h-80
l-74 -82q-31 -35 -54 -77h309v-34z" />
    <glyph glyph-name="uni01C4" unicode="&#x1c4;" horiz-adv-x="1259" 
d="M615 347q0 -157 -85.5 -254.5t-219.5 -97.5h-61q-84 0 -129 39t-45 106v525q76 20 152 20h85q127 0 215 -94t88 -244zM523 333q0 134 -61 202t-172 68h-39q-39 0 -84 -9v-429q0 -88 96 -88h37q104 0 163.5 70t59.5 186zM1207 49q0 -21 -16.5 -35t-41.5 -14h-361
q-26 0 -42 14t-16 36q0 34 23 74.5t84 117.5l193 245q54 69 62 110h-367v19q0 32 16.5 48t61.5 16h352q15 0 29.5 -14.5t14.5 -36.5q0 -58 -86 -168l-191 -244q-71 -91 -91 -134h376v-34zM823 921l153 -78l150 78v-40q0 -39 -32 -57l-119 -69l-117 68q-35 21 -35 58v40z" />
    <glyph glyph-name="uni01C5" unicode="&#x1c5;" horiz-adv-x="1172" 
d="M615 347q0 -157 -85.5 -254.5t-219.5 -97.5h-61q-84 0 -129 39t-45 106v525q76 20 152 20h85q127 0 215 -94t88 -244zM523 333q0 134 -61 202t-172 68h-39q-39 0 -84 -9v-429q0 -88 96 -88h37q104 0 163.5 70t59.5 186zM1132 49q0 -22 -17.5 -35.5t-45.5 -13.5h-297
q-25 0 -41.5 14t-16.5 37q0 27 16.5 56.5t59.5 77.5l182 204q34 37 44 63h-306v31q0 23 15.5 37.5t39.5 14.5h305q24 0 39.5 -12.5t15.5 -37.5q0 -49 -75 -133l-173 -192q-31 -35 -54 -77h309v-34zM777 784l153 -78l150 78v-40q0 -39 -32 -57l-119 -69l-117 68
q-35 21 -35 58v40z" />
    <glyph glyph-name="uni01C6" unicode="&#x1c6;" horiz-adv-x="1114" 
d="M542 283q0 -153 -58 -223t-184 -70q-100 0 -172.5 79.5t-72.5 190.5q0 137 61.5 211t172.5 74q109 0 161 -103v278h24q68 0 68 -74v-363zM449 258q0 202 -157 202q-69 0 -107 -50.5t-38 -141.5q0 -81 45.5 -137t115.5 -56q74 0 107.5 43t33.5 140zM1074 49
q0 -22 -17.5 -35.5t-45.5 -13.5h-297q-25 0 -41.5 14t-16.5 37q0 27 16.5 56.5t59.5 77.5l182 204q34 37 44 63h-306v31q0 23 15.5 37.5t39.5 14.5h305q24 0 39.5 -12.5t15.5 -37.5q0 -49 -75 -133l-173 -192q-31 -35 -54 -77h309v-34zM719 784l153 -78l150 78v-40
q0 -39 -32 -57l-119 -69l-117 68q-35 21 -35 58v40z" />
    <glyph glyph-name="uni01C7" unicode="&#x1c7;" horiz-adv-x="911" 
d="M496 69q0 -36 -27.5 -55t-105.5 -19h-57q-226 0 -226 244v442h33q29 0 43.5 -15t14.5 -53v-350q0 -109 30.5 -145.5t123.5 -36.5h38q80 0 133 15v-27zM836 200q0 -100 -51 -155t-146 -55q-49 0 -82.5 24t-33.5 62v37h5q13 -15 44 -26t64 -11q57 0 83 29t26 91v484h32
q59 0 59 -60v-420z" />
    <glyph glyph-name="uni01C8" unicode="&#x1c8;" horiz-adv-x="813" 
d="M496 69q0 -36 -27.5 -55t-105.5 -19h-57q-226 0 -226 244v442h33q29 0 43.5 -15t14.5 -53v-350q0 -109 30.5 -145.5t123.5 -36.5h38q80 0 133 15v-27zM738 671q0 -26 -18 -44t-43 -18t-43.5 18.5t-18.5 43.5q0 26 18.5 44.5t43.5 18.5t43 -18.5t18 -44.5zM720 -10
q0 -79 -41.5 -124.5t-118.5 -45.5q-34 0 -53 14t-19 32v31l56 4q85 6 85 93v541h28q35 0 49 -16t14 -55v-474z" />
    <glyph glyph-name="uni01C9" unicode="&#x1c9;" horiz-adv-x="635" 
d="M315 50q0 -54 -73 -54q-162 0 -162 159v565h28q29 0 46.5 -18t17.5 -52v-484q0 -47 21.5 -66.5t62.5 -19.5h59v-30zM560 671q0 -26 -18 -44t-43 -18t-43.5 18.5t-18.5 43.5q0 26 18.5 44.5t43.5 18.5t43 -18.5t18 -44.5zM542 -10q0 -79 -41.5 -124.5t-118.5 -45.5
q-34 0 -53 14t-19 32v31l56 4q85 6 85 93v541h28q35 0 49 -16t14 -55v-474z" />
    <glyph glyph-name="uni01CA" unicode="&#x1ca;" horiz-adv-x="1078" 
d="M605 0h-28q-51 0 -94.5 38t-94.5 141l-144 291q-38 78 -75 113v-583h-38q-22 0 -36.5 16.5t-14.5 45.5v619h44q107 0 174 -136l144 -292l18 -37.5l19 -39.5t18 -32.5t22 -31.5v568h38q20 0 34 -13.5t14 -34.5v-632zM1003 200q0 -100 -51 -155t-146 -55q-49 0 -82.5 24
t-33.5 62v37h5q13 -15 44 -26t64 -11q57 0 83 29t26 91v484h32q59 0 59 -60v-420z" />
    <glyph glyph-name="uni01CB" unicode="&#x1cb;" horiz-adv-x="1000" 
d="M605 0h-28q-51 0 -94.5 38t-94.5 141l-144 291q-38 78 -75 113v-583h-38q-22 0 -36.5 16.5t-14.5 45.5v619h44q107 0 174 -136l144 -292l18 -37.5l19 -39.5t18 -32.5t22 -31.5v568h38q20 0 34 -13.5t14 -34.5v-632zM925 671q0 -26 -18 -44t-43 -18q-26 0 -44 18.5
t-18 43.5q0 26 18.5 44.5t43.5 18.5t43 -18.5t18 -44.5zM907 -10q0 -79 -41.5 -124.5t-118.5 -45.5q-34 0 -53 14t-19 32v31l56 4q85 6 85 93v541h28q35 0 49 -16t14 -55v-474z" />
    <glyph glyph-name="uni01CC" unicode="&#x1cc;" horiz-adv-x="897" 
d="M512 0h-33q-57 0 -57 59v246q0 83 -32 118.5t-104 35.5q-126 0 -126 -154v-305h-34q-26 0 -41 15.5t-15 46.5v245q0 111 61.5 174.5t165.5 63.5q103 0 159 -59.5t56 -177.5v-308zM822 671q0 -26 -18 -44t-43 -18t-43.5 18.5t-18.5 43.5q0 26 18.5 44.5t43.5 18.5
t43 -18.5t18 -44.5zM804 -10q0 -79 -41.5 -124.5t-118.5 -45.5q-34 0 -53 14t-19 32v31l56 4q85 6 85 93v541h28q35 0 49 -16t14 -55v-474z" />
    <glyph glyph-name="uni01F1" unicode="&#x1f1;" horiz-adv-x="1259" 
d="M615 347q0 -157 -85.5 -254.5t-219.5 -97.5h-61q-84 0 -129 39t-45 106v525q76 20 152 20h85q127 0 215 -94t88 -244zM523 333q0 134 -61 202t-172 68h-39q-39 0 -84 -9v-429q0 -88 96 -88h37q104 0 163.5 70t59.5 186zM1207 49q0 -21 -16.5 -35t-41.5 -14h-361
q-26 0 -42 14t-16 36q0 34 23 74.5t84 117.5l193 245q54 69 62 110h-367v19q0 32 16.5 48t61.5 16h352q15 0 29.5 -14.5t14.5 -36.5q0 -58 -86 -168l-191 -244q-71 -91 -91 -134h376v-34z" />
    <glyph glyph-name="uni01F2" unicode="&#x1f2;" horiz-adv-x="1172" 
d="M615 347q0 -157 -85.5 -254.5t-219.5 -97.5h-61q-84 0 -129 39t-45 106v525q76 20 152 20h85q127 0 215 -94t88 -244zM523 333q0 134 -61 202t-172 68h-39q-39 0 -84 -9v-429q0 -88 96 -88h37q104 0 163.5 70t59.5 186zM1132 49q0 -22 -17.5 -35.5t-45.5 -13.5h-297
q-25 0 -41.5 14t-16.5 37q0 27 16.5 56.5t59.5 77.5l182 204q34 37 44 63h-306v31q0 23 15.5 37.5t39.5 14.5h305q24 0 39.5 -12.5t15.5 -37.5q0 -49 -75 -133l-173 -192q-31 -35 -54 -77h309v-34z" />
    <glyph glyph-name="uni01F3" unicode="&#x1f3;" horiz-adv-x="1114" 
d="M542 283q0 -153 -58 -223t-184 -70q-100 0 -172.5 79.5t-72.5 190.5q0 137 61.5 211t172.5 74q109 0 161 -103v278h24q68 0 68 -74v-363zM449 258q0 202 -157 202q-69 0 -107 -50.5t-38 -141.5q0 -81 45.5 -137t115.5 -56q74 0 107.5 43t33.5 140zM1074 49
q0 -22 -17.5 -35.5t-45.5 -13.5h-297q-25 0 -41.5 14t-16.5 37q0 27 16.5 56.5t59.5 77.5l182 204q34 37 44 63h-306v31q0 23 15.5 37.5t39.5 14.5h305q24 0 39.5 -12.5t15.5 -37.5q0 -49 -75 -133l-173 -192q-31 -35 -54 -77h309v-34z" />
    <glyph glyph-name="Aringacute" unicode="&#x1fa;" horiz-adv-x="597" 
d="M582 0h-35q-56 0 -63 48q-3 22 -30 132h-318q-28 -109 -41 -180h-36q-41 0 -41 44q0 69 70.5 272.5t140.5 317.5q-44 29 -44 85q0 44 27.5 74t79.5 30q51 0 78.5 -29.5t27.5 -74.5q0 -52 -39 -82q9 -10 22 -33q51 -90 114 -270.5t87 -333.5zM292 770q-19 0 -31 -14.5
t-12 -36.5q0 -20 12.5 -34.5t29.5 -14.5q19 0 32 13.5t13 35.5t-12.5 36.5t-31.5 14.5zM431 253q-47 181 -137 345q-81 -145 -137 -345h274zM253 853v6q19 40 75 96q41 41 84 41q19 0 30 -11.5t11 -28.5q0 -41 -64 -70q-73 -33 -120 -33h-16z" />
    <glyph glyph-name="aringacute" unicode="&#x1fb;" horiz-adv-x="535" 
d="M468 176q0 -86 -50.5 -136t-157.5 -50q-84 0 -144 44.5t-60 113.5q0 86 64.5 132t184.5 46h72v25q0 58 -30 84t-96 26q-117 0 -170 -73h-5v44q0 41 50 77t134 36q102 0 155 -51.5t53 -149.5v-168zM378 183v67h-73q-156 0 -156 -92q0 -36 32 -60t83 -24q61 0 87.5 25.5
t26.5 83.5zM267 604q-51 0 -79 30t-28 73q0 44 27.5 74t79.5 30q51 0 78.5 -29.5t27.5 -74.5q0 -43 -28.5 -73t-77.5 -30zM267 758q-19 0 -31 -14.5t-12 -36.5q0 -20 12.5 -34.5t29.5 -14.5q19 0 32 13.5t13 35.5t-12.5 36.5t-31.5 14.5zM208 841v6q19 40 75 96q41 41 84 41
q19 0 30 -11.5t11 -28.5q0 -41 -64 -70q-73 -33 -120 -33h-16z" />
    <glyph glyph-name="AEacute" unicode="&#x1fc;" horiz-adv-x="865" 
d="M704 -9h-64q-105 0 -157.5 46.5t-63.5 148.5h-270q-20 -51 -61 -186h-39q-34 0 -34 32q0 12 1 20q12 87 116 313.5t187 314.5h515v-31q0 -24 -19.5 -38.5t-55.5 -14.5h-312q25 -124 36 -206h279v-33q0 -25 -14.5 -36.5t-50.5 -11.5h-206l11 -90q10 -82 41.5 -113
t103.5 -31h57q72 0 131 21v-27q0 -41 -28.5 -59.5t-102.5 -18.5zM353 602q-94 -139 -171 -343h225q-5 58 -22.5 172.5t-31.5 170.5zM332 753v6q19 40 75 96q41 41 84 41q19 0 30 -11.5t11 -28.5q0 -41 -64 -70q-73 -33 -120 -33h-16z" />
    <glyph glyph-name="aeacute" unicode="&#x1fd;" horiz-adv-x="872" 
d="M817 359q0 -72 -45 -99t-175 -27h-127q0 -70 46.5 -113.5t117.5 -43.5q107 0 158 55h5v-31q0 -51 -45 -80.5t-131 -29.5q-60 0 -115 29t-78 73q-55 -101 -175 -101q-84 0 -141 42.5t-57 112.5q0 177 250 177h72v26q0 58 -30.5 83t-96.5 25q-115 0 -166 -71h-8v38
q0 48 51.5 83.5t131.5 35.5q122 0 179 -96q28 46 75.5 72t101.5 26q80 0 141 -55.5t61 -130.5zM378 187v60h-73q-151 0 -151 -89q0 -37 29 -60t74 -23q58 0 89.5 29.5t31.5 82.5zM725 354q0 51 -31.5 79.5t-86.5 28.5q-63 0 -100 -45.5t-37 -109.5l102 1q69 1 101 5.5t42 13
t10 27.5zM336 628v6q19 40 75 96q41 41 84 41q19 0 30 -11.5t11 -28.5q0 -41 -64 -70q-73 -33 -120 -33h-16z" />
    <glyph glyph-name="Oslashacute" unicode="&#x1fe;" horiz-adv-x="732" 
d="M671 349q0 -160 -83 -259.5t-230 -99.5q-102 0 -179 60l-45 -60h-21q-8 0 -14.5 8t-6.5 22q0 16 25 49l17 24q-78 92 -78 239q0 162 79.5 260t233.5 98q99 0 175 -57l43 57h20q13 0 19 -7.5t6 -16.5q0 -16 -13 -33l-31 -41q83 -96 83 -243zM494 567q-52 39 -136 39
q-99 0 -155 -65t-56 -192q0 -119 41 -185zM581 332q0 124 -45 191l-306 -406q54 -43 139 -43q97 0 154.5 70t57.5 188zM315 753v6q19 40 75 96q41 41 84 41q19 0 30 -11.5t11 -28.5q0 -41 -64 -70q-73 -33 -120 -33h-16z" />
    <glyph glyph-name="oslashacute" unicode="&#x1ff;" horiz-adv-x="599" 
d="M139 -21h-20q-9 0 -19.5 8t-10.5 21q0 18 10 33l21 30q-65 75 -65 187q0 132 67 209t181 77q71 0 127 -34l32 45h20q13 0 21.5 -12t8.5 -24q0 -11 -5 -18l-26 -36q62 -73 62 -187q0 -134 -65 -211t-175 -77q-73 0 -131 36zM174 148l206 291q-35 22 -90 22q-65 0 -105 -50
t-40 -134q0 -81 29 -129zM427 387l-205 -290q38 -24 90 -24q67 0 104 51t37 133t-26 130zM245 628v6q19 40 75 96q41 41 84 41q19 0 30 -11.5t11 -28.5q0 -41 -64 -70q-73 -33 -120 -33h-16z" />
    <glyph glyph-name="Scommaaccent" unicode="&#x218;" horiz-adv-x="579" 
d="M272 -10q-76 0 -140 39.5t-64 95.5v44h5q31 -42 86.5 -67.5t119.5 -25.5q84 0 119 28.5t35 82.5q0 53 -36 79t-141 49q-103 23 -150.5 61t-47.5 109q0 89 70 147t188 58q90 0 142.5 -38t52.5 -88v-41h-5q-64 81 -195 81q-75 0 -116 -27.5t-41 -77.5q0 -48 32 -70.5
t133 -45.5q40 -9 74 -23t66 -36t50.5 -54.5t18.5 -72.5q0 -90 -65.5 -148.5t-190.5 -58.5zM353 -86l-37 -129l-31 9q-38 12 -38 43q0 9 2 16l35 122l34 -10q37 -10 37 -39q0 -4 -2 -12z" />
    <glyph glyph-name="scommaaccent" unicode="&#x219;" horiz-adv-x="488" 
d="M434 162q0 -82 -57.5 -127t-151.5 -45q-69 0 -115.5 29.5t-46.5 76.5v39h5q24 -26 66.5 -43t92.5 -17q114 0 114 78q0 35 -26.5 52.5t-114.5 36.5q-78 16 -112.5 46.5t-34.5 88.5q0 69 58 118.5t154 49.5q63 0 109.5 -27.5t46.5 -73.5v-40h-5q-18 22 -58.5 38.5
t-85.5 16.5q-127 0 -127 -76q0 -28 25 -42.5t106 -32.5q158 -34 158 -146zM301 -86l-37 -129l-31 9q-38 12 -38 43q0 9 2 16l35 122l34 -10q37 -10 37 -39q0 -4 -2 -12z" />
    <glyph glyph-name="uni021A" unicode="&#x21a;" horiz-adv-x="523" 
d="M518 646q0 -16 -15.5 -32.5t-37.5 -16.5h-160v-597h-34q-31 0 -45 12.5t-14 45.5v539h-207v34q0 21 14.5 35.5t43.5 14.5h455v-35zM312 -86l-37 -129l-31 9q-38 12 -38 43q0 9 2 16l35 122l34 -10q37 -10 37 -39q0 -4 -2 -12z" />
    <glyph glyph-name="uni021B" unicode="&#x21b;" horiz-adv-x="374" 
d="M170 644v-110h184v-30q0 -55 -70 -55h-113v-265q0 -108 88 -108q60 0 84 15h5v-32q0 -69 -97 -69q-88 0 -129.5 46t-41.5 139v348q0 49 23 83q9 14 27.5 26t28.5 12h11zM298 -86l-37 -129l-31 9q-38 12 -38 43q0 9 2 16l35 122l34 -10q37 -10 37 -39q0 -4 -2 -12z" />
    <glyph glyph-name="dotlessj" unicode="&#x237;" horiz-adv-x="315" 
d="M222 -10q0 -79 -41.5 -124.5t-118.5 -45.5q-34 0 -53 14t-19 32v31l56 4q85 6 85 93v541h28q35 0 49 -16t14 -55v-474z" />
    <glyph glyph-name="uni0259" unicode="&#x259;" horiz-adv-x="562" 
d="M55 176q0 73 47 103t180 30h132q-7 68 -52.5 110t-118.5 42q-105 0 -162 -55h-5v40q0 44 46.5 71.5t133.5 27.5q110 0 180.5 -75.5t70.5 -191.5q0 -128 -71 -208t-179 -80q-80 0 -141 54t-61 132zM143 181q0 -46 32 -77.5t92 -31.5q63 0 104 44t43 99l1 22l-121 -2
q-94 -1 -122.5 -12t-28.5 -42z" />
    <glyph glyph-name="circumflex" unicode="&#x2c6;" horiz-adv-x="607" 
d="M455 604l-153 78l-150 -78v40q0 39 32 57l119 69l117 -68q35 -21 35 -58v-40z" />
    <glyph glyph-name="caron" unicode="&#x2c7;" horiz-adv-x="597" 
d="M147 784l153 -78l150 78v-40q0 -39 -32 -57l-119 -69l-117 68q-35 21 -35 58v40z" />
    <glyph glyph-name="breve" unicode="&#x2d8;" horiz-adv-x="594" 
d="M297 617q-130 0 -130 123v2q59 -55 131 -55q70 0 129 55v-7q0 -118 -130 -118z" />
    <glyph glyph-name="dotaccent" unicode="&#x2d9;" horiz-adv-x="407" 
d="M147 685q0 23 17 39.5t40 16.5t39.5 -16.5t16.5 -39.5t-16.5 -40t-39.5 -17t-40 17t-17 40z" />
    <glyph glyph-name="ring" unicode="&#x2da;" horiz-adv-x="413" 
d="M207 604q-51 0 -79 30t-28 73q0 44 27.5 74t79.5 30q51 0 78.5 -29.5t27.5 -74.5q0 -43 -28.5 -73t-77.5 -30zM207 758q-19 0 -31 -14.5t-12 -36.5q0 -20 12.5 -34.5t29.5 -14.5q19 0 32 13.5t13 35.5t-12.5 36.5t-31.5 14.5z" />
    <glyph glyph-name="ogonek" unicode="&#x2db;" horiz-adv-x="480" 
d="M254 -203q-50 0 -78.5 23t-28.5 62q0 36 26.5 67.5t64.5 50.5l14 8h34l-29 -26q-29 -27 -38.5 -43t-9.5 -45q0 -22 17.5 -35t44.5 -13q34 0 72 20v-19q0 -50 -89 -50z" />
    <glyph glyph-name="tilde" unicode="&#x2dc;" horiz-adv-x="416" 
d="M267 623q-16 0 -36.5 11t-33.5 25q-31 33 -50 33q-40 0 -40 -70h-28q-10 0 -20.5 11t-10.5 30q0 48 30 73.5t67 25.5q38 0 67 -31q36 -38 55 -38q41 0 41 70h29q11 0 21 -11.5t10 -30.5q0 -45 -28.5 -71.5t-72.5 -26.5z" />
    <glyph glyph-name="hungarumlaut" unicode="&#x2dd;" horiz-adv-x="372" 
d="M308 673q-20 -16 -57.5 -34.5t-55.5 -21.5h-4q14 39 48 94q42 66 80 66q21 0 29 -7t8 -25q0 -34 -48 -72zM138 673q-20 -16 -57.5 -34.5t-55.5 -21.5h-5q15 41 49 94q40 66 80 66q21 0 29 -7t8 -25q0 -32 -48 -72z" />
    <glyph glyph-name="uni0394" unicode="&#x394;" horiz-adv-x="606" 
d="M582 0h-522q-41 0 -41 44q0 80 83.5 313.5t156.5 322.5h30q28 0 48.5 -18t43.5 -58q51 -90 114 -270.5t87 -333.5zM481 73q-35 126 -91.5 289.5t-95.5 235.5q-42 -76 -96.5 -235.5t-90.5 -289.5h374z" />
    <glyph glyph-name="uni03A9" unicode="&#x3a9;" horiz-adv-x="768" 
d="M45 83h124q-100 91 -100 259q0 160 83 259t230 99q136 0 219 -94.5t83 -246.5q0 -177 -101 -276h124v-34q0 -21 -16.5 -35t-41.5 -14h-199v82q69 27 106 95t37 165q0 138 -54 206t-168 68q-99 0 -155 -65t-56 -192q0 -122 31 -188.5t111 -88.5v-82h-199q-25 0 -41.5 14
t-16.5 35v34z" />
    <glyph glyph-name="uni03BC" unicode="&#x3bc;" 
d="M323 0q-115 0 -152 90v-238h-32q-60 0 -60 67v626h49q17 0 30 -16t13 -35v-247q0 -82 38.5 -126.5t98.5 -44.5q55 0 89.5 42t34.5 119v308h42q21 0 35.5 -15t14.5 -36v-246q0 -120 -57 -184t-144 -64z" />
    <glyph glyph-name="pi" unicode="&#x3c0;" horiz-adv-x="549" 
d="M479 451v-451h-33q-57 0 -57 59v392h-221v-451h-34q-26 0 -41 15.5t-15 46.5v389h-59v34q0 21 14.5 35.5t43.5 14.5h455v-35q0 -19 -12.5 -34t-40.5 -15z" />
    <glyph glyph-name="Wgrave" unicode="&#x1e80;" horiz-adv-x="888" 
d="M900 583q-58 -305 -205 -588h-23q-25 0 -43 32q-41 77 -84.5 202.5t-70.5 261.5q-30 -140 -79.5 -285.5t-86.5 -210.5h-20q-17 0 -31 10.5t-20 21.5q-146 287 -199 653h48q22 0 37.5 -17.5t19.5 -42.5q47 -272 140 -492q44 112 86 258.5t56 220.5l10 51h26q35 0 49 -15
t24 -62q52 -253 140 -453q52 127 94 278t56 274h47q16 0 26.5 -11.5t10.5 -31.5q0 -6 -8 -54zM572 754h-16q-47 0 -120 33q-64 29 -64 70q0 17 11 28.5t30 11.5q43 0 84 -41q56 -56 75 -96v-6z" />
    <glyph glyph-name="wgrave" unicode="&#x1e81;" horiz-adv-x="824" 
d="M794 490q0 -46 -5 -71q-25 -112 -72.5 -227.5t-100.5 -200.5h-18q-34 0 -50 27q-42 71 -81.5 170.5t-49.5 178.5q-15 -84 -61.5 -201t-87.5 -176h-19q-30 0 -47 28q-136 235 -174 517h48q23 0 38.5 -15.5t18.5 -36.5q31 -201 113 -368q75 140 137 406h29q49 0 61 -54
q46 -213 120 -352q41 79 79 207.5t45 212.5h28q22 0 35.5 -12t13.5 -33zM477 628h-16q-47 0 -120 33q-64 29 -64 70q0 17 11 28.5t30 11.5q43 0 84 -41q56 -56 75 -96v-6z" />
    <glyph glyph-name="Wacute" unicode="&#x1e82;" horiz-adv-x="888" 
d="M900 583q-58 -305 -205 -588h-23q-25 0 -43 32q-41 77 -84.5 202.5t-70.5 261.5q-30 -140 -79.5 -285.5t-86.5 -210.5h-20q-17 0 -31 10.5t-20 21.5q-146 287 -199 653h48q22 0 37.5 -17.5t19.5 -42.5q47 -272 140 -492q44 112 86 258.5t56 220.5l10 51h26q35 0 49 -15
t24 -62q52 -253 140 -453q52 127 94 278t56 274h47q16 0 26.5 -11.5t10.5 -31.5q0 -6 -8 -54zM373 753v6q19 40 75 96q41 41 84 41q19 0 30 -11.5t11 -28.5q0 -41 -64 -70q-73 -33 -120 -33h-16z" />
    <glyph glyph-name="wacute" unicode="&#x1e83;" horiz-adv-x="824" 
d="M794 490q0 -46 -5 -71q-25 -112 -72.5 -227.5t-100.5 -200.5h-18q-34 0 -50 27q-42 71 -81.5 170.5t-49.5 178.5q-15 -84 -61.5 -201t-87.5 -176h-19q-30 0 -47 28q-136 235 -174 517h48q23 0 38.5 -15.5t18.5 -36.5q31 -201 113 -368q75 140 137 406h29q49 0 61 -54
q46 -213 120 -352q41 79 79 207.5t45 212.5h28q22 0 35.5 -12t13.5 -33zM328 628v6q19 40 75 96q41 41 84 41q19 0 30 -11.5t11 -28.5q0 -41 -64 -70q-73 -33 -120 -33h-16z" />
    <glyph glyph-name="Wdieresis" unicode="&#x1e84;" horiz-adv-x="888" 
d="M900 583q-58 -305 -205 -588h-23q-25 0 -43 32q-41 77 -84.5 202.5t-70.5 261.5q-30 -140 -79.5 -285.5t-86.5 -210.5h-20q-17 0 -31 10.5t-20 21.5q-146 287 -199 653h48q22 0 37.5 -17.5t19.5 -42.5q47 -272 140 -492q44 112 86 258.5t56 220.5l10 51h26q35 0 49 -15
t24 -62q52 -253 140 -453q52 127 94 278t56 274h47q16 0 26.5 -11.5t10.5 -31.5q0 -6 -8 -54zM516 815q0 25 17.5 42.5t42.5 17.5t43 -17.5t18 -42.5t-18 -43t-43 -18t-42.5 18t-17.5 43zM308 815q0 25 18 42.5t43 17.5t42.5 -17.5t17.5 -42.5t-17.5 -43t-42.5 -18t-43 18
t-18 43z" />
    <glyph glyph-name="wdieresis" unicode="&#x1e85;" horiz-adv-x="824" 
d="M794 490q0 -46 -5 -71q-25 -112 -72.5 -227.5t-100.5 -200.5h-18q-34 0 -50 27q-42 71 -81.5 170.5t-49.5 178.5q-15 -84 -61.5 -201t-87.5 -176h-19q-30 0 -47 28q-136 235 -174 517h48q23 0 38.5 -15.5t18.5 -36.5q31 -201 113 -368q75 140 137 406h29q49 0 61 -54
q46 -213 120 -352q41 79 79 207.5t45 212.5h28q22 0 35.5 -12t13.5 -33zM461 680q0 25 17.5 42.5t42.5 17.5t43 -17.5t18 -42.5t-18 -43t-43 -18t-42.5 18t-17.5 43zM253 680q0 25 18 42.5t43 17.5t42.5 -17.5t17.5 -42.5t-17.5 -43t-42.5 -18t-43 18t-18 43z" />
    <glyph glyph-name="uni1E8A" unicode="&#x1e8a;" horiz-adv-x="643" 
d="M555 -8q-39 0 -72 27.5t-86 105.5l-108 160q-171 -187 -174 -285h-37q-15 0 -26 13.5t-11 26.5q0 32 10 59q27 70 106 159l87 98l-99 144l-74 106q-32 46 -41 74h55q45 0 121 -114l104 -156q155 169 188 270h31q14 0 25 -12.5t11 -33.5q0 -67 -210 -293l115 -169
q61 -89 143 -164q-22 -16 -58 -16zM265 811q0 23 17 39.5t40 16.5t39.5 -16.5t16.5 -39.5t-16.5 -40t-39.5 -17t-40 17t-17 40z" />
    <glyph glyph-name="uni1E8B" unicode="&#x1e8b;" horiz-adv-x="511" 
d="M489 30v-7q-1 -1 -5 -6t-7 -8t-8 -6.5t-11 -5.5t-14 -2q-32 0 -51.5 12t-51.5 50q-27 32 -108 153l-56 -64t-41.5 -66t-24.5 -80h-42q-15 0 -26 12t-11 31q0 28 18 67q13 27 38 60.5t45 56t54 57.5l-159 243v8h54q50 0 78 -48q13 -23 91 -145q52 54 82 95q40 56 48 98h24
q19 0 31 -14.5t12 -38.5q0 -41 -55 -107q-24 -29 -99 -106l101 -141q56 -78 94 -98zM202 678q0 23 17 39.5t40 16.5t39.5 -16.5t16.5 -39.5t-16.5 -40t-39.5 -17t-40 17t-17 40z" />
    <glyph glyph-name="Ygrave" unicode="&#x1ef2;" horiz-adv-x="553" 
d="M541 643q0 -31 -78.5 -160t-136.5 -198v-285h-34q-58 0 -58 55v229q-63 84 -125 194.5t-94 201.5h47q49 0 69 -49q55 -130 156 -277q128 183 180 326h38q36 0 36 -37zM354 754h-16q-47 0 -120 33q-64 29 -64 70q0 17 11 28.5t30 11.5q43 0 84 -41q56 -56 75 -96v-6z" />
    <glyph glyph-name="ygrave" unicode="&#x1ef3;" horiz-adv-x="531" 
d="M498 438q-10 -38 -24.5 -81t-28 -76t-32.5 -75l-29 -63l-27.5 -55t-18.5 -37q-64 -130 -109 -178.5t-102 -48.5q-30 0 -49.5 14t-19.5 32v34h43q35 0 61.5 22.5t69.5 104.5q-67 102 -124.5 240t-81.5 264h52q43 0 56 -54q45 -199 145 -364q44 76 91.5 204.5t60.5 213.5
h36q42 0 42 -41q0 -15 -11 -56zM339 628h-16q-47 0 -120 33q-64 29 -64 70q0 17 11 28.5t30 11.5q43 0 84 -41q56 -56 75 -96v-6z" />
    <glyph glyph-name="uni2007" unicode="&#x2007;" 
 />
    <glyph glyph-name="uni2008" unicode="&#x2008;" horiz-adv-x="288" 
 />
    <glyph glyph-name="uni200B" unicode="&#x200b;" horiz-adv-x="0" 
 />
    <glyph glyph-name="endash" unicode="&#x2013;" 
d="M446 268h-366v24q0 54 57 54h355v-36q0 -16 -13 -29t-33 -13z" />
    <glyph glyph-name="emdash" unicode="&#x2014;" horiz-adv-x="1019" 
d="M900 268h-845v24q0 54 58 54h833v-36q0 -16 -13 -29t-33 -13z" />
    <glyph glyph-name="quoteleft" unicode="&#x2018;" horiz-adv-x="276" 
d="M196 740v-6q-49 -51 -49 -99q0 -39 30 -59q9 -7 17 -22t8 -29q0 -27 -18.5 -45t-51.5 -18q-31 0 -52.5 28.5t-21.5 83.5q0 71 37 117t101 49z" />
    <glyph glyph-name="quoteright" unicode="&#x2019;" horiz-adv-x="276" 
d="M80 442v6q49 51 49 99q0 37 -30 59q-9 6 -17 21.5t-8 29.5q0 27 18.5 45t51.5 18q31 0 52.5 -28.5t21.5 -83.5q0 -71 -37 -117t-101 -49z" />
    <glyph glyph-name="quotesinglbase" unicode="&#x201a;" horiz-adv-x="276" 
d="M80 -156v6q49 51 49 99q0 37 -30 59q-9 6 -17 21.5t-8 29.5q0 27 18.5 45t51.5 18q31 0 52.5 -28.5t21.5 -83.5q0 -71 -37 -117t-101 -49z" />
    <glyph glyph-name="quotedblleft" unicode="&#x201c;" horiz-adv-x="430" 
d="M374 740v-6q-49 -51 -49 -99q0 -37 30 -59q9 -6 17 -21.5t8 -29.5q0 -27 -18.5 -45t-51.5 -18q-31 0 -52.5 28.5t-21.5 83.5q0 71 37 117t101 49zM176 740v-6q-49 -51 -49 -99q0 -37 30 -59q9 -6 17 -21.5t8 -29.5q0 -27 -18.5 -45t-51.5 -18q-31 0 -52.5 28.5
t-21.5 83.5q0 71 37 117t101 49z" />
    <glyph glyph-name="quotedblright" unicode="&#x201d;" horiz-adv-x="430" 
d="M253 442v6q49 49 49 99q0 38 -30 59q-9 6 -17 21.5t-8 29.5q0 27 18.5 45t51.5 18q31 0 52.5 -28.5t21.5 -83.5q0 -71 -37 -117t-101 -49zM56 442v6q49 51 49 99q0 37 -30 59q-9 6 -17 21.5t-8 29.5q0 27 18.5 45t51.5 18q31 0 52.5 -28.5t21.5 -83.5q0 -71 -37 -117
t-101 -49z" />
    <glyph glyph-name="quotedblbase" unicode="&#x201e;" horiz-adv-x="430" 
d="M320 -156v6q49 51 49 99q0 37 -30 59q-9 6 -17 21.5t-8 29.5q0 27 18.5 45t51.5 18q31 0 52.5 -28.5t21.5 -83.5q0 -71 -37 -117t-101 -49zM80 -156v6q49 51 49 99q0 37 -30 59q-9 6 -17 21.5t-8 29.5q0 27 18.5 45t51.5 18q31 0 52.5 -28.5t21.5 -83.5q0 -71 -37 -117
t-101 -49z" />
    <glyph glyph-name="dagger" unicode="&#x2020;" horiz-adv-x="490" 
d="M399 457h-115v-606h-27q-21 0 -35 14t-14 39v553h-166v27q0 20 14 36t36 16h116v206h25q21 0 36 -15t15 -38v-153h166v-32q0 -19 -14.5 -33t-36.5 -14z" />
    <glyph glyph-name="daggerdbl" unicode="&#x2021;" horiz-adv-x="490" 
d="M389 108h-105v-279h-27q-24 0 -36.5 14.5t-12.5 38.5v226h-166v28q0 20 14 36t36 16h116v267h-166v28q0 20 14 36t36 16h116v184h35q19 0 30 -12t11 -31v-141h166v-26q0 -25 -15.5 -39.5t-45.5 -14.5h-105v-267h166v-26q0 -25 -15.5 -39.5t-45.5 -14.5z" />
    <glyph glyph-name="bullet" unicode="&#x2022;" horiz-adv-x="326" 
d="M68 362q0 39 28 67t67 28t67 -28t28 -67t-28 -67t-67 -28t-67 28t-28 67z" />
    <glyph glyph-name="ellipsis" unicode="&#x2026;" horiz-adv-x="808" 
d="M749 70q0 -30 -20.5 -50t-50.5 -20t-51 20t-21 50t21 50.5t51 20.5t50.5 -20t20.5 -51zM479 70q0 -30 -20.5 -50t-50.5 -20t-51 20t-21 50t21 50.5t51 20.5t50.5 -20t20.5 -51zM209 70q0 -30 -20.5 -50t-50.5 -20t-51 20t-21 50t21 50.5t51 20.5t50.5 -20t20.5 -51z" />
    <glyph glyph-name="perthousand" unicode="&#x2030;" horiz-adv-x="1403" 
d="M217 255q-72 0 -115.5 60.5t-43.5 149.5q0 101 44.5 163t123.5 62q72 0 115.5 -60t43.5 -149q0 -101 -44.5 -163.5t-123.5 -62.5zM375 0h-28q-33 0 -33 27q0 16 12 43l277 610h26q11 0 21 -12t10 -30q0 -12 -6 -25zM1170 -10q-72 0 -115.5 60.5t-43.5 149.5
q0 101 44.5 163t123.5 62q72 0 115.5 -60t43.5 -149q0 -101 -44.5 -163.5t-123.5 -62.5zM772 -10q-72 0 -115.5 60.5t-43.5 149.5q0 101 44.5 163t123.5 62q72 0 115.5 -60t43.5 -149q0 -101 -44.5 -163.5t-123.5 -62.5zM218 614q-41 0 -60 -38.5t-19 -95.5q0 -148 86 -148
q41 0 60 38t19 95q0 149 -86 149zM1171 349q-41 0 -60 -38.5t-19 -95.5q0 -148 86 -148q41 0 60 38t19 95q0 149 -86 149zM773 349q-41 0 -60 -38.5t-19 -95.5q0 -148 86 -148q41 0 60 38t19 95q0 149 -86 149z" />
    <glyph glyph-name="guilsinglleft" unicode="&#x2039;" horiz-adv-x="339" 
d="M265 73q-72 0 -101 45l-97 145l97 146q28 43 101 43h14l-118 -189l118 -190h-14z" />
    <glyph glyph-name="guilsinglright" unicode="&#x203a;" horiz-adv-x="339" 
d="M69 73h-14l118 190l-118 189h14q73 0 101 -43l97 -146l-97 -145q-29 -45 -101 -45z" />
    <glyph glyph-name="fraction" unicode="&#x2044;" horiz-adv-x="483" 
d="M125 -10h-31q-9 0 -20 10t-11 27q0 18 10 41l293 651h30q14 0 24.5 -10.5t10.5 -23.5t-5 -23z" />
    <glyph glyph-name="uni2070" unicode="&#x2070;" horiz-adv-x="401" 
d="M357 486q0 -222 -161 -222q-69 0 -111 54.5t-42 151.5q0 220 160 220q69 0 111.5 -50.5t42.5 -153.5zM282 469q0 87 -21 120t-65 33q-76 0 -76 -137q0 -80 22.5 -116.5t57.5 -36.5q36 0 59 32t23 105z" />
    <glyph glyph-name="uni2074" unicode="&#x2074;" horiz-adv-x="403" 
d="M381 402q0 -37 -36 -37h-39v-94h-30q-45 0 -45 56v38h-148q-21 0 -33.5 13.5t-12.5 29.5q0 25 16 50q34 53 88 122.5t90 99.5h28q47 0 47 -61v-188h75v-29zM231 431v166q-69 -81 -123 -166h123z" />
    <glyph glyph-name="uni2075" unicode="&#x2075;" horiz-adv-x="412" 
d="M362 403q0 -71 -48 -105t-118 -34q-51 0 -83 22t-32 53v35h4q35 -43 120 -43q32 0 56.5 16.5t24.5 50.5q0 32 -23 47.5t-76 15.5q-52 0 -101 -17v178q0 58 53 58h205v-35q0 -34 -37 -34h-153v-90q40 8 69 8q64 0 101.5 -34.5t37.5 -91.5z" />
    <glyph glyph-name="uni2076" unicode="&#x2076;" horiz-adv-x="404" 
d="M362 403q0 -61 -43.5 -100t-111.5 -39q-65 0 -109.5 48.5t-44.5 146.5q0 104 51 167.5t133 63.5q52 0 78.5 -19t26.5 -46v-34h-3q-36 33 -93 33q-53 0 -87 -37t-34 -100q13 23 42 38.5t62 15.5q57 0 95 -38.5t38 -99.5zM290 399q0 37 -21.5 56.5t-57.5 19.5
q-32 0 -57.5 -18.5t-25.5 -39.5q0 -39 24 -63t59 -24q36 0 57.5 19.5t21.5 49.5z" />
    <glyph glyph-name="uni2077" unicode="&#x2077;" horiz-adv-x="323" 
d="M302 650q0 -21 -41 -98l-75 -142q-28 -52 -28 -102v-34h-42q-32 0 -32 37q0 44 28 98l68 126q28 51 37 76h-205v36q0 33 34 33h220q36 0 36 -30z" />
    <glyph glyph-name="uni2078" unicode="&#x2078;" horiz-adv-x="404" 
d="M364 389q0 -55 -41 -90t-115 -35q-69 0 -110.5 32.5t-41.5 84.5q0 33 20.5 60.5t59.5 38.5q-75 24 -75 88q0 55 41.5 88.5t109.5 33.5q62 0 104 -30t42 -83q0 -73 -77 -93q37 -8 60 -37t23 -58zM282 571q0 24 -20 38.5t-54 14.5q-33 0 -52 -14t-19 -36q0 -25 21 -41
t55 -16q32 0 50.5 15t18.5 39zM288 384q0 25 -21 43.5t-60 18.5q-32 0 -53.5 -18t-21.5 -41q0 -25 23 -40.5t57 -15.5q36 0 56 15.5t20 37.5z" />
    <glyph glyph-name="uni2079" unicode="&#x2079;" horiz-adv-x="400" 
d="M348 493q0 -229 -168 -229q-52 0 -87 22t-35 62v34h3q36 -53 118 -53q94 0 94 133q-13 -24 -39 -39.5t-56 -15.5q-60 0 -99 38.5t-39 99.5t46 103t108 42q73 0 113.5 -50t40.5 -147zM270 537q0 85 -80 85q-33 0 -55 -21.5t-22 -48.5q0 -39 23 -58t60 -19q33 0 53.5 19
t20.5 43z" />
    <glyph glyph-name="uni2080" unicode="&#x2080;" horiz-adv-x="401" 
d="M357 9q0 -222 -161 -222q-69 0 -111 54.5t-42 151.5q0 220 160 220q69 0 111.5 -50.5t42.5 -153.5zM282 -8q0 87 -21 120t-65 33q-76 0 -76 -137q0 -80 22.5 -116.5t57.5 -36.5q36 0 59 32t23 105z" />
    <glyph glyph-name="uni2081" unicode="&#x2081;" horiz-adv-x="274" 
d="M194 -203h-26q-23 0 -37.5 15t-14.5 42v263l-42 -15q-21 -7 -33 -7q-35 0 -42 32l-4 18l79 35q51 23 80 23q20 0 30 -14t10 -32v-360z" />
    <glyph glyph-name="uni2082" unicode="&#x2082;" horiz-adv-x="406" 
d="M348 -162q0 -22 -9.5 -31.5t-35.5 -9.5h-199q-18 0 -30 12t-12 30q0 23 15.5 43.5t64.5 59.5l85 68q41 34 41 74q0 29 -24 45.5t-64 16.5q-74 0 -111 -62h-3v42q0 35 36 61t99 26q61 0 101.5 -34.5t40.5 -84.5q0 -46 -17 -77.5t-61 -65.5l-70 -54q-29 -21 -39 -30h192
v-29z" />
    <glyph glyph-name="uni2083" unicode="&#x2083;" horiz-adv-x="410" 
d="M339 -84q0 -59 -40 -94t-117 -35q-50 0 -89.5 24t-39.5 58v40h3q43 -55 131 -55q35 0 55.5 15.5t20.5 39.5q0 28 -22.5 44t-58.5 17q-53 1 -53 33v27h47q40 0 62.5 17.5t22.5 45.5q0 22 -23.5 37.5t-61.5 15.5q-90 0 -120 -56h-4v40q0 28 38 55.5t95 27.5q67 0 108 -31.5
t41 -80.5q0 -81 -86 -95q38 -5 64.5 -31.5t26.5 -58.5z" />
    <glyph glyph-name="uni2084" unicode="&#x2084;" horiz-adv-x="403" 
d="M381 -75q0 -37 -36 -37h-39v-94h-30q-45 0 -45 56v38h-148q-21 0 -33.5 13.5t-12.5 29.5q0 25 16 50q34 53 88 122.5t90 99.5h28q47 0 47 -61v-188h75v-29zM231 -46v166q-69 -81 -123 -166h123z" />
    <glyph glyph-name="uni2085" unicode="&#x2085;" horiz-adv-x="412" 
d="M362 -74q0 -71 -48 -105t-118 -34q-51 0 -83 22t-32 53v35h4q35 -43 120 -43q32 0 56.5 16.5t24.5 50.5q0 32 -23 47.5t-76 15.5q-52 0 -101 -17v178q0 58 53 58h205v-35q0 -34 -37 -34h-153v-90q40 8 69 8q64 0 101.5 -34.5t37.5 -91.5z" />
    <glyph glyph-name="uni2086" unicode="&#x2086;" horiz-adv-x="404" 
d="M362 -74q0 -61 -43.5 -100t-111.5 -39q-65 0 -109.5 48.5t-44.5 146.5q0 104 51 167.5t133 63.5q52 0 78.5 -19t26.5 -46v-34h-3q-36 33 -93 33q-53 0 -87 -37t-34 -100q13 23 42 38.5t62 15.5q57 0 95 -38.5t38 -99.5zM290 -78q0 37 -21.5 56.5t-57.5 19.5
q-32 0 -57.5 -18.5t-25.5 -39.5q0 -40 24 -63.5t59 -23.5q36 0 57.5 19.5t21.5 49.5z" />
    <glyph glyph-name="uni2087" unicode="&#x2087;" horiz-adv-x="323" 
d="M302 173q0 -21 -41 -98l-75 -142q-28 -52 -28 -102v-34h-42q-32 0 -32 37q0 44 28 98l68 126q28 51 37 76h-205v36q0 33 34 33h220q36 0 36 -30z" />
    <glyph glyph-name="uni2088" unicode="&#x2088;" horiz-adv-x="404" 
d="M364 -88q0 -55 -41 -90t-115 -35q-69 0 -110.5 32.5t-41.5 84.5q0 33 20.5 60.5t59.5 38.5q-75 24 -75 88q0 55 41.5 88.5t109.5 33.5q62 0 104 -30t42 -83q0 -73 -77 -93q37 -8 60 -37t23 -58zM282 94q0 24 -20 38.5t-54 14.5q-33 0 -52 -14t-19 -36q0 -25 21 -41
t55 -16q32 0 50.5 15t18.5 39zM288 -93q0 25 -21 43.5t-60 18.5q-32 0 -53.5 -18t-21.5 -41q0 -25 23 -40.5t57 -15.5q36 0 56 15.5t20 37.5z" />
    <glyph glyph-name="uni2089" unicode="&#x2089;" horiz-adv-x="400" 
d="M348 16q0 -229 -168 -229q-52 0 -87 22t-35 62v34h3q36 -53 118 -53q94 0 94 133q-13 -24 -39 -39.5t-56 -15.5q-60 0 -99 38.5t-39 99.5t46 103t108 42q73 0 113.5 -50t40.5 -147zM270 60q0 85 -80 85q-33 0 -55 -21.5t-22 -48.5q0 -39 23 -58t60 -19q33 0 53.5 19
t20.5 43z" />
    <glyph glyph-name="Euro" unicode="&#x20ac;" 
d="M535 105q0 -47 -45 -81t-115 -34q-100 0 -174 72t-84 185h-89v33q0 14 12 21.5t24 7.5h49q-1 29 0 60h-85v31q0 12 11 21.5t25 9.5h52q14 114 89 186.5t178 72.5q64 0 108 -37t44 -84v-30h-5q-18 26 -58 46.5t-75 20.5q-169 0 -189 -175h232v-26q0 -15 -11 -25.5
t-26 -10.5h-200q-4 -35 0 -60h237v-27q0 -13 -10.5 -24t-26.5 -11h-197q9 -89 60 -131t130 -42q35 0 73.5 17t60.5 42h5v-28z" />
    <glyph glyph-name="afii61289" unicode="&#x2113;" horiz-adv-x="500" 
d="M437 157l40 -36q-68 -128 -196 -128q-80 0 -122 48.5t-48 124.5q0 8 -1 12l-57 -45l-25 48l27 21.5l30 24.5l24 21v259q0 124 46 181t115 57q64 0 97.5 -45.5t33.5 -115.5q0 -87 -53.5 -173t-155.5 -181v-31q0 -66 30.5 -102t76.5 -36q43 0 79 28.5t59 67.5zM191 515
v-204q151 160 151 272q0 100 -70 100q-32 0 -56.5 -40.5t-24.5 -127.5z" />
    <glyph glyph-name="trademark" unicode="&#x2122;" horiz-adv-x="807" 
d="M729 328q-23 0 -37 15t-14 44q0 61 -11 218l-47 -164q-22 -76 -43 -114h-20q-22 0 -38.5 25t-34.5 88l-50 166q-12 -178 -12 -279l-30 1q-22 1 -35.5 14.5t-13.5 36.5q0 160 28 317h19q37 0 62 -17t35 -41q24 -57 66 -201q7 21 22.5 74t25.5 80q31 87 60 106h6
q69 0 78 -79q18 -157 18 -290h-34zM261 621h-55v-298h-36q-48 0 -48 46v252h-101v31q0 15 13 28.5t36 13.5h239v-29q0 -15 -14 -29.5t-34 -14.5z" />
    <glyph glyph-name="Omega" unicode="&#x2126;" horiz-adv-x="768" 
d="M45 83h124q-100 91 -100 259q0 160 83 259t230 99q136 0 219 -94.5t83 -246.5q0 -177 -101 -276h124v-34q0 -21 -16.5 -35t-41.5 -14h-199v82q69 27 106 95t37 165q0 138 -54 206t-168 68q-99 0 -155 -65t-56 -192q0 -122 31 -188.5t111 -88.5v-82h-199q-25 0 -41.5 14
t-16.5 35v34z" />
    <glyph glyph-name="estimated" unicode="&#x212e;" horiz-adv-x="845" 
d="M811 330h-630q-5 0 -5 -4v-191q0 -12 8 -22q101 -104 239 -104q148 0 251 116h56q-53 -63 -134.5 -99t-173.5 -36q-161 0 -275 102t-114 247t114 248t275 103q165 0 277 -105t112 -255zM668 355v191q0 14 -9 23q-102 100 -236 100q-137 0 -238 -103q-9 -9 -9 -24v-187
q0 -7 5 -7h483q4 0 4 7z" />
    <glyph glyph-name="arrowleft" unicode="&#x2190;" horiz-adv-x="1000" 
d="M855 280h-655l328 -328h-46q-38 0 -69.5 17.5t-76.5 62.5l-289 289l289 289q45 45 76.5 62.5t69.5 17.5h46l-328 -328h721v-30q0 -22 -17 -37t-49 -15z" />
    <glyph glyph-name="arrowup" unicode="&#x2191;" horiz-adv-x="852" 
d="M384 -113v679l-328 -328v46q0 38 17.5 69.5t62.5 76.5l289 289l289 -289q45 -45 62.5 -76.5t17.5 -69.5v-46l-328 328v-745h-30q-22 0 -37 17t-15 49z" />
    <glyph glyph-name="arrowright" unicode="&#x2192;" horiz-adv-x="1000" 
d="M115 364h655l-328 328h46q38 0 69.5 -17.5t76.5 -62.5l289 -289l-289 -289q-45 -45 -76.5 -62.5t-69.5 -17.5h-46l328 328h-721v30q0 22 17 37t49 15z" />
    <glyph glyph-name="arrowdown" unicode="&#x2193;" horiz-adv-x="852" 
d="M466 651v-679l328 328v-46q0 -38 -17.5 -69.5t-62.5 -76.5l-289 -289l-289 289q-45 45 -62.5 76.5t-17.5 69.5v46l328 -328v745h30q22 0 37 -17t15 -49z" />
    <glyph glyph-name="uni2196" unicode="&#x2196;" horiz-adv-x="866" 
d="M651 32l-477 477v-464l-32 32q-27 27 -37 61.5t-10 98.5v409h409q64 0 98.5 -10t61.5 -37l32 -32h-464l527 -527l-18 -18q-11 -11 -40 -11t-50 21z" />
    <glyph glyph-name="uni2197" unicode="&#x2197;" horiz-adv-x="866" 
d="M126 86l477 477h-464l32 32q27 27 61.5 37t98.5 10h409v-409q0 -64 -10 -98.5t-37 -61.5l-32 -32v464l-527 -527l-18 18q-12 12 -12 38q0 30 22 52z" />
    <glyph glyph-name="uni2198" unicode="&#x2198;" horiz-adv-x="866" 
d="M217 534l477 -477v464l32 -32q27 -27 37 -61.5t10 -98.5v-409h-409q-64 0 -98.5 10t-61.5 37l-32 32h464l-527 527l18 18q11 11 40 11t50 -21z" />
    <glyph glyph-name="uni2199" unicode="&#x2199;" horiz-adv-x="866" 
d="M706 476l-477 -477h464l-32 -32q-27 -27 -61 -37t-99 -10h-409v409q0 65 10 99t37 61l32 32v-464l527 527l18 -18q12 -12 12 -41q0 -27 -22 -49z" />
    <glyph glyph-name="partialdiff" unicode="&#x2202;" horiz-adv-x="494" 
d="M503 252q-70 -261 -241 -261q-37 0 -73 10q-81 22 -130 85t-49 144q0 31 9 64q19 71 73.5 115t131.5 44q36 0 72 -10q51 -13 85 -46t45 -80q21 79 21 137q0 127 -109 158q-39 11 -79 11q-76 0 -130 -46l-5 1l8 30q12 48 50 72.5t93 24.5q39 0 83 -12q89 -25 132 -84.5
t43 -158.5q0 -84 -30 -198zM396 207q4 18 4 29q0 42 -28 78t-82 50q-32 8 -57 8q-98 0 -129 -114q-6 -24 -6 -46q0 -46 27 -80.5t79 -48.5q32 -8 56 -8q103 0 136 132z" />
    <glyph glyph-name="Delta" unicode="&#x2206;" horiz-adv-x="606" 
d="M582 0h-522q-41 0 -41 44q0 80 83.5 313.5t156.5 322.5h30q28 0 48.5 -18t43.5 -58q51 -90 114 -270.5t87 -333.5zM481 73q-35 126 -91.5 289.5t-95.5 235.5q-42 -76 -96.5 -235.5t-90.5 -289.5h374z" />
    <glyph glyph-name="product" unicode="&#x220f;" horiz-adv-x="665" 
d="M571 633v-779h-33q-57 0 -57 59v720h-292v-779h-34q-26 0 -41 15.5t-15 46.5v717h-59v34q0 21 14 35.5t44 14.5h526v-35q0 -19 -12.5 -34t-40.5 -15z" />
    <glyph glyph-name="summation" unicode="&#x2211;" horiz-adv-x="629" 
d="M436 273l-161 -201q-66 -81 -91 -134h376v-34q0 -21 -16.5 -35t-41.5 -14h-361q-26 0 -42 14t-16 36q0 34 23 75.5t84 116.5l153 189l-153 190q-61 75 -84 116.5t-23 75.5q0 22 16 36t42 14h361q25 0 41.5 -14t16.5 -35v-34h-376q25 -53 91 -134l161 -200q4 -5 4 -14
q0 -10 -4 -14z" />
    <glyph glyph-name="minus" unicode="&#x2212;" 
d="M476 344v-43q0 -21 -16.5 -33t-44.5 -12h-326v42q0 20 16 33t43 13h328z" />
    <glyph glyph-name="uni2219" unicode="&#x2219;" 
d="M190 362q0 39 28 67t67 28t67 -28t28 -67t-28 -67t-67 -28t-67 28t-28 67z" />
    <glyph glyph-name="radical" unicode="&#x221a;" horiz-adv-x="545" 
d="M332 -5h-15q-41 0 -71 45q-50 76 -96.5 195t-68.5 225h52q24 0 40 -14.5t19 -32.5q11 -60 35 -123.5t79 -177.5l66 292q51 219 70 326q7 35 78 35h25q-143 -600 -173 -714q-14 -56 -40 -56z" />
    <glyph glyph-name="infinity" unicode="&#x221e;" horiz-adv-x="713" 
d="M614 360q0 46 -25.5 78.5t-70.5 32.5q-44 0 -81 -48q-36 -48 -36 -63q0 -19 37 -67q37 -50 80 -50q47 0 71.5 34.5t24.5 82.5zM102 354q0 -46 24 -79.5t68 -33.5q45 0 84 53q39 56 39 70q0 13 -42 60q-42 48 -86 48q-43 0 -65 -36t-22 -82zM362 292q-32 -59 -71.5 -92
t-97.5 -33q-78 0 -123 55.5t-45 135.5q0 79 44.5 135t121.5 56q56 0 93.5 -33t68.5 -92q33 60 72 93t98 33q77 0 121 -55.5t44 -134.5q0 -78 -43 -135.5t-119 -57.5q-104 0 -164 125z" />
    <glyph glyph-name="integral" unicode="&#x222b;" horiz-adv-x="274" 
d="M274 677q-47 0 -74 -22t-27 -66v-583q0 -210 -161 -210q-39 0 -59.5 15t-20.5 35v42h5q31 -14 59 -14q48 0 70 25t22 94v589q0 80 48 126.5t129 46.5q30 0 49.5 -16.5t19.5 -38.5v-42h-5q-26 19 -55 19z" />
    <glyph glyph-name="approxequal" unicode="&#x2248;" horiz-adv-x="568" 
d="M388 285q-36 0 -92 36q-51 31 -89 31q-29 0 -49.5 -22t-25.5 -56h-12q-12 0 -25 11t-13 35q0 57 38 86.5t81 29.5q36 0 90 -34q60 -36 94 -36q67 0 75 75h19q11 0 21 -11t10 -35q0 -46 -34.5 -78t-87.5 -32zM388 126q-36 0 -92 36q-51 31 -89 31q-29 0 -49.5 -22
t-25.5 -56h-12q-12 0 -25 11t-13 35q0 57 38 86.5t81 29.5q36 0 90 -34q60 -36 94 -36q67 0 75 75h19q11 0 21 -11t10 -35q0 -46 -34.5 -78t-87.5 -32z" />
    <glyph glyph-name="notequal" unicode="&#x2260;" 
d="M185 -9h-18q-28 0 -28 33q0 17 8 37l40 90h-101v34q0 15 11.5 28t33.5 13h90l62 140h-197v32q0 15 11.5 29t33.5 14h185l84 191h18q12 0 21.5 -9.5t9.5 -21.5q0 -11 -4 -20l-62 -140h113v-40q0 -10 -12.5 -22.5t-30.5 -12.5h-103l-61 -140h207v-38q0 -13 -12 -25t-31 -12
h-197z" />
    <glyph glyph-name="lessequal" unicode="&#x2264;" 
d="M426 497q-132 -45 -253 -116q202 -110 308 -152v-15q0 -23 -12 -35.5t-30 -12.5q-7 0 -40 13q-65 24 -162.5 76t-169.5 104v17q0 26 46 55q53 34 167 86.5t204 80.5q0 -43 -11.5 -66t-46.5 -35zM508 40q0 -16 -13.5 -28t-30.5 -12h-382v32q0 43 52 43h374v-35z" />
    <glyph glyph-name="greaterequal" unicode="&#x2265;" 
d="M144 269q132 45 253 116q-202 110 -308 152v15q0 23 12 35.5t30 12.5q7 0 40 -13q65 -24 162.5 -76t169.5 -104v-17q0 -26 -46 -55q-53 -34 -167 -86.5t-204 -80.5q0 43 11.5 66t46.5 35zM508 40q0 -16 -13.5 -28t-30.5 -12h-382v32q0 43 52 43h374v-35z" />
    <glyph glyph-name="dotmath" unicode="&#x22c5;" 
d="M220 287q0 27 19 45.5t46 18.5t45.5 -18.5t18.5 -45.5t-18.5 -46t-45.5 -19t-46 19t-19 46z" />
    <glyph glyph-name="H18543" unicode="&#x25aa;" horiz-adv-x="679" 
d="M70 0v535h535v-535h-535z" />
    <glyph glyph-name="triagup" unicode="&#x25b2;" horiz-adv-x="812" 
d="M17 -29l386 666l385 -666h-771z" />
    <glyph glyph-name="uni25B6" unicode="&#x25b6;" horiz-adv-x="750" 
d="M70 690l666 -386l-666 -385v771z" />
    <glyph glyph-name="triagdn" unicode="&#x25bc;" horiz-adv-x="812" 
d="M403 -29l-386 666h771z" />
    <glyph glyph-name="uni25C0" unicode="&#x25c0;" horiz-adv-x="750" 
d="M70 304l666 386v-771z" />
    <glyph glyph-name="lozenge" unicode="&#x25ca;" horiz-adv-x="583" 
d="M242 -21q-106 155 -163 358q32 105 83 215t103 169h25q28 0 46 -26q106 -155 163 -358q-32 -105 -83 -215t-103 -169h-25q-28 0 -46 26zM292 56q65 98 121 280q-54 169 -127 282q-74 -113 -117 -280q45 -160 123 -282z" />
    <glyph glyph-name="H18533" unicode="&#x25cf;" horiz-adv-x="708" 
d="M71 267q0 115 81.5 196.5t197.5 81.5t197 -81.5t81 -196.5t-81 -196.5t-197 -81.5t-197.5 81.5t-81.5 196.5z" />
    <glyph glyph-name="i.latn_TRK" horiz-adv-x="317" 
d="M198 671q0 -26 -18 -44t-43 -18t-43.5 18.5t-18.5 43.5q0 26 18.5 44.5t43.5 18.5t43 -18.5t18 -44.5zM302 49q0 -25 -14.5 -39.5t-38.5 -14.5q-160 0 -160 159v381h28q25 0 44 -19t19 -52v-297q0 -88 83 -88h39v-30z" />
    <glyph glyph-name="zero.numr" horiz-adv-x="401" 
d="M357 486q0 -222 -161 -222q-69 0 -111 54.5t-42 151.5q0 220 160 220q69 0 111.5 -50.5t42.5 -153.5zM282 469q0 87 -21 120t-65 33q-76 0 -76 -137q0 -80 22.5 -116.5t57.5 -36.5q36 0 59 32t23 105z" />
    <glyph glyph-name="one.numr" horiz-adv-x="274" 
d="M194 274h-26q-23 0 -37.5 15t-14.5 42v263l-42 -15q-21 -7 -33 -7q-35 0 -42 32l-4 18l79 35q51 23 80 23q20 0 30 -14t10 -32v-360z" />
    <glyph glyph-name="two.numr" horiz-adv-x="406" 
d="M348 315q0 -22 -9.5 -31.5t-35.5 -9.5h-199q-18 0 -30 12t-12 30q0 23 15.5 43.5t64.5 59.5l85 68q41 34 41 74q0 29 -24 45.5t-64 16.5q-74 0 -111 -62h-3v42q0 35 36 61t99 26q61 0 101.5 -34.5t40.5 -84.5q0 -46 -17 -77.5t-61 -65.5l-70 -54q-29 -21 -39 -30h192v-29
z" />
    <glyph glyph-name="three.numr" horiz-adv-x="410" 
d="M339 393q0 -59 -40 -94t-117 -35q-50 0 -89.5 24t-39.5 58v40h3q43 -55 131 -55q35 0 55.5 15.5t20.5 39.5q0 28 -22.5 44t-58.5 17q-53 1 -53 33v27h47q40 0 62.5 17.5t22.5 45.5q0 22 -23.5 37.5t-61.5 15.5q-90 0 -120 -56h-4v40q0 28 38 55.5t95 27.5q67 0 108 -31.5
t41 -80.5q0 -81 -86 -95q38 -5 64.5 -31.5t26.5 -58.5z" />
    <glyph glyph-name="four.numr" horiz-adv-x="403" 
d="M381 402q0 -37 -36 -37h-39v-94h-30q-45 0 -45 56v38h-148q-21 0 -33.5 13.5t-12.5 29.5q0 25 16 50q34 53 88 122.5t90 99.5h28q47 0 47 -61v-188h75v-29zM231 431v166q-69 -81 -123 -166h123z" />
    <glyph glyph-name="five.numr" horiz-adv-x="412" 
d="M362 403q0 -71 -48 -105t-118 -34q-51 0 -83 22t-32 53v35h4q35 -43 120 -43q32 0 56.5 16.5t24.5 50.5q0 32 -23 47.5t-76 15.5q-52 0 -101 -17v178q0 58 53 58h205v-35q0 -34 -37 -34h-153v-90q40 8 69 8q64 0 101.5 -34.5t37.5 -91.5z" />
    <glyph glyph-name="six.numr" horiz-adv-x="404" 
d="M362 403q0 -61 -43.5 -100t-111.5 -39q-65 0 -109.5 48.5t-44.5 146.5q0 104 51 167.5t133 63.5q52 0 78.5 -19t26.5 -46v-34h-3q-36 33 -93 33q-53 0 -87 -37t-34 -100q13 23 42 38.5t62 15.5q57 0 95 -38.5t38 -99.5zM290 399q0 37 -21.5 56.5t-57.5 19.5
q-32 0 -57.5 -18.5t-25.5 -39.5q0 -39 24 -63t59 -24q36 0 57.5 19.5t21.5 49.5z" />
    <glyph glyph-name="seven.numr" horiz-adv-x="323" 
d="M302 650q0 -21 -41 -98l-75 -142q-28 -52 -28 -102v-34h-42q-32 0 -32 37q0 44 28 98l68 126q28 51 37 76h-205v36q0 33 34 33h220q36 0 36 -30z" />
    <glyph glyph-name="eight.numr" horiz-adv-x="404" 
d="M364 389q0 -55 -41 -90t-115 -35q-69 0 -110.5 32.5t-41.5 84.5q0 33 20.5 60.5t59.5 38.5q-75 24 -75 88q0 55 41.5 88.5t109.5 33.5q62 0 104 -30t42 -83q0 -73 -77 -93q37 -8 60 -37t23 -58zM282 571q0 24 -20 38.5t-54 14.5q-33 0 -52 -14t-19 -36q0 -25 21 -41
t55 -16q32 0 50.5 15t18.5 39zM288 384q0 25 -21 43.5t-60 18.5q-32 0 -53.5 -18t-21.5 -41q0 -25 23 -40.5t57 -15.5q36 0 56 15.5t20 37.5z" />
    <glyph glyph-name="nine.numr" horiz-adv-x="400" 
d="M348 493q0 -229 -168 -229q-52 0 -87 22t-35 62v34h3q36 -53 118 -53q94 0 94 133q-13 -24 -39 -39.5t-56 -15.5q-60 0 -99 38.5t-39 99.5t46 103t108 42q73 0 113.5 -50t40.5 -147zM270 537q0 85 -80 85q-33 0 -55 -21.5t-22 -48.5q0 -39 23 -58t60 -19q33 0 53.5 19
t20.5 43z" />
    <glyph glyph-name="zero.dnom" horiz-adv-x="401" 
d="M357 212q0 -222 -161 -222q-69 0 -111 54.5t-42 151.5q0 220 160 220q69 0 111.5 -50.5t42.5 -153.5zM282 195q0 87 -21 120t-65 33q-76 0 -76 -137q0 -80 22.5 -116.5t57.5 -36.5q36 0 59 32t23 105z" />
    <glyph glyph-name="one.dnom" horiz-adv-x="274" 
d="M194 0h-26q-23 0 -37.5 15t-14.5 42v263l-42 -15q-21 -7 -33 -7q-35 0 -42 32l-4 18l79 35q51 23 80 23q20 0 30 -14t10 -32v-360z" />
    <glyph glyph-name="two.dnom" horiz-adv-x="406" 
d="M348 41q0 -22 -9.5 -31.5t-35.5 -9.5h-199q-18 0 -30 12t-12 30q0 23 15.5 43.5t64.5 59.5l85 68q41 34 41 74q0 29 -24 45.5t-64 16.5q-74 0 -111 -62h-3v42q0 35 36 61t99 26q61 0 101.5 -34.5t40.5 -84.5q0 -46 -17 -77.5t-61 -65.5l-70 -54q-29 -21 -39 -30h192v-29z
" />
    <glyph glyph-name="three.dnom" horiz-adv-x="410" 
d="M339 119q0 -59 -40 -94t-117 -35q-50 0 -89.5 24t-39.5 58v40h3q43 -55 131 -55q35 0 55.5 15.5t20.5 39.5q0 28 -22.5 44t-58.5 17q-53 1 -53 33v27h47q40 0 62.5 17.5t22.5 45.5q0 22 -23.5 37.5t-61.5 15.5q-90 0 -120 -56h-4v40q0 28 38 55.5t95 27.5q67 0 108 -31.5
t41 -80.5q0 -81 -86 -95q38 -5 64.5 -31.5t26.5 -58.5z" />
    <glyph glyph-name="four.dnom" horiz-adv-x="403" 
d="M381 128q0 -37 -36 -37h-39v-94h-30q-45 0 -45 56v38h-148q-21 0 -33.5 13.5t-12.5 29.5q0 25 16 50q34 53 88 122.5t90 99.5h28q47 0 47 -61v-188h75v-29zM231 157v166q-69 -81 -123 -166h123z" />
    <glyph glyph-name="five.dnom" horiz-adv-x="412" 
d="M362 129q0 -71 -48 -105t-118 -34q-51 0 -83 22t-32 53v35h4q35 -43 120 -43q32 0 56.5 16.5t24.5 50.5q0 32 -23 47.5t-76 15.5q-52 0 -101 -17v178q0 58 53 58h205v-35q0 -34 -37 -34h-153v-90q40 8 69 8q64 0 101.5 -34.5t37.5 -91.5z" />
    <glyph glyph-name="six.dnom" horiz-adv-x="404" 
d="M362 129q0 -61 -43.5 -100t-111.5 -39q-65 0 -109.5 48.5t-44.5 146.5q0 104 51 167.5t133 63.5q52 0 78.5 -19t26.5 -46v-34h-3q-36 33 -93 33q-53 0 -87 -37t-34 -100q13 23 42 38.5t62 15.5q57 0 95 -38.5t38 -99.5zM290 125q0 37 -21.5 56.5t-57.5 19.5
q-32 0 -57.5 -18.5t-25.5 -39.5q0 -39 24 -63t59 -24q36 0 57.5 19.5t21.5 49.5z" />
    <glyph glyph-name="seven.dnom" horiz-adv-x="323" 
d="M302 376q0 -21 -41 -98l-75 -142q-28 -52 -28 -102v-34h-42q-32 0 -32 37q0 44 28 98l68 126q28 51 37 76h-205v36q0 33 34 33h220q36 0 36 -30z" />
    <glyph glyph-name="eight.dnom" horiz-adv-x="404" 
d="M364 115q0 -55 -41 -90t-115 -35q-69 0 -110.5 32.5t-41.5 84.5q0 33 20.5 60.5t59.5 38.5q-75 24 -75 88q0 55 41.5 88.5t109.5 33.5q62 0 104 -30t42 -83q0 -73 -77 -93q37 -8 60 -37t23 -58zM282 297q0 24 -20 38.5t-54 14.5q-33 0 -52 -14t-19 -36q0 -25 21 -41
t55 -16q32 0 50.5 15t18.5 39zM288 110q0 25 -21 43.5t-60 18.5q-32 0 -53.5 -18t-21.5 -41q0 -25 23 -40.5t57 -15.5q36 0 56 15.5t20 37.5z" />
    <glyph glyph-name="nine.dnom" horiz-adv-x="400" 
d="M348 219q0 -229 -168 -229q-52 0 -87 22t-35 62v34h3q36 -53 118 -53q94 0 94 133q-13 -24 -39 -39.5t-56 -15.5q-60 0 -99 38.5t-39 99.5t46 103t108 42q73 0 113.5 -50t40.5 -147zM270 263q0 85 -80 85q-33 0 -55 -21.5t-22 -48.5q0 -39 23 -58t60 -19q33 0 53.5 19
t20.5 43z" />
    <glyph glyph-name="zero.osf" horiz-adv-x="590" 
d="M546 282q0 -140 -68 -216t-189 -76q-104 0 -175 76t-71 190q0 131 66 210t191 79q105 0 175.5 -69t70.5 -194zM456 254q0 208 -167 208q-66 0 -109.5 -51t-43.5 -130q0 -96 46.5 -151.5t112.5 -55.5q67 0 114 48.5t47 131.5z" />
    <glyph glyph-name="one.osf" horiz-adv-x="422" 
d="M323 0h-33q-60 0 -60 68v378l-95 -67q-23 -16 -43 -16q-23 0 -35 25l-15 32l102 70q46 31 72 42.5t54 11.5q21 0 37 -13.5t16 -33.5v-497z" />
    <glyph glyph-name="two.osf" horiz-adv-x="554" 
d="M496 52q0 -20 -14.5 -36t-44.5 -16h-325q-20 0 -35 13t-15 29q0 29 16.5 54.5t70.5 58.5l129 80q58 36 81 66.5t23 68.5q0 42 -33.5 66t-89.5 24q-124 0 -181 -102h-6v42q0 58 54 101t149 43q82 0 139.5 -48t57.5 -120q0 -69 -42 -118t-133 -102l-55 -32l-73 -42h327v-30
z" />
    <glyph glyph-name="three.osf" horiz-adv-x="555" 
d="M484 38q0 -102 -58.5 -160t-179.5 -58q-79 0 -136 38.5t-57 95.5v41h6q70 -91 194 -91q65 0 101.5 33t36.5 89t-43 90.5t-123 35.5q-46 0 -46 44v26h50q78 0 116.5 32t38.5 87t-35 87t-107 32q-66 0 -114 -26t-70 -65h-6v39q0 47 58 91.5t148 44.5q104 0 161 -52.5
t57 -137.5q0 -136 -134 -162q62 -11 102 -55.5t40 -98.5z" />
    <glyph glyph-name="four.osf" horiz-adv-x="610" 
d="M588 47q0 -47 -50 -47h-79v-152h-33q-26 0 -42.5 15.5t-16.5 47.5v89h-261q-30 0 -49.5 14.5t-19.5 33.5q0 26 6 40q47 102 151 247t165 200h38q27 0 44.5 -18t17.5 -57v-383h129v-30zM367 77v370q-46 -54 -125.5 -172t-119.5 -198h245z" />
    <glyph glyph-name="five.osf" horiz-adv-x="560" 
d="M510 48q0 -102 -68 -165t-180 -63q-79 0 -130 37.5t-51 87.5v31h6q61 -72 181 -72q68 0 109 35t41 100q0 62 -41 94.5t-120 32.5q-84 0 -168 -28v303q0 94 87 94h304v-30q0 -54 -60 -54h-248v-215q70 14 114 14q104 0 164 -56.5t60 -145.5z" />
    <glyph glyph-name="six.osf" 
d="M528 219q0 -102 -64.5 -165.5t-174.5 -63.5q-103 0 -169.5 81.5t-66.5 239.5q0 168 77 273.5t209 105.5q74 0 115 -32t41 -74v-29h-5q-29 27 -62 40.5t-90 13.5q-90 0 -142 -70t-52 -210q18 43 66 73.5t104 30.5q98 0 156 -59t58 -155zM437 207q0 77 -34.5 111.5
t-105.5 34.5q-67 0 -108 -38t-41 -81q0 -74 40 -119t109 -45q68 0 104 38t36 99z" />
    <glyph glyph-name="seven.osf" horiz-adv-x="495" 
d="M474 484q0 -42 -63 -165l-140 -270q-39 -77 -39 -161v-40h-37q-54 0 -54 62q0 76 47 164l143 265q40 74 48 112h-367v29q0 55 57 55h346q59 0 59 -51z" />
    <glyph glyph-name="eight.osf" 
d="M530 196q0 -87 -61 -146.5t-179 -59.5q-111 0 -172.5 55t-61.5 138q0 54 33.5 98.5t98.5 63.5q-123 40 -123 145q0 87 61.5 143.5t169.5 56.5q98 0 161 -51.5t63 -134.5q0 -64 -32 -100t-95 -52q61 -15 99 -62t38 -94zM429 495q0 52 -36 83t-103 31q-66 0 -100 -30
t-34 -79q0 -54 37 -84t104 -30q132 0 132 109zM438 188q0 53 -37 87t-112 34q-66 0 -103.5 -33t-37.5 -84q0 -54 40 -86t108 -32q71 0 106.5 31.5t35.5 82.5z" />
    <glyph glyph-name="nine.osf" 
d="M518 222q0 -191 -69 -296.5t-202 -105.5q-78 0 -127.5 36t-49.5 102v31h5q53 -87 173 -87q89 0 134 74.5t45 204.5q-23 -42 -64.5 -66t-93.5 -24q-106 0 -167.5 63t-61.5 153q0 101 69.5 169t169.5 68q114 0 176.5 -75t62.5 -247zM426 293q0 88 -38 128.5t-115 40.5
q-68 0 -105 -40t-37 -103q0 -150 152 -150q67 0 105 37t38 87z" />
    <glyph glyph-name="zero.lf" 
d="M526 354q0 -184 -64 -274.5t-183 -90.5q-102 0 -169 91t-67 248q0 176 61.5 269t185.5 93q103 0 169.5 -83.5t66.5 -252.5zM436 326q0 155 -39 217t-118 62q-66 0 -104.5 -62t-38.5 -190q0 -144 42 -211t107 -67q66 0 108.5 60t42.5 191z" />
    <glyph glyph-name="one.lf" horiz-adv-x="345" 
d="M265 0h-33q-60 0 -60 68v517l-102 -48q-13 -6 -26 -6q-32 0 -39 25l-10 34l104 53q74 37 113 37q21 0 37 -13.5t16 -33.5v-633z" />
    <glyph glyph-name="two.lf" 
d="M512 52q0 -20 -14.5 -36t-44.5 -16h-345q-20 0 -32.5 11.5t-12.5 27.5v4q0 35 21 65t91 92l143 127q47 42 66 76t19 73q0 62 -37.5 96t-108.5 34q-123 0 -183 -102h-6v42q0 58 55 101t153 43q93 0 156 -57t63 -141q0 -75 -29.5 -122.5t-102.5 -109.5l-138 -117
q-40 -35 -57 -59h344v-32z" />
    <glyph glyph-name="three.lf" 
d="M499 202q0 -99 -61 -155.5t-185 -56.5q-82 0 -141 38.5t-59 95.5v41h6q70 -91 201 -91q146 0 146 116q0 119 -181 120q-46 0 -46 44v26h26q110 0 152 27t42 86q0 113 -157 113q-69 0 -115.5 -25.5t-68.5 -65.5h-6v39q0 47 56.5 91.5t149.5 44.5q108 0 170.5 -51.5
t62.5 -132.5q0 -128 -142 -156q64 -11 107 -53t43 -95z" />
    <glyph glyph-name="four.lf" 
d="M548 216q0 -47 -50 -47h-59v-169h-33q-26 0 -42.5 15.5t-16.5 47.5v106h-241q-30 0 -49.5 14.5t-19.5 33.5q0 26 6 40q45 98 141.5 234.5t154.5 188.5h38q27 0 44.5 -18t17.5 -57v-359h109v-30zM347 246v346q-43 -50 -115.5 -160t-109.5 -186h225z" />
    <glyph glyph-name="five.lf" 
d="M520 216q0 -106 -66 -166t-182 -60q-85 0 -138 37t-53 88v31h6q61 -72 191 -72q150 0 150 133q0 68 -40.5 97t-130.5 29q-84 0 -168 -28v281q0 94 87 94h314v-30q0 -54 -60 -54h-258v-198q70 14 114 14q112 0 173 -52.5t61 -143.5z" />
    <glyph glyph-name="six.lf" 
d="M528 219q0 -102 -64.5 -165.5t-174.5 -63.5q-103 0 -169.5 81.5t-66.5 239.5q0 168 77 273.5t209 105.5q74 0 115 -32t41 -74v-29h-5q-29 27 -62 40.5t-90 13.5q-90 0 -142 -70t-52 -210q18 43 66 73.5t104 30.5q98 0 156 -59t58 -155zM437 207q0 77 -34.5 111.5
t-105.5 34.5q-67 0 -108 -38t-41 -81q0 -74 40 -119t109 -45q68 0 104 38t36 99z" />
    <glyph glyph-name="seven.lf" horiz-adv-x="490" 
d="M469 629q0 -42 -63 -165l-135 -263q-39 -77 -39 -161v-40h-37q-54 0 -54 62q0 76 47 164l138 258q40 74 48 112h-362v29q0 55 57 55h341q59 0 59 -51z" />
    <glyph glyph-name="eight.lf" 
d="M530 196q0 -87 -61 -146.5t-179 -59.5q-111 0 -172.5 55t-61.5 138q0 54 33.5 98.5t98.5 63.5q-123 40 -123 145q0 87 61.5 143.5t169.5 56.5q98 0 161 -51.5t63 -134.5q0 -64 -32 -100t-95 -52q61 -15 99 -62t38 -94zM429 495q0 52 -36 83t-103 31q-66 0 -100 -30
t-34 -79q0 -54 37 -84t104 -30q132 0 132 109zM438 188q0 53 -37 87t-112 34q-66 0 -103.5 -33t-37.5 -84q0 -54 40 -86t108 -32q71 0 106.5 31.5t35.5 82.5z" />
    <glyph glyph-name="nine.lf" 
d="M518 367q0 -194 -60 -285.5t-191 -91.5q-87 0 -142 36t-55 102v31h5q59 -87 193 -87q84 0 121.5 62t37.5 192q-23 -42 -64.5 -66t-93.5 -24q-106 0 -167.5 63t-61.5 153q0 101 69.5 169.5t169.5 68.5q239 0 239 -323zM426 438q0 88 -38 129t-115 41q-67 0 -104.5 -40.5
t-37.5 -103.5q0 -150 152 -150q67 0 105 37t38 87z" />
    <glyph glyph-name="zero.tosf" horiz-adv-x="600" 
d="M552 282q0 -140 -68 -216.5t-189 -76.5q-104 0 -175 76t-71 191q0 131 66 209.5t191 78.5q105 0 175.5 -68.5t70.5 -193.5zM462 254q0 207 -167 207q-66 0 -109.5 -51t-43.5 -129q0 -96 46.5 -152t112.5 -56q67 0 114 49t47 132z" />
    <glyph glyph-name="one.tosf" horiz-adv-x="600" 
d="M392 0h-33q-60 0 -60 68v378l-95 -67q-23 -16 -43 -16q-23 0 -35 25l-15 32l102 70q46 31 72 42.5t54 11.5q21 0 37 -13.5t16 -33.5v-497z" />
    <glyph glyph-name="two.tosf" horiz-adv-x="600" 
d="M517 52q0 -20 -14.5 -36t-44.5 -16h-325q-21 0 -35.5 13t-14.5 29q0 29 16.5 54.5t70.5 58.5l129 80q58 36 81 67t23 69q0 42 -33.5 66t-89.5 24q-124 0 -181 -102h-6v42q0 58 54 101t149 43q82 0 139.5 -48t57.5 -120q0 -69 -42.5 -119t-132.5 -102l-55 -32l-73 -42h327
v-30z" />
    <glyph glyph-name="three.tosf" horiz-adv-x="600" 
d="M516 38q0 -102 -58.5 -160t-179.5 -58q-79 0 -136 38.5t-57 95.5v41h6q70 -91 194 -91q65 0 101.5 33t36.5 89t-43 90.5t-123 35.5q-46 0 -46 44v26h50q78 0 116.5 32.5t38.5 87.5q0 54 -35 86t-107 32q-66 0 -114 -25.5t-70 -64.5h-6v39q0 47 58 91t148 44
q104 0 161 -52t57 -137q0 -137 -134 -163q62 -11 102 -55.5t40 -98.5z" />
    <glyph glyph-name="four.tosf" horiz-adv-x="600" 
d="M576 47q0 -47 -50 -47h-79v-152h-33q-26 0 -42.5 15.5t-16.5 47.5v89h-261q-30 0 -49.5 14.5t-19.5 33.5q0 26 6 40q47 102 151 247t165 200h38q27 0 44.5 -18t17.5 -57v-383h129v-30zM355 77v370q-46 -54 -125.5 -172t-119.5 -198h245z" />
    <glyph glyph-name="five.tosf" horiz-adv-x="600" 
d="M515 48q0 -102 -68 -165t-180 -63q-79 0 -130 37.5t-51 87.5v31h6q61 -72 181 -72q68 0 109 35t41 100q0 62 -41 94.5t-120 32.5q-84 0 -168 -28v303q0 94 87 94h304v-30q0 -54 -60 -54h-248v-215q70 14 114 14q104 0 164 -56.5t60 -145.5z" />
    <glyph glyph-name="six.tosf" horiz-adv-x="600" 
d="M538 219q0 -102 -64.5 -165.5t-174.5 -63.5q-103 0 -169.5 81.5t-66.5 239.5q0 168 77 273.5t209 105.5q74 0 115 -32t41 -74v-29h-5q-29 27 -62 40.5t-90 13.5q-90 0 -142 -70t-52 -210q18 43 66 73.5t104 30.5q98 0 156 -59t58 -155zM447 207q0 77 -34.5 111.5
t-105.5 34.5q-67 0 -108 -38t-41 -81q0 -74 40 -119t109 -45q68 0 104 38t36 99z" />
    <glyph glyph-name="seven.tosf" horiz-adv-x="600" 
d="M531 484q0 -42 -63 -165l-141 -270q-39 -77 -39 -161v-40h-37q-54 0 -54 62q0 76 47 164l144 265q40 74 48 112h-367v29q0 55 57 55h346q59 0 59 -51z" />
    <glyph glyph-name="eight.tosf" horiz-adv-x="600" 
d="M537 196q0 -87 -61 -146.5t-179 -59.5q-111 0 -172.5 55t-61.5 138q0 54 33.5 98.5t98.5 63.5q-123 40 -123 145q0 87 61.5 143.5t169.5 56.5q98 0 161 -51.5t63 -134.5q0 -64 -32 -100t-95 -52q61 -15 99 -62t38 -94zM436 495q0 52 -36 83t-103 31q-66 0 -100 -30
t-34 -79q0 -54 37 -84t104 -30q132 0 132 109zM445 188q0 53 -37 87t-112 34q-66 0 -103.5 -33t-37.5 -84q0 -54 40 -86t108 -32q71 0 106.5 31.5t35.5 82.5z" />
    <glyph glyph-name="nine.tosf" horiz-adv-x="600" 
d="M539 222q0 -191 -69 -296.5t-202 -105.5q-78 0 -127.5 36t-49.5 102v31h5q53 -87 173 -87q89 0 134 74.5t45 204.5q-23 -42 -64.5 -66t-93.5 -24q-106 0 -167.5 63t-61.5 153q0 101 69.5 169t169.5 68q114 0 176.5 -75t62.5 -247zM447 293q0 88 -38 128.5t-115 40.5
q-68 0 -105 -40t-37 -103q0 -150 152 -150q67 0 105 37t38 87z" />
    <glyph glyph-name="uni2007.tosf" horiz-adv-x="600" 
 />
    <glyph glyph-name="parenleft.case" horiz-adv-x="354" 
d="M298 -105q-31 0 -76 29q-63 40 -115.5 157.5t-52.5 250.5q0 137 45 249t119 169q43 34 84 34h35q-91 -92 -137 -193.5t-46 -237.5q0 -278 177 -458h-33z" />
    <glyph glyph-name="parenright.case" horiz-adv-x="354" 
d="M57 783q31 0 76 -29q63 -40 115.5 -157.5t52.5 -250.5q0 -137 -45 -249t-119 -169q-43 -34 -84 -34h-35q91 92 137 193.5t46 237.5q0 278 -177 458h33z" />
    <glyph glyph-name="hyphen.case" horiz-adv-x="353" 
d="M300 355q0 -24 -14.5 -40.5t-36.5 -16.5h-195v30q0 22 16 38t40 16h190v-27z" />
    <glyph glyph-name="bracketleft.case" horiz-adv-x="320" 
d="M89 -105v890h155q26 0 41.5 -14.5t15.5 -39.5v-17h-128v-748h71q26 0 41.5 -14t15.5 -39v-18h-212z" />
    <glyph glyph-name="bracketright.case" horiz-adv-x="320" 
d="M230 785v-890h-155q-27 0 -42.5 14.5t-15.5 39.5v17h129v748h-71q-26 0 -42 14t-16 39v18h213z" />
    <glyph glyph-name="braceleft.case" horiz-adv-x="370" 
d="M132 633q0 68 41 110t100 42q69 0 69 -47v-19q-29 1 -53 1q-80 0 -80 -111q0 -5 -0.5 -21t-0.5 -25q0 -11 2.5 -42t2.5 -55q0 -56 -21 -83t-68 -36v-3q89 -19 89 -128q0 -41 -3 -63q-2 -20 -2 -35q0 -9 0.5 -24.5t0.5 -20.5q0 -112 80 -112h9q16 0 31.5 -15t15.5 -33v-18
h-71q-64 0 -103 40.5t-39 113.5q0 65 3 93q4 40 4 74q0 36 -18 60t-51 30q-37 7 -37 31v33l37 6q68 11 68 87q0 47 -3 77q-3 28 -3 93z" />
    <glyph glyph-name="braceright.case" horiz-adv-x="370" 
d="M239 47q0 -68 -41 -110t-100 -42q-69 0 -69 47v19q28 -1 53 -1q80 0 80 111q0 5 0.5 21t0.5 25q0 15 -2 35q-3 22 -3 62q0 56 21 83t68 36v3q-89 17 -89 128q0 40 3 63q2 20 2 35q0 8 -0.5 24t-0.5 21q0 112 -80 112h-9q-17 0 -32 14.5t-15 33.5v18h71q64 0 103 -40.5
t39 -113.5q0 -65 -3 -93q-4 -40 -4 -74q0 -36 18 -60t51 -30q37 -7 37 -31v-33l-37 -6q-68 -11 -68 -87q0 -48 3 -77q3 -28 3 -93z" />
    <glyph glyph-name="guillemotleft.case" horiz-adv-x="451" 
d="M407 150q-73 0 -101 45l-87 145l87 146q26 43 101 43h14l-108 -189l108 -190h-14zM219 150q-72 0 -101 45l-97 145l97 146q28 43 101 43h14l-118 -189l118 -190h-14z" />
    <glyph glyph-name="uni00AD.case" horiz-adv-x="353" 
d="M300 355q0 -24 -14.5 -40.5t-36.5 -16.5h-195v30q0 22 16 38t40 16h190v-27z" />
    <glyph glyph-name="guillemotright.case" horiz-adv-x="451" 
d="M233 150h-14l118 190l-118 189h14q73 0 101 -43l97 -146l-97 -145q-29 -45 -101 -45zM45 150h-14l108 190l-108 189h14q75 0 101 -43l87 -146l-87 -145q-28 -45 -101 -45z" />
    <glyph glyph-name="endash.case" 
d="M446 301h-366v24q0 54 57 54h355v-36q0 -16 -13 -29t-33 -13z" />
    <glyph glyph-name="emdash.case" horiz-adv-x="1019" 
d="M900 301h-845v24q0 54 58 54h833v-36q0 -16 -13 -29t-33 -13z" />
    <glyph glyph-name="guilsinglleft.case" horiz-adv-x="339" 
d="M265 150q-72 0 -101 45l-97 145l97 146q28 43 101 43h14l-118 -189l118 -190h-14z" />
    <glyph glyph-name="guilsinglright.case" horiz-adv-x="339" 
d="M69 150h-14l118 190l-118 189h14q73 0 101 -43l97 -146l-97 -145q-29 -45 -101 -45z" />
    <glyph glyph-name="copyright.ss01" horiz-adv-x="806" 
d="M742 342q0 -142 -101 -243t-243 -101t-243 101t-101 243t101 243t243 101t243 -101t101 -243zM525 251q-32 -39 -99 -39q-51 0 -82.5 36.5t-31.5 103.5q0 57 28.5 93.5t85.5 36.5q37 0 64.5 -17t35.5 -40h7v30q0 39 -30.5 65.5t-79.5 26.5q-85 0 -137 -57t-52 -149
q0 -83 53 -139.5t130 -56.5q41 0 77.5 21.5t36.5 57.5v27h-6z" />
    <glyph glyph-name="commaaccent" horiz-adv-x="288" 
d="M218 -86l-37 -129l-31 9q-38 12 -38 43q0 9 2 16l35 122l34 -10q37 -10 37 -39q0 -4 -2 -12z" />
    <glyph glyph-name="commaturn" horiz-adv-x="288" 
d="M86 635v142h32q22 0 37 -14t15 -38v-134h-36q-22 0 -35 12t-13 32z" />
    <glyph glyph-name="undercommaaccent" horiz-adv-x="288" 
d="M218 -86l-37 -129l-31 9q-38 12 -38 43q0 8 2 16l35 122l34 -10q37 -10 37 -39q0 -4 -2 -12z" />
    </font>
</defs>
</svg>
